<svg width="363" height="490" viewBox="0 0 363 490" fill="none" xmlns="http://www.w3.org/2000/svg">
<g clip-path="url(#clip0_0_652)">
<path d="M281.39 377.575C290.084 377.575 293.581 381.375 285.59 382.875C277.599 384.375 273.399 386.375 281.09 387.175C288.781 387.975 328.555 386.375 333.151 391.475C337.651 396.575 222.133 397.275 197.251 397.275C172.369 397.275 141.492 397.175 111.015 393.175C94.429 390.97 85.736 381.975 98.027 380.375C128.004 376.275 272.597 377.575 281.39 377.575Z" fill="#C5DFFF"/>
<path d="M92.531 395.97C96.731 395.97 98.331 400.37 94.531 402.07C90.731 403.77 64.254 418.67 52.462 418.67C40.67 418.67 40.471 416.97 37.273 413.67C34.073 410.47 19.586 407.57 11.592 407.27C3.598 406.97 -0.699001 400.97 5.092 399.07C19.485 394.47 88.334 395.97 92.531 395.97Z" fill="#C5DFFF"/>
<path d="M359.833 397.87C361.433 397.97 363.633 400.27 362.833 402.57C360.633 408.47 353.94 411.97 343.947 411.57C328.259 410.97 327.659 400.77 334.754 398.97C340.847 397.27 358.234 397.77 359.833 397.87Z" fill="#C5DFFF"/>
<path d="M99.326 394.071L46.366 416.071C46.366 416.071 34.974 415.471 21.185 408.471C11.192 403.371 0.0999756 388.571 0.0999756 388.571L5.89998 387.671L64.552 378.071C64.552 378.071 66.852 381.271 74.245 386.871C75.4007 387.728 76.6404 388.465 77.945 389.071C86.236 392.771 99.326 394.071 99.326 394.071Z" fill="#B3FF97"/>
<path d="M99.326 394.07L83.738 400.57L46.266 416.07C46.266 416.07 34.874 415.47 21.085 408.47C16.885 406.37 12.491 402.47 8.794 398.67C5.67118 395.475 2.73498 392.103 0 388.57L5.8 387.67C16.2863 391.099 27.2396 392.887 38.272 392.97C51.572 393.158 64.8496 391.816 77.843 388.97C86.236 392.77 99.326 394.07 99.326 394.07Z" fill="#C8FC75"/>
<path d="M83.8369 400.469L46.3649 415.969C46.3649 415.969 34.9729 415.369 21.1839 408.369C16.9869 406.269 12.5929 402.369 8.89294 398.569C20.7393 401.215 32.8286 402.623 44.9659 402.769C57.963 403.01 70.959 402.241 83.8369 400.469Z" fill="#AFF45B"/>
<path d="M48.3639 412.768C47.9639 413.568 46.4639 414.168 45.0639 414.168C43.6639 414.168 42.9639 413.568 43.3639 412.768C43.7639 411.968 45.2659 411.368 46.6649 411.368C48.0639 411.368 48.7639 412.068 48.3639 412.768Z" fill="#B3FF97"/>
<path d="M92.5311 395.27C92.1311 396.07 90.6311 396.67 89.2311 396.67C87.8311 396.67 87.1311 396.07 87.5311 395.27C87.9311 394.47 89.4331 393.87 90.8321 393.87C92.2311 393.97 92.9311 394.57 92.5311 395.27Z" fill="#B3FF97"/>
<path d="M64.852 381.17C64.4045 381.593 63.8631 381.905 63.2722 382.079C62.6812 382.252 62.0574 382.284 61.452 382.17C60.052 382.07 59.352 381.37 59.852 380.67C60.2995 380.247 60.8409 379.935 61.4319 379.762C62.0228 379.588 62.6466 379.556 63.252 379.67C64.752 379.77 65.452 380.47 64.852 381.17Z" fill="#C8FC75"/>
<path d="M8.69305 390.57C8.19305 391.27 6.59305 391.67 5.29305 391.47C3.89305 391.27 3.29305 390.57 3.79305 389.87C4.29305 389.17 5.89305 388.77 7.19305 388.97C8.59305 389.17 9.19305 389.87 8.69305 390.57Z" fill="#B3FF97"/>
<path d="M344.448 404.57L339.148 397.77L348.042 391.97L358.834 393.07L362.334 399.27L355.534 405.27L344.448 404.57Z" fill="#B3FF97"/>
<path d="M339.148 397.67L340.048 405.17L344.648 409.77L344.348 404.47L339.148 397.67Z" fill="#AFF45B"/>
<path d="M344.644 409.769L355.536 410.469L355.436 405.169L344.344 404.469L344.644 409.769Z" fill="#C8FC75"/>
<path d="M362.231 399.169L361.936 404.269L355.536 410.469L355.436 405.169L362.231 399.169Z" fill="#B7FFB3"/>
<path d="M356.436 398.165C356.444 398.443 356.394 398.719 356.291 398.977C356.188 399.235 356.033 399.469 355.836 399.665C354.678 398.728 353.225 398.232 351.736 398.265C350.892 398.201 350.044 398.319 349.25 398.613C348.456 398.906 347.735 399.367 347.136 399.965C346.803 399.73 346.537 399.413 346.362 399.046C346.187 398.678 346.109 398.271 346.136 397.865C346.136 396.065 348.536 394.565 351.436 394.665C354.137 394.765 356.436 396.265 356.436 398.165Z" fill="#AFF45B"/>
<path d="M119.611 429.767C111.517 433.067 103.723 428.967 103.723 428.967L57.7571 451.367C57.6571 452.967 56.6571 463.567 44.1671 466.267C32.7761 468.664 28.1831 461.964 28.1831 461.964L30.5831 460.564L42.6741 453.464L38.6741 448.964L23.8831 455.965C23.4074 454.72 23.1699 453.397 23.1831 452.065C23.1668 450.912 23.3356 449.764 23.6831 448.665C24.9831 444.865 29.5831 439.165 37.6731 437.865C45.7631 436.565 49.6641 439.765 49.6641 439.765L98.7281 418.865C98.8993 416.905 99.7479 415.067 101.128 413.665C103.328 411.265 107.328 408.065 112.819 408.565C115.181 408.685 117.479 409.371 119.519 410.565C120.098 410.861 120.635 411.231 121.119 411.665L108.928 418.265L113.328 423.165L124.62 417.265C125.354 417.787 125.912 418.519 126.22 419.365L126.52 420.265C127.306 422.667 127.705 426.467 119.611 429.767Z" fill="#D2E9FF"/>
<path d="M119.211 431.067C111.117 434.367 103.723 429.067 103.723 429.067L57.7571 451.467C57.6571 453.067 56.6571 463.667 44.1671 466.367C32.7791 468.767 28.1791 462.067 28.1791 462.067L30.5791 460.667C32.7791 462.167 37.9741 464.667 45.7681 461.967C48.6803 461.072 51.208 459.225 52.9468 456.723C54.6856 454.222 55.535 451.209 55.3591 448.167L104.023 425.867C106.315 427.448 108.989 428.384 111.767 428.578C114.544 428.771 117.322 428.215 119.811 426.967C125.011 424.467 126.311 421.367 126.411 419.367L126.711 420.267C127.305 422.667 127.305 427.667 119.211 431.067Z" fill="#36C486"/>
<path d="M44.167 452.365L42.567 453.665L38.567 449.165L23.783 456.165C23.3073 454.92 23.0699 453.597 23.083 452.265L38.771 445.965L44.167 452.365Z" fill="#36C486"/>
<path d="M121.21 411.768L109.02 418.368L108.22 416.768L119.612 410.668C120.195 410.955 120.734 411.326 121.21 411.768Z" fill="#36C486"/>
<path d="M155.285 421.866C154.785 424.266 153.685 425.966 151.885 426.666C151.099 427.008 150.239 427.146 149.385 427.066C146.285 426.766 144.485 423.266 145.285 417.366C146.085 411.466 149.589 410.266 152.087 410.766C152.287 410.866 152.487 410.866 152.687 410.966C155.585 412.366 155.885 418.666 155.285 421.866Z" fill="#B3FF97"/>
<path d="M155.288 421.868C154.788 424.268 153.688 425.968 151.888 426.668C148.788 426.268 147.688 422.368 148.388 417.268C148.888 413.668 149.888 411.668 152.688 410.968C155.588 412.368 155.888 418.668 155.288 421.868Z" fill="#AFF45B"/>
<path d="M174.071 419.668C174.127 420.155 174.022 420.647 173.771 421.068C173.407 421.798 172.896 422.445 172.271 422.968L151.388 422.068C151.388 422.068 148.688 418.568 152.188 415.968H153.088L172.872 416.668C173.508 417.557 173.919 418.586 174.071 419.668Z" fill="#B3FF97"/>
<path d="M173.772 421.168C173.408 421.898 172.897 422.545 172.272 423.068L151.388 422.168C151.388 422.168 148.688 418.668 152.188 416.068H153.088C152.999 416.679 153.082 417.303 153.33 417.868C153.577 418.434 153.979 418.919 154.488 419.268C155.885 420.368 167.876 420.968 173.772 421.168Z" fill="#AFF45B"/>
<path d="M228.33 428.166C225.93 427.066 224.13 420.666 224.13 415.666C224.069 413.277 224.477 410.899 225.33 408.666C224.419 408.567 223.497 408.669 222.63 408.966C216.63 410.966 217.93 419.266 217.93 419.266C217.976 419.61 217.887 419.958 217.682 420.238C217.477 420.517 217.172 420.707 216.83 420.766C216.486 420.813 216.138 420.724 215.858 420.519C215.578 420.314 215.389 420.008 215.33 419.666C214.73 416.066 215.33 408.666 221.725 406.466C223.291 405.874 224.999 405.77 226.625 406.166C227.48 405.002 228.615 404.074 229.925 403.466C233.425 401.766 236.725 401.466 239.618 402.566C240.492 401.058 241.823 399.867 243.418 399.166C244.61 398.621 245.905 398.339 247.215 398.339C248.525 398.339 249.82 398.621 251.012 399.166C255.112 401.066 257.112 405.566 257.712 407.466C258.674 410.224 258.982 413.168 258.612 416.066C258.579 416.23 258.514 416.386 258.421 416.525C258.328 416.664 258.208 416.784 258.069 416.877C257.93 416.97 257.774 417.034 257.609 417.067C257.445 417.099 257.276 417.099 257.112 417.066C256.948 417.033 256.792 416.968 256.653 416.875C256.514 416.782 256.394 416.662 256.301 416.523C256.208 416.384 256.144 416.228 256.111 416.063C256.079 415.899 256.079 415.73 256.112 415.566C256.426 413.104 256.152 410.602 255.312 408.266C254.912 407.066 253.212 402.966 250.012 401.466C249.124 401.086 248.167 400.899 247.201 400.916C246.236 400.933 245.285 401.155 244.412 401.566C243.346 401.983 242.461 402.762 241.912 403.766C244.736 405.834 246.779 408.793 247.712 412.166C249.112 416.666 248.512 420.866 246.212 422.466C244.712 423.466 242.912 423.266 241.212 421.866C238.512 419.666 237.012 413.066 237.912 407.466C238.053 406.587 238.254 405.718 238.512 404.866C236.312 404.167 233.814 404.467 231.018 405.766C230.272 406.15 229.596 406.658 229.018 407.266C232.018 409.366 234.218 413.866 234.918 419.466C235.518 424.566 234.118 426.866 232.818 427.766C232.528 428.081 232.171 428.326 231.772 428.482C231.374 428.638 230.945 428.701 230.518 428.666C229.763 428.642 229.02 428.473 228.33 428.166Z" fill="#1C3177"/>
<path d="M203.949 466.865C203.97 467.235 203.936 467.605 203.849 467.965C203.049 471.165 200.849 470.565 198.349 469.765C195.849 468.865 182.361 460.365 179.363 458.565C177.562 457.482 175.694 456.514 173.771 455.665L175.371 452.265L177.671 447.165C177.671 447.165 190.761 452.965 196.257 456.765C201.151 460.165 203.949 463.865 203.949 466.865Z" fill="#1C3177"/>
<path d="M203.949 466.865C203.97 467.235 203.936 467.605 203.849 467.965C203.049 471.165 200.849 470.565 198.349 469.765C195.855 468.865 182.365 460.365 179.371 458.565C177.567 457.482 175.697 456.513 173.771 455.665L175.371 452.265C180.071 455.165 190.858 459.565 198.952 464.765C200.751 465.865 202.949 466.965 203.949 466.865Z" fill="#0E2566"/>
<path d="M205.847 477.764C205.868 478.134 205.834 478.504 205.747 478.864C204.947 482.064 202.747 481.464 200.247 480.664C197.747 479.764 176.864 467.064 173.867 465.264C172.066 464.181 170.198 463.213 168.275 462.364L169.875 458.964L172.175 453.864C172.175 453.864 192.657 463.764 198.153 467.664C202.949 471.064 205.747 474.764 205.847 477.764Z" fill="#1C3177"/>
<path d="M205.847 477.764C205.868 478.134 205.834 478.504 205.747 478.864C204.947 482.064 202.747 481.464 200.247 480.664C197.753 479.764 176.869 467.064 173.875 465.264C172.071 464.181 170.201 463.212 168.275 462.364L169.875 458.964C174.575 461.864 198.453 476.064 202.15 477.364C203.346 477.728 204.6 477.864 205.847 477.764Z" fill="#0E2566"/>
<path d="M199.851 484.664C199.872 485.034 199.838 485.404 199.751 485.764C198.951 488.964 196.751 488.364 194.251 487.564C191.751 486.664 170.868 473.964 167.871 472.164C166.07 471.081 164.202 470.113 162.279 469.264L163.879 465.864L166.179 460.764C166.179 460.764 186.161 471.764 191.557 475.664C196.554 479.064 199.851 481.664 199.851 484.664Z" fill="#1C3177"/>
<path d="M199.851 484.664C199.872 485.034 199.838 485.404 199.751 485.764C198.951 488.964 196.751 488.364 194.251 487.564C191.757 486.664 170.873 473.964 167.879 472.164C166.075 471.081 164.205 470.112 162.279 469.264L163.879 465.864C168.579 468.764 192.457 482.964 196.154 484.264C197.352 484.619 198.605 484.755 199.851 484.664Z" fill="#0E2566"/>
<path d="M188.959 486.264V487.364C188.359 490.664 186.159 490.164 183.659 489.564C181.165 488.864 159.281 477.764 156.188 476.264C154.315 475.297 152.377 474.462 150.388 473.764L151.688 470.264L154.988 464.264C154.988 464.264 174.67 475.064 180.466 478.464C185.462 481.564 188.759 483.264 188.959 486.264Z" fill="#1C3177"/>
<path d="M188.959 486.264V487.364C188.359 490.664 186.159 490.164 183.659 489.564C181.165 488.864 159.281 477.764 156.188 476.264C154.315 475.297 152.377 474.462 150.388 473.764L153.388 468.764C158.288 471.264 181.467 485.164 185.264 486.164C186.477 486.442 187.733 486.476 188.959 486.264Z" fill="#0E2566"/>
<path d="M177.768 447.166C175.793 452.61 173.141 457.784 169.874 462.566C167.774 465.666 165.874 468.466 164.274 470.766C163.474 471.866 162.774 472.866 162.174 473.766C160.374 476.266 159.274 477.766 159.274 477.766C154.022 476.078 148.966 473.832 144.193 471.066C136.499 466.566 129.903 461.366 128.205 459.266C126.105 456.766 127.005 453.166 127.005 453.166C127.152 452.331 127.422 451.522 127.805 450.766C129.087 448.187 130.852 445.879 133.005 443.966C136.17 441.004 139.864 438.664 143.893 437.066L177.768 447.166Z" fill="#1C3177"/>
<path d="M162.179 473.665C160.379 476.165 159.279 477.665 159.279 477.665C154.024 475.978 148.965 473.732 144.19 470.965C136.499 466.465 129.903 461.265 128.205 459.165C126.106 456.665 127.006 453.065 127.006 453.065C127.153 452.23 127.422 451.421 127.805 450.665C133.905 457.465 139.496 461.365 150.588 467.665C153.986 469.665 159.282 472.365 162.179 473.665Z" fill="#0E2566"/>
<path d="M344.844 443.766L253.412 487.558C253.412 487.558 245.418 489.558 238.823 484.058C237.402 482.942 236.184 481.588 235.223 480.058C232.023 475.158 231.223 470.858 231.423 467.558C231.502 465.519 231.978 463.515 232.823 461.658L329.556 418.468C332.848 418.389 336.098 419.22 338.949 420.868C340.833 422.059 342.382 423.711 343.449 425.668C344.742 428.076 345.493 430.739 345.649 433.468C345.995 436.921 345.722 440.409 344.844 443.766Z" fill="#C8FC75"/>
<path d="M344.844 443.767L253.412 487.567C253.412 487.567 245.423 489.567 238.823 484.067L345.744 433.567C346.026 436.993 345.722 440.443 344.844 443.767Z" fill="#AFF45B"/>
<path d="M339.048 420.968L231.428 467.568C231.507 465.529 231.983 463.525 232.828 461.668L329.555 418.468C329.655 418.568 334.651 418.268 339.048 420.968Z" fill="#B3FF97"/>
<path d="M232.825 461.765C232.825 461.765 243.117 455.565 250.512 466.465C259.505 479.765 253.312 487.665 253.312 487.665C253.312 487.665 241.825 491.763 235.125 482.763C228.63 473.764 229.625 466.464 232.825 461.765Z" fill="#AFF45B"/>
<path d="M277.993 475.664C277.852 475.679 277.71 475.644 277.593 475.564C277.348 475.509 277.116 475.406 276.912 475.259C276.707 475.113 276.535 474.926 276.404 474.712C276.273 474.497 276.187 474.258 276.151 474.009C276.115 473.761 276.129 473.507 276.193 473.264C277.006 468.29 275.937 463.192 273.193 458.964C268.693 452.264 263.4 452.964 263.4 452.964C262.898 453.029 262.391 452.899 261.982 452.602C261.573 452.304 261.293 451.861 261.2 451.364C261.135 450.862 261.265 450.355 261.563 449.946C261.86 449.537 262.303 449.257 262.8 449.164C263.1 449.164 270.594 448.064 276.39 456.764C279.791 461.844 281.082 468.049 279.99 474.064C279.88 474.513 279.624 474.914 279.263 475.203C278.902 475.493 278.456 475.655 277.993 475.664Z" fill="#AFF45B"/>
<path d="M304.174 462.064C304.033 462.079 303.891 462.044 303.774 461.964C303.529 461.909 303.297 461.806 303.093 461.659C302.888 461.513 302.716 461.326 302.585 461.112C302.454 460.897 302.368 460.658 302.332 460.409C302.296 460.161 302.31 459.907 302.374 459.664C303.138 454.973 302.14 450.165 299.574 446.164C295.474 439.964 290.681 440.564 290.481 440.564C289.983 440.609 289.485 440.471 289.081 440.177C288.676 439.883 288.392 439.452 288.281 438.964C288.216 438.462 288.346 437.955 288.644 437.546C288.941 437.137 289.384 436.857 289.881 436.764C290.181 436.764 297.176 435.664 302.771 444.064C305.94 448.94 307.154 454.832 306.171 460.564C306.014 460.977 305.743 461.337 305.389 461.603C305.036 461.868 304.615 462.028 304.174 462.064Z" fill="#AFF45B"/>
<path d="M329.055 450.766C328.914 450.781 328.772 450.746 328.655 450.666C328.41 450.611 328.178 450.508 327.974 450.361C327.769 450.215 327.597 450.028 327.466 449.814C327.335 449.599 327.249 449.36 327.213 449.111C327.177 448.863 327.191 448.609 327.255 448.366C328.019 443.675 327.021 438.867 324.455 434.866C320.355 428.566 315.662 429.266 315.562 429.266C315.312 429.309 315.056 429.301 314.809 429.243C314.562 429.185 314.33 429.079 314.125 428.93C313.92 428.781 313.747 428.592 313.616 428.375C313.485 428.158 313.398 427.917 313.362 427.666C313.319 427.416 313.327 427.16 313.385 426.913C313.443 426.667 313.549 426.434 313.698 426.229C313.847 426.024 314.036 425.851 314.253 425.72C314.47 425.589 314.711 425.502 314.962 425.466C315.262 425.466 322.257 424.466 327.653 432.766C330.822 437.642 332.003 443.546 330.953 449.266C330.856 449.695 330.614 450.078 330.269 450.351C329.923 450.624 329.495 450.771 329.055 450.766Z" fill="#AFF45B"/>
<path d="M290.288 334.774C283.093 348.474 271.902 358.574 264.407 358.774C258.807 358.874 257.012 356.774 257.907 350.674C258.343 348.179 258.911 345.709 259.607 343.274C263.007 331.374 269.1 320.374 272.597 314.674C277.797 306.374 286.687 307.774 291.183 311.274C291.853 311.762 292.458 312.333 292.983 312.974C296.779 317.176 296.479 322.775 290.288 334.774Z" fill="#1C3177"/>
<path d="M290.288 334.776C283.088 348.476 271.898 358.576 264.403 358.776C258.803 358.876 257.008 356.776 257.903 350.676C259.203 352.276 261.403 353.576 264.898 352.876C272.297 351.376 285.588 337.576 290.488 324.676C292.488 319.376 293.088 315.576 293.088 312.976C296.779 317.176 296.479 322.776 290.288 334.776Z" fill="#0E2566"/>
<path d="M287.686 316.876C287.986 321.276 283.986 328.176 277.993 332.976C272 337.776 268.2 334.276 270.598 326.376C273.096 318.476 278.892 311.376 282.889 311.376C285.487 311.376 287.386 313.276 287.686 316.876Z" fill="#0E2566"/>
<path d="M282.19 324.275C281.546 325.448 280.7 326.498 279.69 327.375C277.925 328.945 275.792 330.046 273.49 330.575C273.49 330.575 249.108 324.175 220.629 292.775C204.841 275.375 197.146 261.275 193.349 252.075C190.249 244.675 189.849 240.475 189.849 240.475C190.199 238.384 191.258 236.477 192.849 235.075C195.33 232.782 198.357 231.164 201.642 230.375C203.715 229.75 205.879 229.48 208.042 229.575C214.937 229.875 217.635 234.375 217.635 234.375C217.635 234.375 218.535 237.075 220.235 241.275C224.535 251.975 234.225 272.575 248.714 286.175C269.099 305.075 282.689 312.275 282.689 312.275C283.174 313.801 283.476 315.378 283.589 316.975C283.947 319.496 283.455 322.065 282.19 324.275Z" fill="#C8FC75"/>
<path d="M279.692 327.375C277.927 328.945 275.794 330.046 273.492 330.575C273.492 330.575 249.11 324.175 220.631 292.775C192.152 261.375 189.959 240.482 189.959 240.482C190.309 238.391 191.368 236.484 192.959 235.082C197.859 247.582 211.745 277.982 239.325 299.882C259.208 315.576 272.198 323.475 279.692 327.375Z" fill="#AFF45B"/>
<path d="M283.689 316.975C274.596 312.475 256.309 302.175 240.221 285.675C221.635 266.482 211.145 238.482 208.145 229.582C215.04 229.882 217.738 234.382 217.738 234.382C217.738 234.382 228.53 267.182 248.915 286.182C269.3 305.082 282.89 312.282 282.89 312.282C283.366 313.803 283.635 315.382 283.689 316.975Z" fill="#B3FF97"/>
<path d="M220.336 241.281C218.836 242.281 217.236 243.381 215.536 244.381C205.743 250.181 198.049 251.781 193.352 252.081C190.252 244.681 189.852 240.481 189.852 240.481C190.202 238.39 191.261 236.483 192.852 235.081C195.333 232.788 198.36 231.17 201.645 230.381C203.718 229.756 205.882 229.486 208.045 229.581C214.94 229.881 217.638 234.381 217.638 234.381C217.638 234.381 218.638 236.982 220.336 241.281Z" fill="#AFF45B"/>
<path d="M202.749 261.88C201.306 261.881 199.867 261.747 198.449 261.48C198.131 261.39 197.855 261.19 197.672 260.915C197.488 260.64 197.409 260.308 197.449 259.98C197.527 259.655 197.725 259.371 198.003 259.186C198.281 259 198.619 258.927 198.949 258.98C203.782 259.826 208.759 258.978 213.039 256.58C219.639 252.58 220.334 248.28 220.334 248.28C220.354 248.116 220.406 247.957 220.487 247.813C220.568 247.669 220.676 247.542 220.806 247.44C220.936 247.338 221.085 247.262 221.244 247.218C221.403 247.173 221.57 247.16 221.734 247.18C221.898 247.2 222.057 247.252 222.201 247.333C222.345 247.414 222.472 247.522 222.574 247.652C222.676 247.782 222.752 247.931 222.796 248.09C222.841 248.249 222.854 248.416 222.834 248.58C222.834 248.78 222.034 254.08 214.34 258.78C210.829 260.846 206.822 261.918 202.749 261.88Z" fill="#AFF45B"/>
<path d="M218.637 288.079C217.899 288.077 217.163 288.01 216.437 287.879C216.122 287.772 215.86 287.548 215.705 287.254C215.55 286.96 215.514 286.618 215.603 286.298C215.693 285.977 215.902 285.704 216.187 285.533C216.473 285.362 216.812 285.307 217.137 285.379C217.337 285.479 222.037 286.579 228.329 281.479C234.129 276.779 234.229 272.579 234.229 272.379C234.235 272.036 234.374 271.709 234.616 271.466C234.859 271.224 235.186 271.085 235.529 271.079V271.079C235.872 271.085 236.199 271.224 236.442 271.466C236.684 271.709 236.823 272.036 236.829 272.379C236.829 272.579 236.729 277.979 229.934 283.479C225.232 287.379 221.035 288.079 218.637 288.079Z" fill="#AFF45B"/>
<path d="M233.527 304.876C233.355 304.882 233.183 304.852 233.023 304.788C232.863 304.725 232.717 304.629 232.595 304.508C232.474 304.386 232.378 304.24 232.315 304.08C232.251 303.92 232.222 303.748 232.227 303.576C232.233 303.233 232.372 302.906 232.614 302.663C232.857 302.421 233.184 302.282 233.527 302.276C237.478 302.159 241.248 300.593 244.119 297.876C245.374 296.688 246.355 295.24 246.994 293.634C247.633 292.028 247.915 290.302 247.819 288.576C247.799 288.412 247.812 288.245 247.857 288.086C247.901 287.927 247.977 287.778 248.079 287.648C248.181 287.518 248.308 287.41 248.452 287.329C248.596 287.248 248.755 287.196 248.919 287.176C249.083 287.156 249.25 287.169 249.409 287.214C249.568 287.258 249.717 287.334 249.847 287.436C249.977 287.538 250.086 287.665 250.167 287.809C250.248 287.953 250.299 288.112 250.319 288.276C250.47 290.398 250.155 292.527 249.394 294.514C248.634 296.501 247.448 298.297 245.919 299.776C242.576 302.973 238.152 304.794 233.527 304.876Z" fill="#AFF45B"/>
<path d="M252.713 319.675H252.313C251.977 319.627 251.671 319.458 251.45 319.2C251.229 318.943 251.11 318.614 251.113 318.275C251.161 317.939 251.33 317.633 251.588 317.412C251.845 317.191 252.174 317.072 252.513 317.075C252.713 317.075 257.013 317.275 261.207 312.075C264.407 308.175 263.307 302.175 263.307 302.075C263.274 301.911 263.274 301.742 263.306 301.578C263.339 301.413 263.403 301.257 263.496 301.118C263.589 300.979 263.709 300.859 263.848 300.766C263.987 300.673 264.143 300.608 264.307 300.575C264.471 300.542 264.64 300.542 264.804 300.574C264.969 300.607 265.125 300.671 265.264 300.764C265.403 300.857 265.523 300.977 265.616 301.116C265.709 301.255 265.774 301.411 265.807 301.575C265.907 301.875 267.107 308.775 263.207 313.675C258.707 319.275 254.013 319.675 252.713 319.675Z" fill="#AFF45B"/>
<path d="M166.076 384.37C160.876 385.97 144.292 386.67 130.902 386.47C118.711 386.27 113.215 384.27 117.512 379.67C118.01 379.097 118.582 378.593 119.212 378.17C126.307 372.47 143.394 367.67 151.488 367.07C159.082 366.47 165.777 365.57 167.176 368.37C168.379 371.09 169.09 374.002 169.276 376.97C169.474 380.37 168.774 383.57 166.076 384.37Z" fill="#1C3177"/>
<path d="M166.076 384.371C160.88 385.971 144.293 386.671 130.903 386.471C118.712 386.271 113.216 384.271 117.513 379.671C121.013 380.671 128.205 381.971 141.495 381.571C157.483 381.071 164.977 379.171 169.174 376.971C169.474 380.371 168.774 383.571 166.076 384.371Z" fill="#0E2566"/>
<path d="M146.891 367.871C138.797 368.871 131.203 374.171 141.191 374.771C153.082 375.471 167.372 370.071 166.172 368.271C164.977 366.371 155.484 366.771 146.891 367.871Z" fill="#0E2566"/>
<path d="M165.177 367.368C165.177 367.368 164.077 369.868 158.577 371.868C158.088 372.065 157.587 372.232 157.077 372.368C153.62 373.289 150.001 373.426 146.485 372.768C145.069 372.549 143.667 372.248 142.285 371.868C142.285 371.868 130.594 348.268 126.597 326.968C122.6 305.668 119.897 288.368 125.197 266.168C126.397 261.368 127.397 257.468 128.397 254.268C131.897 242.768 134.197 240.668 134.197 240.668C135.805 240.221 137.442 239.887 139.097 239.668C143.197 239.068 149.09 239.068 153.187 242.068C154.194 242.818 155.162 243.619 156.087 244.468C158.683 246.748 160.675 249.633 161.887 252.868C159.243 256.966 157.095 261.364 155.487 265.968C151.239 277.702 149.073 290.088 149.087 302.568C148.789 334.674 165.177 367.368 165.177 367.368Z" fill="#C8FC75"/>
<path d="M165.177 367.372C165.177 367.372 164.077 369.872 158.577 371.872C153.277 361.472 145.787 342.972 141.69 315.172C136.199 277.081 150.688 252.281 156.084 244.581C158.68 246.861 160.672 249.746 161.884 252.981C161.884 252.981 149.389 270.581 149.089 302.681C148.789 334.781 165.177 367.372 165.177 367.372Z" fill="#AFF45B"/>
<path d="M146.591 372.772C145.175 372.553 143.772 372.252 142.391 371.872C142.391 371.872 130.7 348.272 126.703 326.972C122.706 305.672 120.003 288.372 125.303 266.172C130.603 244.082 134.3 240.682 134.3 240.682C135.908 240.235 137.545 239.901 139.2 239.682C130.757 257.936 127.012 278.011 128.304 298.082C130.103 327.075 141.894 360.473 146.591 372.772Z" fill="#B3FF97"/>
<path d="M151.488 275.579C151.293 275.581 151.102 275.536 150.928 275.449C150.754 275.362 150.603 275.235 150.488 275.079C150.488 275.079 147.488 271.079 139.996 269.179C132.302 267.279 127.106 268.579 127.106 268.579C126.942 268.627 126.77 268.642 126.6 268.622C126.43 268.603 126.265 268.55 126.116 268.466C125.967 268.382 125.836 268.269 125.732 268.134C125.627 267.999 125.55 267.844 125.506 267.679C125.458 267.515 125.443 267.343 125.463 267.173C125.482 267.003 125.535 266.839 125.619 266.69C125.703 266.541 125.816 266.41 125.951 266.305C126.086 266.2 126.241 266.123 126.406 266.079C126.606 265.979 132.206 264.579 140.595 266.679C149.089 268.779 152.386 273.379 152.586 273.579C152.686 273.716 152.757 273.872 152.796 274.038C152.835 274.203 152.841 274.374 152.813 274.542C152.785 274.709 152.724 274.87 152.633 275.013C152.543 275.157 152.425 275.281 152.286 275.379C152.03 275.481 151.762 275.548 151.488 275.579Z" fill="#AFF45B"/>
<path d="M147.89 301.981C147.719 301.99 147.548 301.959 147.392 301.889C147.236 301.82 147.098 301.714 146.99 301.581C146.99 301.581 143.59 298.281 136.398 297.681C129.104 297.181 124.608 299.281 124.608 299.281C124.301 299.415 123.955 299.428 123.639 299.317C123.324 299.205 123.062 298.978 122.908 298.681C122.83 298.531 122.784 298.367 122.772 298.198C122.76 298.029 122.783 297.86 122.839 297.701C122.895 297.541 122.984 297.395 123.099 297.271C123.214 297.148 123.353 297.049 123.508 296.981C123.708 296.881 128.608 294.481 136.698 295.081C144.892 295.681 148.789 299.581 148.989 299.681C149.108 299.799 149.202 299.939 149.266 300.094C149.331 300.248 149.364 300.414 149.364 300.581C149.364 300.748 149.331 300.914 149.266 301.068C149.202 301.223 149.108 301.363 148.989 301.481C148.696 301.777 148.305 301.954 147.89 301.981Z" fill="#AFF45B"/>
<path d="M136.698 327.874C133.566 327.962 130.446 327.453 127.505 326.374C127.343 326.314 127.195 326.222 127.07 326.102C126.946 325.982 126.847 325.838 126.782 325.678C126.716 325.518 126.684 325.346 126.688 325.173C126.692 325.001 126.732 324.831 126.805 324.674C126.864 324.512 126.957 324.364 127.077 324.239C127.197 324.114 127.341 324.016 127.501 323.95C127.661 323.884 127.833 323.852 128.006 323.857C128.178 323.861 128.348 323.901 128.505 323.974C131.719 325.053 135.12 325.461 138.498 325.174C142.14 324.981 145.707 324.063 148.99 322.475C149.283 322.323 149.624 322.29 149.94 322.383C150.257 322.476 150.526 322.688 150.69 322.975C150.842 323.268 150.874 323.609 150.781 323.925C150.688 324.242 150.476 324.511 150.19 324.675C146.557 326.415 142.62 327.434 138.599 327.675C137.98 327.84 137.338 327.907 136.698 327.874Z" fill="#AFF45B"/>
<path d="M142.095 352.773C137.195 352.773 134.401 351.273 134.301 351.173C134.151 351.1 134.018 350.996 133.911 350.869C133.803 350.742 133.723 350.593 133.676 350.433C133.629 350.273 133.616 350.105 133.637 349.94C133.659 349.775 133.715 349.616 133.801 349.473C133.965 349.187 134.234 348.975 134.55 348.881C134.867 348.788 135.208 348.821 135.501 348.973C135.601 348.973 139.201 350.873 145.593 349.973C151.893 349.073 154.287 346.473 154.287 346.473C154.512 346.221 154.829 346.069 155.166 346.05C155.504 346.032 155.835 346.148 156.087 346.373C156.339 346.599 156.491 346.915 156.51 347.252C156.529 347.59 156.412 347.921 156.187 348.173C156.087 348.273 153.287 351.473 145.895 352.473C144.644 352.718 143.369 352.819 142.095 352.773Z" fill="#AFF45B"/>
<path d="M161.979 252.88C159.335 256.978 157.186 261.376 155.579 265.98C154.179 265.18 152.679 264.38 151.079 263.48C144.001 259.414 136.408 256.319 128.504 254.28C132.004 242.78 134.304 240.68 134.304 240.68C135.912 240.233 137.549 239.899 139.204 239.68C143.304 239.08 149.197 239.08 153.294 242.08C154.301 242.83 155.269 243.631 156.194 244.48C160.78 248.881 161.979 252.88 161.979 252.88Z" fill="#AFF45B"/>
<path d="M136.299 146.788C136.299 146.788 126.406 172.088 122.209 188.788C118.012 205.488 108.719 241.088 108.719 241.088C106.807 242.676 104.597 243.866 102.219 244.588C100.566 245.076 98.8284 245.213 97.1191 244.988C93.2656 244.218 89.7837 242.172 87.2351 239.181C87.2351 239.181 94.9291 217.381 100.725 195.581C106.525 173.681 118.012 135.181 118.012 135.181C125.107 134.381 129.503 135.481 132.201 137.181C133.747 138.208 134.958 139.665 135.686 141.372C136.414 143.079 136.627 144.962 136.299 146.788Z" fill="#C8FC75"/>
<path d="M136.299 146.789C136.299 146.789 126.406 172.089 122.209 188.789C118.012 205.489 108.719 241.089 108.719 241.089C106.807 242.677 104.597 243.867 102.219 244.589C104.419 236.289 108.219 222.089 112.511 204.889C118.612 180.789 129.404 146.189 132.102 137.289C133.669 138.274 134.905 139.705 135.653 141.397C136.401 143.09 136.626 144.968 136.299 146.789Z" fill="#AFF45B"/>
<path d="M110.817 227.282C110.561 227.282 110.31 227.206 110.096 227.064C109.883 226.921 109.716 226.719 109.617 226.482C109.617 226.482 107.817 221.882 103.917 220.982C98.9172 219.782 96.1232 220.982 96.1232 220.982C95.8166 221.116 95.4703 221.129 95.1547 221.018C94.839 220.906 94.5775 220.679 94.4232 220.382C94.289 220.075 94.2764 219.729 94.3878 219.414C94.4991 219.098 94.7263 218.837 95.0232 218.682C95.1232 218.582 98.5232 216.982 104.516 218.482C109.716 219.682 111.911 225.382 112.01 225.582C112.135 225.901 112.132 226.256 112.002 226.573C111.871 226.889 111.623 227.143 111.31 227.282H110.817Z" fill="#AFF45B"/>
<path d="M118.512 198.784C118.271 198.771 118.036 198.7 117.828 198.579C117.619 198.457 117.442 198.287 117.312 198.084C117.312 198.084 115.012 193.484 111.312 192.584C106.512 191.484 103.917 192.584 103.917 192.584C103.611 192.718 103.264 192.731 102.949 192.62C102.633 192.508 102.371 192.281 102.217 191.984C102.083 191.677 102.07 191.331 102.182 191.016C102.293 190.7 102.52 190.439 102.817 190.284C102.917 190.184 106.217 188.684 112.01 190.084C116.91 191.284 119.604 196.684 119.704 196.884C119.838 197.191 119.851 197.537 119.74 197.852C119.628 198.168 119.401 198.43 119.104 198.584C118.924 198.694 118.722 198.762 118.512 198.784Z" fill="#AFF45B"/>
<path d="M126.206 170.686C125.975 170.684 125.75 170.618 125.556 170.494C125.361 170.37 125.205 170.194 125.106 169.986C125.106 169.986 123.106 165.986 119.306 164.986C114.506 163.786 111.812 164.986 111.812 164.986C111.505 165.12 111.159 165.133 110.844 165.022C110.528 164.91 110.266 164.683 110.112 164.386C109.978 164.079 109.965 163.733 110.077 163.418C110.188 163.102 110.415 162.841 110.712 162.686C110.812 162.586 114.112 161.086 119.905 162.486C124.805 163.686 127.2 168.586 127.3 168.786C127.434 169.093 127.447 169.439 127.335 169.754C127.224 170.07 126.997 170.332 126.7 170.486C126.565 170.61 126.389 170.681 126.206 170.686Z" fill="#AFF45B"/>
<path d="M108.719 240.981L105.519 261.481C103.982 262.014 102.412 262.449 100.819 262.781C98.6592 263.339 96.4476 263.674 94.2192 263.781C87.4242 264.181 84.4262 263.181 84.4262 263.181C84.4262 263.181 83.2262 260.581 84.4262 251.781C84.9007 247.138 85.9418 242.571 87.5262 238.181C87.5262 238.181 90.7262 236.381 97.4192 236.981C99.4915 237.147 101.538 237.55 103.519 238.181C105.444 238.703 107.224 239.661 108.719 240.981Z" fill="#1C3177"/>
<path d="M108.719 240.981L105.525 261.481C103.988 262.015 102.418 262.449 100.825 262.781L103.525 238.181C105.45 238.703 107.229 239.661 108.725 240.981H108.719Z" fill="#0E2566"/>
<path d="M103.722 247.281L110.422 255.381C110.422 255.381 112.922 259.481 116.322 257.281C118.622 255.681 116.022 252.281 115.222 250.881C115.022 250.481 111.622 245.881 109.422 242.881C109.085 242.417 108.64 242.043 108.125 241.792C107.61 241.54 107.042 241.419 106.469 241.439C105.896 241.459 105.337 241.619 104.841 241.905C104.344 242.191 103.926 242.595 103.622 243.081C102.823 243.981 102.623 245.381 103.722 247.281Z" fill="#1C3177"/>
<path d="M84.5371 262.179C84.5371 262.179 85.5371 270.779 86.9371 274.779C88.3371 278.879 90.5371 283.279 91.8371 283.879C93.1371 284.479 94.2371 283.179 94.4371 281.179C94.6371 279.179 93.0371 275.479 92.3371 270.779C91.6371 266.079 91.0371 262.479 91.0371 262.479C91.0371 262.479 87.1371 258.68 84.5371 262.179Z" fill="#1C3177"/>
<path d="M91.2319 262.279C91.2319 262.279 93.1319 271.379 94.9319 275.579C96.7319 279.779 99.4319 284.379 100.732 284.879C102.032 285.379 103.032 283.979 103.032 281.779C103.032 279.579 101.032 275.879 99.8319 270.879C99.1113 267.899 98.7421 264.845 98.7319 261.779C98.7319 261.779 93.4319 258.28 91.2319 262.279Z" fill="#1C3177"/>
<path d="M98.7261 260.88C98.7261 260.88 100.626 269.38 102.426 273.28C104.226 277.18 106.926 281.48 108.226 281.98C109.526 282.48 110.526 281.08 110.526 279.08C110.526 277.08 108.526 273.58 107.326 268.88C106.126 264.28 105.226 260.78 105.226 260.78C105.226 260.78 100.926 257.18 98.7261 260.88Z" fill="#1C3177"/>
<path d="M230.828 205.284C230.053 207.984 229.084 210.624 227.928 213.184C225.613 218.396 222.767 223.356 219.434 227.984C216.334 232.284 208.242 239.484 196.951 244.984C187.469 249.714 177.066 252.308 166.474 252.584C144.99 252.884 133.199 247.684 127.203 243.384C125.021 241.904 123.125 240.041 121.609 237.884L153.685 228.284L230.828 205.284Z" fill="#B7FFB3"/>
<path d="M196.953 244.982C187.471 249.712 177.068 252.306 166.476 252.582C144.992 252.882 133.201 247.682 127.205 243.382C125.022 241.903 123.126 240.039 121.609 237.882L153.685 228.282C158.685 231.882 177.068 229.482 198.652 234.482C200.35 234.882 199.551 241.582 196.953 244.982Z" fill="#C8FC75"/>
<path d="M230.828 205.284C230.053 207.984 229.084 210.624 227.928 213.184C225.828 215.584 223.428 218.184 220.533 220.984C213.812 227.569 206.448 233.465 198.552 238.584C198.552 238.584 186.261 242.884 165.876 243.984C150.887 244.784 134.599 243.784 127.009 243.284C124.825 241.805 122.927 239.941 121.409 237.784L230.828 205.284Z" fill="#1C3177"/>
<path d="M199.151 233.981L197.851 234.281C184.391 237.637 170.637 239.679 156.782 240.381C149.89 240.786 142.979 240.719 136.097 240.181C126.204 239.381 121.608 237.781 121.608 237.781L113.615 130.09L120.61 128.79L161.979 121.19C161.979 121.19 169.673 143.59 180.365 174.89C190.958 206.083 199.151 233.981 199.151 233.981Z" fill="#C8FC75"/>
<path d="M230.828 205.284C230.828 205.284 227.328 209.584 220.236 216.884L220.136 216.984C212.941 224.384 199.152 233.984 199.152 233.984H199.052C196.652 225.484 191.957 209.684 186.561 193.484C178.567 169.787 161.979 121.192 161.979 121.192L172.371 106.792L177.971 98.992C177.971 98.992 192.756 113.092 206.446 140.992C220.136 168.892 230.828 205.284 230.828 205.284Z" fill="#B3FF97"/>
<path d="M177.967 98.992L161.979 121.192L113.515 130.092L131.202 111.192L162.179 103.092L177.967 98.992Z" fill="#C8FC75"/>
<path d="M136.098 240.281C126.205 239.481 121.609 237.881 121.609 237.881L113.615 130.19L120.61 128.89L136.098 240.281Z" fill="#AFF45B"/>
<path d="M162.179 103.092C160.331 106.714 158.012 110.076 155.284 113.092C150.789 118.097 145.358 122.174 139.296 125.092L113.515 130.092L131.102 111.192L162.179 103.092Z" fill="#AFF45B"/>
<path d="M230.828 205.284C230.828 205.284 227.328 209.584 220.236 216.884C214.988 198.554 208.818 180.5 201.749 162.792C190.657 134.992 179.566 116.892 172.371 106.792L177.971 98.992C177.971 98.992 192.756 113.092 206.446 140.992C220.136 168.892 230.828 205.284 230.828 205.284Z" fill="#B7FFB3"/>
<path d="M181.564 216.883C181.62 217.203 181.605 217.532 181.52 217.845C181.436 218.159 181.283 218.45 181.073 218.698C180.863 218.946 180.601 219.145 180.306 219.281C180.011 219.416 179.689 219.485 179.364 219.483C178.662 219.463 177.99 219.188 177.475 218.709C176.96 218.231 176.637 217.582 176.564 216.883C176.508 216.563 176.523 216.234 176.608 215.92C176.693 215.606 176.846 215.315 177.056 215.067C177.266 214.819 177.528 214.62 177.824 214.485C178.119 214.349 178.441 214.28 178.766 214.283C179.463 214.321 180.124 214.602 180.635 215.077C181.147 215.552 181.475 216.191 181.564 216.883Z" fill="#AFF45B"/>
<path d="M167.678 156.688C167.694 157.017 167.645 157.346 167.532 157.656C167.42 157.965 167.247 158.25 167.024 158.492C166.8 158.734 166.531 158.929 166.231 159.066C165.931 159.202 165.607 159.278 165.278 159.288C164.598 159.259 163.953 158.976 163.471 158.495C162.99 158.013 162.707 157.368 162.678 156.688C162.662 156.359 162.711 156.03 162.824 155.72C162.936 155.411 163.109 155.126 163.332 154.884C163.556 154.642 163.825 154.447 164.125 154.31C164.425 154.174 164.749 154.098 165.078 154.088C165.764 154.1 166.419 154.377 166.904 154.862C167.389 155.347 167.666 156.002 167.678 156.688Z" fill="#AFF45B"/>
<path d="M123.91 163.787C123.929 164.077 123.889 164.368 123.792 164.642C123.696 164.917 123.545 165.169 123.349 165.384C123.153 165.598 122.916 165.771 122.651 165.892C122.387 166.013 122.101 166.079 121.81 166.087C121.514 166.082 121.222 166.018 120.951 165.899C120.68 165.78 120.436 165.609 120.231 165.395C120.027 165.181 119.866 164.929 119.76 164.653C119.653 164.377 119.602 164.083 119.61 163.787C119.591 163.497 119.631 163.206 119.728 162.932C119.824 162.657 119.975 162.405 120.171 162.19C120.367 161.976 120.604 161.803 120.869 161.682C121.133 161.561 121.419 161.495 121.71 161.487C122.006 161.492 122.298 161.556 122.569 161.675C122.84 161.794 123.084 161.965 123.289 162.179C123.493 162.393 123.654 162.645 123.76 162.921C123.867 163.197 123.918 163.491 123.91 163.787Z" fill="#C8FC75"/>
<path d="M131.005 221.483C131.024 221.773 130.984 222.064 130.887 222.338C130.791 222.613 130.64 222.865 130.444 223.08C130.248 223.294 130.011 223.467 129.746 223.588C129.482 223.709 129.196 223.775 128.905 223.783C128.609 223.778 128.317 223.714 128.046 223.595C127.775 223.476 127.531 223.305 127.326 223.091C127.122 222.877 126.961 222.625 126.855 222.349C126.748 222.073 126.697 221.779 126.705 221.483C126.686 221.193 126.726 220.902 126.823 220.628C126.919 220.353 127.07 220.101 127.266 219.886C127.462 219.672 127.699 219.499 127.964 219.378C128.228 219.257 128.514 219.191 128.805 219.183C129.391 219.227 129.94 219.487 130.346 219.911C130.752 220.336 130.987 220.896 131.005 221.483Z" fill="#C8FC75"/>
<path d="M203.945 224.882C203.99 225.213 203.964 225.55 203.87 225.871C203.776 226.192 203.615 226.489 203.398 226.744C203.18 226.998 202.912 227.204 202.61 227.347C202.308 227.491 201.979 227.569 201.645 227.577C200.939 227.547 200.269 227.253 199.769 226.753C199.269 226.253 198.975 225.583 198.945 224.877C198.899 224.545 198.924 224.208 199.018 223.886C199.112 223.565 199.273 223.267 199.49 223.012C199.708 222.757 199.976 222.551 200.278 222.407C200.581 222.263 200.91 222.185 201.245 222.177C201.958 222.19 202.638 222.479 203.142 222.984C203.645 223.489 203.933 224.169 203.945 224.882Z" fill="#C8FC75"/>
<path d="M228.131 203.284C228.163 203.542 228.14 203.804 228.065 204.054C227.99 204.303 227.864 204.534 227.694 204.731C227.525 204.929 227.316 205.089 227.082 205.201C226.847 205.314 226.591 205.376 226.331 205.384C225.791 205.36 225.281 205.128 224.909 204.736C224.536 204.345 224.329 203.825 224.331 203.284C224.299 203.026 224.322 202.763 224.397 202.514C224.472 202.265 224.599 202.034 224.768 201.836C224.938 201.639 225.146 201.479 225.381 201.366C225.616 201.254 225.872 201.192 226.132 201.184C226.66 201.242 227.15 201.484 227.516 201.868C227.881 202.253 228.099 202.754 228.131 203.284Z" fill="#C8FC75"/>
<path d="M196.453 131.49C197.853 140.59 193.253 147.89 186.061 147.89C178.869 147.89 171.871 140.49 170.472 131.49C169.074 122.39 173.67 115.09 180.865 115.09C188.059 114.99 195.054 122.39 196.453 131.49Z" fill="#AFF45B"/>
<path d="M195.754 127.99C197.954 135.09 195.754 141.59 190.954 142.39C186.154 143.19 180.465 138.09 178.367 130.89C176.167 123.79 178.367 117.29 183.167 116.49C187.967 115.69 193.556 120.891 195.754 127.99Z" fill="#B3FF97"/>
<path d="M191.457 128.889C192.357 131.789 191.457 134.489 189.457 134.789C187.457 135.089 185.157 132.989 184.257 130.089C183.357 127.189 184.257 124.489 186.257 124.189C188.259 123.79 190.557 125.89 191.457 128.889Z" fill="#AFF45B"/>
<path d="M221.535 143.589C220.172 143.584 218.819 143.347 217.535 142.889C213.335 141.289 212.135 140.189 207.642 135.889C206.642 134.889 205.442 133.789 204.042 132.489C202.3 130.735 200.005 129.638 197.547 129.383C195.088 129.128 192.617 129.731 190.552 131.089C190.128 131.381 189.605 131.492 189.098 131.398C188.592 131.304 188.144 131.013 187.852 130.589C187.56 130.165 187.449 129.642 187.543 129.135C187.637 128.629 187.928 128.181 188.352 127.889C191.138 126.029 194.483 125.191 197.817 125.519C201.151 125.848 204.268 127.321 206.638 129.689C208.038 130.989 209.238 132.189 210.238 133.089C214.538 137.289 215.338 137.989 218.832 139.289C220.219 139.866 221.759 139.964 223.208 139.565C224.656 139.166 225.93 138.295 226.826 137.089C227.118 136.665 227.566 136.374 228.072 136.28C228.579 136.186 229.102 136.297 229.526 136.589C229.95 136.881 230.241 137.329 230.335 137.835C230.429 138.342 230.318 138.865 230.026 139.289C229.064 140.639 227.789 141.735 226.31 142.484C224.831 143.233 223.193 143.612 221.535 143.589Z" fill="#1C3177"/>
<path d="M176.868 211.487L176.368 211.587L163.078 213.087L152.087 214.287L149.587 214.587L141.093 215.487L140.493 215.587L138.893 215.687L129.508 216.787L128.208 206.387L123.508 168.287L132.202 166.887L140.596 165.587H140.696L148.99 164.287L164.977 161.787L167.577 172.987L167.877 173.987L170.377 184.787L170.877 186.587L173.577 197.887L176.777 211.087L176.868 211.487Z" fill="#0E2566"/>
<path d="M176.868 211.486L176.368 211.586L163.078 213.086L152.087 214.286L149.587 214.586L141.093 215.486L140.493 215.586L138.893 215.686L134.2 178.186L142.993 176.886L151.287 175.586L151.387 175.486L159.781 174.186L167.575 172.986L167.875 173.986L170.375 184.786L170.875 186.586L173.575 197.886L176.775 211.086L176.868 211.486Z" fill="#1C3177"/>
<path d="M162.38 206.686C162.379 207.83 162.629 208.961 163.113 209.997C163.597 211.034 164.302 211.952 165.18 212.686L155.787 213.686L153.587 213.886L146.292 214.686L146.092 210.786L145.792 203.686L152.292 203.486C152.465 202.463 152.733 201.459 153.092 200.486L146.892 196.386L153.586 186.286L160.381 191.386C161.181 190.886 161.981 190.486 162.781 190.086L160.781 181.386L165.981 180.086L169.081 179.286L171.281 188.486L171.681 190.086L173.981 199.786C172.8 199.094 171.449 198.748 170.081 198.786C168.024 198.848 166.071 199.707 164.635 201.18C163.198 202.654 162.39 204.628 162.38 206.686Z" fill="#D2E9FF"/>
<path d="M142.594 179.887L134.302 181.087L132.202 166.887L140.596 165.587L142.594 179.887Z" fill="#D2E9FF"/>
<path d="M150.289 174.087L141.896 175.187L140.596 165.587L148.89 164.287L150.289 174.087Z" fill="#36C486"/>
<path d="M140.496 215.584L129.505 216.784L128.205 206.384L139.197 205.084L140.496 215.584Z" fill="#36C486"/>
<path d="M162.38 206.686C162.379 207.83 162.629 208.961 163.113 209.997C163.597 211.034 164.302 211.952 165.18 212.686L155.787 213.686L153.587 213.886L146.292 214.686L146.192 212.786L158.083 211.686C157.034 207.499 157.606 203.07 159.683 199.286C160.587 197.593 161.903 196.156 163.51 195.107C165.117 194.059 166.963 193.432 168.876 193.286L166.077 179.986L169.177 179.186L171.377 188.386L171.777 189.986L174.077 199.686C172.896 198.994 171.545 198.648 170.177 198.686C168.1 198.768 166.134 199.643 164.684 201.131C163.233 202.62 162.408 204.608 162.38 206.686Z" fill="#36C486"/>
<path d="M105.221 185.385C98.621 185.385 94.829 181.285 93.73 178.785C93.513 178.32 93.4856 177.788 93.6536 177.303C93.8215 176.818 94.1717 176.417 94.63 176.185C95.0953 175.967 95.6272 175.939 96.1127 176.107C96.5982 176.275 96.999 176.626 97.23 177.085C97.33 177.285 100.03 182.485 107.322 181.285C111.522 180.585 112.922 178.685 114.517 176.585C115.917 174.685 117.517 172.485 121.017 171.485C126.017 169.985 131.01 173.685 131.209 173.885C131.601 174.204 131.859 174.658 131.933 175.157C132.007 175.657 131.892 176.166 131.609 176.585C131.293 176.981 130.839 177.243 130.338 177.317C129.837 177.391 129.326 177.273 128.909 176.985C128.809 176.985 125.209 174.285 122.114 175.185C119.914 175.885 118.914 177.185 117.614 178.885C116.573 180.594 115.162 182.047 113.484 183.138C111.807 184.228 109.905 184.928 107.921 185.185C107.031 185.351 106.126 185.418 105.221 185.385Z" fill="#36C486"/>
<path d="M112.417 196.184C110.35 197.294 108.017 197.816 105.674 197.692C103.331 197.569 101.066 196.805 99.1271 195.484C98.7292 195.166 98.4741 194.703 98.4179 194.196C98.3616 193.69 98.5088 193.182 98.8271 192.784C99.1453 192.386 99.6086 192.131 100.115 192.075C100.621 192.019 101.129 192.166 101.527 192.484C101.727 192.584 106.427 196.084 112.519 191.684C116.019 189.184 116.419 186.884 116.819 184.184C117.219 181.784 117.719 179.184 120.319 176.684C124.119 173.084 130.212 174.184 130.511 174.284C130.998 174.383 131.428 174.668 131.708 175.079C131.988 175.49 132.097 175.994 132.011 176.484C131.912 176.971 131.627 177.401 131.216 177.681C130.805 177.961 130.301 178.07 129.811 177.984C129.711 177.984 125.311 177.184 122.916 179.484C121.216 181.084 120.916 182.784 120.616 184.884C120.116 187.784 119.516 191.384 114.716 194.884C114.015 195.284 113.216 195.784 112.417 196.184Z" fill="#76FB8A"/>
<path d="M160.98 77.4929C157.128 84.523 152.319 90.9846 146.691 96.6929C141.923 101.661 136.348 105.786 130.202 108.893C122.552 112.691 114.638 115.933 106.521 118.593C102.092 120.089 97.5898 121.358 93.0312 122.393C93.0312 122.393 75.4442 92.8929 72.8462 70.4929C71.0462 54.5929 76.4462 43.3929 85.9362 35.8929C88.4102 33.9392 91.0908 32.2626 93.9302 30.8929C95.8302 29.9929 97.7302 29.1929 99.7302 28.3929C117.313 21.9979 133.702 33.8929 141.994 44.0929C150.388 54.3929 160.98 77.4929 160.98 77.4929Z" fill="#C8FC75"/>
<path d="M106.521 118.591C102.092 120.087 97.5898 121.356 93.0312 122.391C93.0312 122.391 75.4442 92.897 72.8462 70.497C71.0462 54.597 76.4462 43.397 85.9362 35.897C83.73 46.5362 84.1418 57.5522 87.1362 67.997C91.6322 82.497 100.125 103.392 106.521 118.591Z" fill="#AFF45B"/>
<path d="M115.165 96.2617C122.537 93.2923 125.453 83.2865 121.678 73.9131C117.902 64.5397 108.865 59.3481 101.493 62.3175C94.1206 65.2869 91.2045 75.2927 94.9799 84.6661C98.7552 94.0395 107.792 99.2311 115.165 96.2617Z" fill="#B3FF97"/>
<path d="M112.696 94.5282C119.095 91.9507 121.607 83.2177 118.306 75.0225C115.006 66.8274 107.142 62.2734 100.742 64.851C94.3429 67.4285 91.8308 76.1615 95.1316 84.3566C98.4323 92.5518 106.296 97.1058 112.696 94.5282Z" fill="#1C3177"/>
<path d="M110.85 91.7588C116.174 89.6144 118.283 82.3949 115.56 75.6336C112.836 68.8724 106.313 65.1297 100.988 67.2742C95.6641 69.4186 93.5555 76.6381 96.2787 83.3994C99.0019 90.1606 105.526 93.9033 110.85 91.7588Z" fill="#0E2566"/>
<path d="M86.7559 106.215C90.5956 104.668 91.1995 97.186 88.1049 89.5026C85.0103 81.8193 79.389 76.8443 75.5493 78.3908C71.7097 79.9373 71.1057 87.4196 74.2003 95.103C77.295 102.786 82.9163 107.761 86.7559 106.215Z" fill="#C8FC75"/>
<path d="M84.9352 106.279C88.5192 104.835 89.1 97.8931 86.2323 90.7732C83.3647 83.6534 78.1346 79.0518 74.5506 80.4953C70.9666 81.9389 70.3858 88.8808 73.2535 96.0007C76.1211 103.121 81.3512 107.722 84.9352 106.279Z" fill="#1C3177"/>
<path d="M83.328 103.9C86.1948 102.745 86.6457 97.1584 84.3352 91.4218C82.0247 85.6851 77.8276 81.9707 74.9608 83.1253C72.094 84.28 71.6431 89.8665 73.9536 95.6031C76.2642 101.34 80.4612 105.054 83.328 103.9Z" fill="#0E2566"/>
<path d="M134.7 9.70002L129.1 33.6L120.506 32.7L106.621 31.3L99.6261 30.6L115.214 1.70002C116.476 1.18421 117.781 0.7826 119.114 0.500023C121.738 -0.231735 124.522 -0.162086 127.106 0.700023C128.565 1.34011 129.863 2.29652 130.906 3.50002C132.495 5.34965 133.776 7.44311 134.7 9.70002Z" fill="#C8FC75"/>
<path d="M134.699 9.70004L129.104 33.6L120.51 32.7L130.902 3.60004C132.502 5.40535 133.786 7.46762 134.699 9.70004Z" fill="#AFF45B"/>
<path d="M119.112 0.5L106.621 31.3L99.6261 30.6L115.214 1.7C116.475 1.1843 117.78 0.782692 119.112 0.5V0.5Z" fill="#B3FF97"/>
<path d="M131.503 16.594C131.231 16.6026 130.963 16.5182 130.745 16.3546C130.527 16.191 130.371 15.958 130.303 15.694C130.203 15.494 128.803 11.194 122.209 9.394C117.009 7.894 113.915 9.594 113.915 9.694C113.61 9.86345 113.25 9.906 112.913 9.81246C112.576 9.71893 112.29 9.49681 112.115 9.194C111.946 8.88825 111.904 8.52844 111.998 8.19187C112.091 7.8553 112.313 7.56883 112.615 7.394C112.815 7.294 116.715 5.094 122.907 6.894C130.901 9.194 132.6 14.694 132.7 14.994C132.748 15.1582 132.763 15.3302 132.743 15.5001C132.724 15.67 132.671 15.8343 132.587 15.9833C132.503 16.1324 132.39 16.2631 132.255 16.368C132.12 16.4729 131.965 16.5497 131.8 16.594H131.503Z" fill="#AFF45B"/>
<path d="M129.304 26.598C129.009 26.5923 128.723 26.4921 128.489 26.3121C128.255 26.1321 128.085 25.8818 128.004 25.598C128.004 25.398 126.804 20.598 119.51 18.398C112.216 16.198 109.218 18.898 109.018 19.098C108.779 19.3367 108.456 19.4708 108.118 19.4708C107.781 19.4708 107.457 19.3367 107.218 19.098C106.979 18.8593 106.845 18.5356 106.845 18.198C106.845 17.8605 106.979 17.5367 107.218 17.298C107.418 17.098 111.318 13.398 120.208 15.998C129.001 18.698 130.4 24.798 130.4 25.098C130.433 25.2622 130.434 25.4313 130.401 25.5957C130.369 25.76 130.305 25.9164 130.212 26.0558C130.119 26.1951 129.999 26.3148 129.86 26.4078C129.721 26.5009 129.564 26.5655 129.4 26.598H129.304Z" fill="#AFF45B"/>
<path d="M160.98 77.493C157.128 84.5231 152.319 90.9848 146.691 96.693C138.397 79.493 123.808 51.093 113.615 41.093C108.342 35.6546 101.423 32.105 93.9301 30.993C95.8301 30.093 97.7301 29.293 99.7301 28.493C117.317 22.093 133.705 33.993 141.999 44.193C150.388 54.393 160.98 77.493 160.98 77.493Z" fill="#B3FF97"/>
<path d="M168.474 84.895C161.513 94.9085 152.936 103.695 143.093 110.895C140.936 112.444 138.7 113.879 136.393 115.195C128.512 119.677 120.253 123.458 111.711 126.495C106.116 128.559 100.415 130.327 94.6331 131.79L89.5331 116.495C89.5331 116.495 97.8271 113.195 108.519 108.195C109.719 107.595 110.919 106.995 112.219 106.395C124.61 100.395 129.306 96.595 129.306 96.595L128.006 82.895C128.006 82.895 130.306 81.395 133.506 79.195C137.006 76.795 141.5 73.595 144.698 70.895C150.798 65.795 152.992 61.495 152.992 61.495C156.304 65.6023 159.405 69.8744 162.285 74.295C166.276 80.495 168.474 84.895 168.474 84.895Z" fill="#C8FC75"/>
<path d="M168.474 84.895C161.513 94.9085 152.936 103.695 143.093 110.895L133.4 79.295C136.9 76.895 141.394 73.695 144.592 70.995C150.692 65.895 152.886 61.595 152.886 61.595C156.197 65.7022 159.299 69.9744 162.179 74.395C164.478 77.7705 166.58 81.2764 168.474 84.895Z" fill="#B3FF97"/>
<path d="M111.817 126.491C106.22 128.557 100.517 130.326 94.7331 131.791L89.6331 116.491C89.6331 116.491 97.9271 113.191 108.619 108.191L111.817 126.491Z" fill="#AFF45B"/>
<path d="M153.785 61.2961C155.185 69.9961 150.685 76.9961 143.892 76.9961C137.099 76.9961 130.402 69.9961 129.003 61.2961C127.604 52.5961 132.101 45.5961 138.896 45.5961C145.691 45.5961 152.386 52.5961 153.785 61.2961Z" fill="#AFF45B"/>
<path d="M153.785 58.0951C156.085 65.7951 153.785 72.7951 148.585 73.6951C143.385 74.5951 137.198 68.9941 134.899 61.1951C132.6 53.3961 134.899 46.4951 140.099 45.5951C145.292 44.7961 151.387 50.3961 153.785 58.0951Z" fill="#B3FF97"/>
<path d="M150.088 57.2951C151.188 60.7951 150.088 63.8951 147.788 64.2951C145.488 64.6951 142.688 62.1951 141.588 58.6951C140.488 55.1951 141.588 52.0951 143.888 51.6951C146.291 51.3951 149.089 53.8951 150.088 57.2951Z" fill="#C8FC75"/>
<path d="M95.0289 173.387C94.8503 173.302 94.694 173.176 94.5724 173.02C94.4509 172.864 94.3675 172.681 94.3289 172.487L93.4289 168.087C93.3626 167.755 93.4307 167.411 93.6183 167.13C93.8058 166.849 94.0974 166.653 94.4289 166.587C94.7605 166.521 95.1047 166.589 95.386 166.776C95.6673 166.964 95.8626 167.255 95.9289 167.587L96.8289 171.987C96.8621 172.151 96.8626 172.32 96.8303 172.485C96.7979 172.649 96.7335 172.805 96.6405 172.945C96.5476 173.084 96.4281 173.204 96.2888 173.297C96.1495 173.39 95.9933 173.455 95.8289 173.487C95.5582 173.51 95.2857 173.476 95.0289 173.387Z" fill="#76FB8A"/>
<path d="M90.8321 175.886C90.7321 175.886 90.7321 175.886 90.6321 175.786L84.2321 172.786C83.9342 172.63 83.7007 172.374 83.5727 172.063C83.4447 171.753 83.4303 171.407 83.5321 171.086C83.6876 170.788 83.9434 170.554 84.2544 170.426C84.5654 170.298 84.9117 170.284 85.2321 170.386L91.6321 173.386C91.93 173.542 92.1635 173.798 92.2915 174.109C92.4195 174.42 92.4339 174.766 92.3321 175.086C92.2302 175.385 92.0186 175.634 91.74 175.782C91.4615 175.931 91.1369 175.968 90.8321 175.886Z" fill="#76FB8A"/>
<path d="M84.637 182.686C84.4906 182.622 84.3605 182.526 84.2566 182.405C84.1527 182.284 84.0776 182.14 84.037 181.986C83.9794 181.829 83.9547 181.661 83.9641 181.494C83.9736 181.327 84.0171 181.163 84.092 181.014C84.1669 180.864 84.2716 180.731 84.3997 180.623C84.5278 180.515 84.6766 180.434 84.837 180.386L89.837 178.786C89.9943 178.728 90.1617 178.703 90.3289 178.713C90.4962 178.722 90.6598 178.766 90.8096 178.841C90.9595 178.916 91.0924 179.02 91.2003 179.149C91.3082 179.277 91.3887 179.426 91.437 179.586C91.4945 179.743 91.5193 179.911 91.5098 180.078C91.5003 180.245 91.4568 180.409 91.3819 180.558C91.307 180.708 91.2023 180.841 91.0742 180.949C90.9461 181.057 90.7973 181.138 90.637 181.186L85.637 182.786C85.4736 182.846 85.2987 182.869 85.1254 182.852C84.9521 182.834 84.7851 182.778 84.637 182.686Z" fill="#76FB8A"/>
<path d="M232.627 131.49C232.291 131.557 231.943 131.522 231.627 131.39C231.482 131.298 231.357 131.179 231.258 131.039C231.16 130.899 231.09 130.741 231.053 130.573C231.016 130.406 231.012 130.233 231.042 130.064C231.072 129.895 231.135 129.734 231.227 129.59L234.127 124.69C234.313 124.398 234.607 124.192 234.944 124.117C235.282 124.042 235.635 124.104 235.927 124.29C236.219 124.476 236.425 124.77 236.5 125.107C236.575 125.445 236.513 125.798 236.327 126.09L233.427 130.99C233.2 131.213 232.927 131.384 232.627 131.49Z" fill="#76FB8A"/>
<path d="M234.826 137.689C234.569 137.68 234.323 137.588 234.124 137.425C233.925 137.262 233.785 137.039 233.726 136.789C233.678 136.625 233.663 136.453 233.683 136.283C233.702 136.113 233.756 135.949 233.839 135.8C233.923 135.651 234.036 135.52 234.171 135.415C234.306 135.31 234.461 135.233 234.626 135.189L243.119 132.589C243.283 132.541 243.455 132.526 243.625 132.546C243.795 132.565 243.959 132.618 244.109 132.702C244.258 132.786 244.388 132.899 244.493 133.034C244.598 133.169 244.675 133.324 244.719 133.489C244.767 133.653 244.782 133.825 244.762 133.995C244.743 134.165 244.689 134.329 244.606 134.478C244.522 134.627 244.409 134.758 244.274 134.863C244.139 134.968 243.984 135.045 243.819 135.089L235.325 137.689C235.125 137.689 235.025 137.789 234.826 137.689Z" fill="#76FB8A"/>
<path d="M238.023 146.789C237.883 146.793 237.745 146.759 237.623 146.689L234.123 145.289C233.961 145.229 233.813 145.137 233.688 145.017C233.564 144.897 233.465 144.753 233.4 144.593C233.334 144.433 233.302 144.261 233.306 144.088C233.31 143.916 233.35 143.746 233.423 143.589C233.483 143.427 233.575 143.279 233.695 143.154C233.815 143.029 233.959 142.931 234.119 142.865C234.279 142.799 234.451 142.767 234.624 142.772C234.797 142.776 234.967 142.816 235.123 142.889L238.623 144.289C238.785 144.349 238.933 144.441 239.058 144.561C239.183 144.681 239.281 144.825 239.347 144.985C239.412 145.145 239.444 145.317 239.44 145.49C239.436 145.662 239.396 145.832 239.323 145.989C239.238 146.256 239.06 146.484 238.822 146.63C238.583 146.777 238.3 146.834 238.023 146.789Z" fill="#76FB8A"/>
<path d="M179.067 81.693H178.767C178.442 81.6153 178.158 81.4175 177.973 81.1393C177.787 80.8611 177.714 80.5231 177.767 80.193L180.067 70.093C180.145 69.7678 180.342 69.484 180.621 69.2986C180.899 69.1131 181.237 69.0397 181.567 69.093C181.892 69.1707 182.176 69.3685 182.361 69.6467C182.547 69.9249 182.62 70.2629 182.567 70.593L180.267 80.693C180.222 80.9767 180.075 81.2343 179.855 81.4182C179.634 81.6021 179.354 81.6997 179.067 81.693Z" fill="#76FB8A"/>
<path d="M185.36 85.9901C185.14 85.9953 184.923 85.9426 184.73 85.8373C184.536 85.732 184.374 85.5777 184.26 85.3901C184.165 85.2416 184.102 85.0748 184.076 84.9004C184.049 84.7261 184.06 84.5481 184.107 84.3782C184.154 84.2083 184.237 84.0503 184.349 83.9145C184.462 83.7787 184.602 83.6681 184.76 83.5901L196.754 76.5901C196.902 76.4945 197.069 76.4315 197.243 76.405C197.418 76.3786 197.596 76.3893 197.766 76.4365C197.936 76.4837 198.094 76.5664 198.23 76.679C198.366 76.7916 198.476 76.9317 198.554 77.0901C198.649 77.2385 198.712 77.4053 198.738 77.5797C198.764 77.754 198.754 77.932 198.706 78.1019C198.659 78.2718 198.577 78.4298 198.464 78.5656C198.352 78.7014 198.212 78.812 198.054 78.8901L186.06 85.8901C185.76 85.8901 185.56 85.9901 185.36 85.9901Z" fill="#76FB8A"/>
<path d="M201.05 95.292L188.16 94.592C187.993 94.5956 187.827 94.5636 187.673 94.4981C187.519 94.4326 187.381 94.3352 187.267 94.2123C187.154 94.0894 187.068 93.9438 187.015 93.7852C186.962 93.6265 186.943 93.4584 186.96 93.292C186.956 93.1248 186.988 92.9586 187.054 92.8046C187.119 92.6506 187.216 92.5123 187.339 92.3988C187.462 92.2853 187.608 92.1993 187.767 92.1464C187.925 92.0935 188.094 92.075 188.26 92.092L201.05 92.792C201.217 92.7885 201.383 92.8205 201.537 92.8859C201.691 92.9514 201.829 93.0488 201.943 93.1717C202.056 93.2946 202.142 93.4402 202.195 93.5989C202.248 93.7575 202.267 93.9256 202.25 94.092C202.266 94.2535 202.245 94.4163 202.19 94.5689C202.135 94.7216 202.048 94.8602 201.933 94.9749C201.818 95.0895 201.68 95.1774 201.527 95.2323C201.374 95.2871 201.211 95.3075 201.05 95.292Z" fill="#76FB8A"/>
</g>
<defs>
<clipPath id="clip0_0_652">
<rect width="363.003" height="490.004" fill="white" transform="translate(0 -0.00195312)"/>
</clipPath>
</defs>
</svg>
