<svg width="298" height="456" viewBox="0 0 298 456" fill="none" xmlns="http://www.w3.org/2000/svg">
<path d="M241.416 385.121C237.448 394.821 210.816 393.59 207.731 401.883C204.646 410.176 231.804 409.383 230.922 419.792C230.04 430.201 213.639 431.792 184.187 433.466C154.735 435.14 148.21 442.906 118.758 452.522C89.3058 462.138 76.3438 449.699 59.8578 440.7C43.4578 431.79 11.9768 448.2 2.09976 434.348C-7.77924 420.41 19.1148 415.47 42.8358 410.088C66.6438 404.618 55.8868 402.06 55.2688 390.503C55.1955 389.466 55.3293 388.426 55.6624 387.441C55.9955 386.457 56.5211 385.548 57.2088 384.769C62.5878 378.949 78.1978 378.858 96.8898 379.211C120.434 379.74 126.342 371.889 159.145 372.594C189.391 373.212 236.831 375.064 241.152 382.916C241.406 383.218 241.567 383.587 241.614 383.979C241.66 384.371 241.592 384.768 241.416 385.121Z" fill="#A2A2A2"/>
<path d="M287.446 402.325C287.101 402.93 286.686 403.492 286.211 404.001C282.419 408.147 269.986 410.701 260.022 410.882C247.677 410.971 234.803 410.177 234.359 402.678C234.009 395.179 265.577 394.738 276.6 395.973C286.123 396.855 289.121 399.061 287.446 402.325Z" fill="#A2A2A2"/>
<path d="M43.4538 401.09C43.22 401.59 42.8904 402.04 42.4838 402.413C39.4838 405.677 29.6978 407.795 21.8498 407.883C12.1538 407.972 1.92076 407.353 1.65376 401.266C1.39176 395.272 26.2538 394.914 34.8998 395.885C42.3948 396.679 44.8638 398.443 43.4538 401.09Z" fill="#A2A2A2"/>
<path d="M201.382 448.111C192.741 451.552 160.467 451.728 160.555 447.494C160.555 446.948 160.742 446.419 161.084 445.994C163.465 442.641 173.341 440.789 182.247 440.436C192.741 440.083 199.883 441.23 203.055 442.906C205.968 444.494 205.527 446.435 201.382 448.111Z" fill="#A2A2A2"/>
<path d="M119.023 437.613C111.087 440.525 85.8677 439.819 86.0427 434.614C86.0632 433.973 86.2136 433.343 86.4847 432.761C88.6007 428.703 95.2147 427.203 102.798 426.939C111.616 426.584 118.843 427.997 121.757 429.673C125.46 431.703 125.548 435.143 119.023 437.613Z" fill="#6D6F6E"/>
<path d="M216.809 388.121C212.14 390.414 195.121 390.238 195.209 387.238C195.213 386.869 195.304 386.507 195.474 386.18C196.797 383.886 201.999 382.652 206.761 382.474C212.316 382.298 216.109 383.18 217.695 384.415C219.282 385.562 219.018 386.974 216.809 388.121Z" fill="#6D6F6E"/>
<path d="M212.228 419.704C208.437 421.557 194.504 421.38 194.592 418.998C194.597 418.685 194.689 418.38 194.857 418.116C195.915 416.264 200.236 415.205 204.116 415.117C208.701 414.941 211.788 415.735 213.11 416.705C214.256 417.675 214.08 418.822 212.228 419.704Z" fill="#6D6F6E"/>
<path d="M170.078 418.204C130.045 429.232 69.9938 410.882 70.5198 400.384C70.6168 399.057 71.1804 397.807 72.1108 396.855C78.9888 389.268 107.03 387.155 132.511 388.655C162.407 390.499 182.6 395.267 191.42 400.384C199.442 404.883 190.536 412.558 170.078 418.204Z" fill="#6D6F6E"/>
<path d="M68.4078 421.116C64.6158 423.233 50.5068 423.057 50.6818 420.322C50.6866 419.982 50.7778 419.648 50.9468 419.352C52.0058 417.234 56.3268 416.086 60.2068 415.911C64.7918 415.734 67.8818 416.528 69.2008 417.675C70.4358 418.822 70.2588 420.145 68.4078 421.116Z" fill="#6D6F6E"/>
<path d="M196.973 111.105C196.973 111.105 194.68 103.959 202.616 103.518C210.552 103.165 202.616 91.4319 210.552 84.6389C218.488 77.8459 227.924 80.8449 228.277 89.9319C228.63 99.0189 227.131 104.665 228.277 106.959C229.423 109.253 232.777 102.813 236.919 107.312C241.061 111.811 215.403 198.712 215.403 198.712L201.466 195.268L196.973 111.105Z" fill="#61E575" fill-opacity="0.37"/>
<path d="M222.193 124.956C218.401 126.72 210.641 178.594 217.078 173.479C218.578 172.331 231.893 120.456 222.193 124.956Z" fill="#F5FFE3"/>
<path d="M287.886 70.1701C287.532 72.4719 287.002 74.7429 286.299 76.9631C280.126 95.6631 263.284 96.3721 263.02 98.9301C262.755 101.753 275.189 111.105 263.549 122.485C251.909 133.865 228.189 119.397 221.928 118.868C213.11 118.162 194.769 133.868 182.159 117.545C174.046 107.045 187.097 101.136 184.099 98.2241C181.101 95.3121 157.645 94.7841 157.645 68.4061V66.8181C158.527 40.4401 181.983 42.2921 183.129 37.0871C184.275 31.8821 184.011 1.35712 221.045 0.034119C258.169 -1.28888 257.022 36.2931 260.373 38.0581C263.901 39.9101 291.854 44.7631 287.886 70.1701Z" fill="#F5FFE3"/>
<path d="M258.434 92.138C266.37 88.874 278.274 83.051 286.211 76.964C280.038 95.664 263.196 96.373 262.932 98.931C262.667 101.754 275.101 111.106 263.461 122.486C251.821 133.866 228.101 119.398 221.84 118.869C213.022 118.163 194.681 133.869 182.071 117.546C173.958 107.046 187.009 101.137 184.011 98.225C181.013 95.313 157.557 94.784 157.557 68.406C159.585 72.552 163.818 78.463 172.9 82.606C188.155 89.576 198.913 81.812 204.292 89.306C209.671 96.8 198.384 101.481 203.41 105.892C208.524 110.303 216.461 99.192 229.158 105.098C241.944 111.009 249.88 114.891 254.906 109.509C260.198 104.048 247.147 96.813 258.434 92.138Z" fill="#61E575" fill-opacity="0.37"/>
<path d="M198.208 54.6433C198.098 54.5447 197.979 54.4557 197.854 54.3773C197.504 54.1133 197.18 53.8181 196.884 53.4953C195.794 52.4037 194.874 51.1552 194.154 49.7913C193.656 48.8898 193.242 47.9449 192.917 46.9683C192.58 45.8445 192.344 44.6929 192.212 43.5273C192.109 42.2927 192.138 41.0506 192.3 39.8223C192.375 39.1972 192.493 38.5781 192.654 37.9693C192.721 37.6113 192.809 37.2577 192.919 36.9103L193.184 36.0283C193.575 34.7807 194.137 33.5934 194.854 32.5003C195.594 31.4086 196.486 30.4281 197.503 29.5883C198.48 28.8416 199.546 28.2195 200.677 27.7363C201.702 27.331 202.767 27.035 203.854 26.8533C204.757 26.7125 205.671 26.6536 206.585 26.6773C207.291 26.6587 207.998 26.6881 208.701 26.7653C209.145 26.8002 209.586 26.8593 210.024 26.9423C210.197 26.9908 210.374 27.0203 210.554 27.0303C210.823 27.0836 211.078 27.1906 211.304 27.3449C211.531 27.4992 211.724 27.6975 211.872 27.928C212.02 28.1586 212.12 28.4167 212.167 28.6868C212.213 28.9569 212.204 29.2336 212.141 29.5003C212.088 29.7691 211.981 30.0245 211.827 30.2511C211.673 30.4777 211.474 30.671 211.244 30.8192C211.013 30.9674 210.755 31.0677 210.485 31.1139C210.215 31.1601 209.938 31.1514 209.672 31.0883H209.407C209.313 31.0775 209.223 31.0476 209.142 31.0003C208.803 30.8758 208.444 30.8161 208.084 30.8243C207.533 30.7076 206.972 30.6487 206.409 30.6483C205.704 30.604 204.997 30.604 204.293 30.6483C203.476 30.6973 202.672 30.8759 201.912 31.1773C201.063 31.4323 200.26 31.819 199.531 32.3233C198.722 32.8823 198.007 33.5673 197.415 34.3523C196.757 35.1681 196.249 36.0941 195.915 37.0873L195.562 37.8813L195.386 38.5873C195.185 39.0953 195.066 39.632 195.034 40.1773C194.862 41.1977 194.773 42.2304 194.769 43.2653C194.794 44.2449 194.912 45.22 195.122 46.1773C195.308 47.0351 195.605 47.8653 196.004 48.6473C196.58 49.8604 197.32 50.9884 198.204 51.9993L198.998 52.7933L199.263 53.0583H199.354C199.534 53.2255 199.643 53.455 199.66 53.7001C199.676 53.9452 199.599 54.1874 199.443 54.3773C199.382 54.4786 199.3 54.5664 199.204 54.6352C199.108 54.704 198.999 54.7523 198.883 54.7773C198.767 54.8022 198.648 54.8032 198.531 54.7801C198.415 54.7571 198.305 54.7105 198.208 54.6433Z" fill="#61E575" fill-opacity="0.37"/>
<path d="M208.877 28.7062C208.889 28.498 208.918 28.2913 208.965 28.0882C209.053 27.7352 209.23 27.2062 209.406 26.5002C209.997 24.6331 210.89 22.8753 212.048 21.2962C212.829 20.2063 213.783 19.2522 214.874 18.4722C216.073 17.5826 217.376 16.8419 218.754 16.2662C219.459 16.0022 220.248 15.8262 221.048 15.5612C221.834 15.4005 222.628 15.2826 223.427 15.2082C224.218 15.1348 225.013 15.1054 225.808 15.1202H227.131L228.189 15.2082C228.542 15.2962 228.806 15.2962 229.247 15.3842L230.57 15.7372C231.011 15.9132 231.452 16.0022 231.893 16.1782L233.039 16.7072C233.805 17.0427 234.518 17.4884 235.155 18.0302C235.812 18.5121 236.431 19.0437 237.007 19.6202C238.917 21.6863 240.333 24.1596 241.148 26.8532C241.711 28.6688 242.124 30.5278 242.383 32.4112C242.471 33.1172 242.471 33.6462 242.559 33.9992V34.6202C242.574 34.9928 242.515 35.3648 242.386 35.7146C242.256 36.0644 242.059 36.3851 241.805 36.6582C241.551 36.9312 241.245 37.1512 240.905 37.3054C240.566 37.4596 240.199 37.545 239.826 37.5567C239.453 37.5683 239.082 37.5059 238.733 37.3732C238.385 37.2404 238.066 37.0399 237.795 36.7832C237.525 36.5265 237.308 36.2188 237.157 35.8777C237.006 35.5366 236.924 35.169 236.916 34.7962V34.1782C236.922 33.7647 236.892 33.3515 236.828 32.9432C236.72 31.4197 236.454 29.9116 236.034 28.4432C235.487 26.4689 234.526 24.6337 233.215 23.0602C232.855 22.6561 232.473 22.2731 232.069 21.9132C231.671 21.5595 231.227 21.2627 230.748 21.0312L230.043 20.5902C229.778 20.5022 229.602 20.4142 229.338 20.3252L228.633 20.0602C228.368 19.9722 227.928 19.9722 227.663 19.8842L226.605 19.7082H225.9C225.283 19.664 224.664 19.664 224.048 19.7082C223.431 19.7962 222.813 19.7962 222.284 19.8842C221.755 20.0602 221.138 20.1492 220.609 20.3252C219.594 20.6331 218.639 21.1105 217.784 21.7372C217.005 22.2675 216.319 22.9234 215.755 23.6782C214.82 24.8334 214.103 26.1488 213.639 27.5602C213.463 28.0892 213.374 28.4422 213.286 28.7072C213.241 28.8205 213.212 28.9391 213.198 29.0602V29.2362C213.074 29.7702 212.747 30.2347 212.286 30.5307C211.824 30.8267 211.266 30.9305 210.729 30.8202C210.456 30.8433 210.182 30.8021 209.928 30.6998C209.675 30.5975 209.449 30.437 209.268 30.2313C209.088 30.0256 208.959 29.7803 208.891 29.5154C208.823 29.2505 208.818 28.9733 208.877 28.7062Z" fill="#61E575" fill-opacity="0.37"/>
<path d="M252.703 41.6751C252.703 41.6751 253.32 41.6751 254.29 41.7631C255.602 41.8795 256.901 42.1159 258.17 42.4691C260.061 42.9552 261.831 43.826 263.37 45.0271C264.272 45.7388 265.073 46.5697 265.751 47.4971C266.097 47.996 266.392 48.5279 266.633 49.0851L266.986 49.8791L267.162 50.7611C267.48 51.8212 267.658 52.9186 267.691 54.0251C267.786 55.0911 267.696 56.1655 267.426 57.2011C267.041 59.0222 266.323 60.7568 265.31 62.3181C264.588 63.3699 263.761 64.3453 262.841 65.2291C262.136 65.8471 261.695 66.1991 261.695 66.1991C261.472 66.3657 261.193 66.4387 260.917 66.4025C260.641 66.3663 260.39 66.2238 260.217 66.0053C260.045 65.7868 259.964 65.5096 259.993 65.2328C260.022 64.9559 260.158 64.7013 260.372 64.5231C261.524 63.5326 262.481 62.3358 263.194 60.9941C263.977 59.6758 264.459 58.2011 264.607 56.6751C264.695 55.8541 264.695 55.026 264.607 54.2051C264.507 53.3303 264.3 52.4711 263.99 51.6471L263.814 51.0291L263.549 50.5001C263.363 50.1643 263.157 49.8404 262.932 49.5301C262.46 48.9408 261.894 48.4339 261.257 48.0301C260.004 47.2737 258.633 46.7357 257.2 46.4391C256.156 46.2183 255.093 46.1001 254.026 46.0861H252.881C252.285 46.0952 251.71 45.8687 251.28 45.4557C250.85 45.0427 250.601 44.4768 250.587 43.8811C250.573 43.5954 250.618 43.3101 250.719 43.0424C250.819 42.7747 250.973 42.5302 251.171 42.3238C251.369 42.1175 251.607 41.9535 251.87 41.842C252.134 41.7305 252.417 41.6737 252.703 41.6751Z" fill="#61E575" fill-opacity="0.37"/>
<path d="M194.152 52.4381H193.975C193.762 52.4669 193.554 52.5262 193.358 52.6141C192.538 52.8308 191.762 53.1892 191.065 53.6731C190.594 53.9507 190.177 54.3092 189.831 54.7321C189.38 55.1887 189.02 55.7278 188.773 56.3201C188.471 56.9712 188.235 57.6505 188.067 58.3481C187.892 59.1002 187.803 59.8699 187.802 60.6421C187.787 61.4152 187.876 62.1868 188.067 62.9361C188.231 63.6618 188.53 64.3501 188.949 64.9651C189.689 66.0943 190.686 67.0317 191.859 67.7001C192.712 68.2075 193.632 68.5939 194.592 68.8481C195.297 69.0241 195.738 69.1131 195.65 69.1131C195.852 69.1465 196.033 69.2561 196.157 69.4193C196.281 69.5825 196.337 69.787 196.315 69.9905C196.292 70.1941 196.192 70.3812 196.036 70.5134C195.879 70.6456 195.678 70.7128 195.474 70.7011C195.028 70.6863 194.585 70.6274 194.151 70.5251C193.012 70.2843 191.892 69.9601 190.8 69.5551C189.233 68.8404 187.846 67.7847 186.74 66.4651C186.153 65.6826 185.68 64.8215 185.334 63.9071C185.158 63.4661 185.069 62.8481 184.893 62.4071C184.762 61.9454 184.673 61.4728 184.628 60.9951C184.628 60.7301 184.54 60.6421 184.54 60.2011V59.4951C184.525 58.9935 184.555 58.4916 184.628 57.9951C184.697 57.0011 184.905 56.0217 185.245 55.0851C185.554 54.1525 186.032 53.285 186.656 52.5261C187.156 51.7768 187.783 51.1201 188.508 50.5851C189.506 49.7534 190.64 49.0983 191.859 48.6481C192.3 48.4681 192.653 48.3801 192.917 48.2921C193.059 48.2411 193.207 48.2111 193.358 48.2031C193.647 48.1318 193.948 48.1186 194.243 48.1644C194.538 48.2103 194.821 48.3141 195.075 48.47C195.329 48.6259 195.55 48.8308 195.725 49.0726C195.899 49.3145 196.024 49.5886 196.092 49.8791C196.163 50.1688 196.176 50.4698 196.13 50.7646C196.085 51.0594 195.981 51.3422 195.825 51.5966C195.669 51.851 195.464 52.0719 195.222 52.2466C194.98 52.4212 194.706 52.5462 194.416 52.6141C194.328 52.4381 194.24 52.4381 194.152 52.4381Z" fill="#61E575" fill-opacity="0.37"/>
<path d="M248.206 79.0812C248.19 79.6145 248.131 80.1455 248.03 80.6692C247.802 81.9852 247.478 83.2827 247.06 84.5512C246.484 86.4342 245.523 88.1768 244.238 89.6682C243.477 90.5379 242.585 91.2823 241.593 91.8742C241.082 92.1739 240.552 92.4391 240.006 92.6682L239.124 92.9332L238.33 93.1092C237.262 93.3668 236.165 93.4855 235.067 93.4622C234 93.4417 232.938 93.3236 231.893 93.1092C230.082 92.64 228.377 91.8317 226.867 90.7272C225.828 89.9553 224.882 89.0672 224.045 88.0802C223.682 87.7225 223.383 87.3047 223.163 86.8452C223.009 86.6079 222.952 86.3214 223.001 86.0432C223.05 85.7649 223.202 85.5156 223.428 85.3452C223.665 85.1916 223.952 85.1336 224.23 85.1827C224.508 85.2319 224.758 85.3846 224.928 85.6102C225.913 86.7814 227.073 87.7933 228.367 88.6102C229.66 89.4305 231.096 89.9992 232.6 90.2862C233.413 90.4475 234.246 90.4772 235.069 90.3742C235.94 90.3085 236.8 90.1307 237.626 89.8452L238.243 89.6692L238.775 89.3992C239.129 89.2459 239.456 89.0373 239.745 88.7812C240.336 88.3217 240.868 87.7903 241.328 87.1992C242.149 85.9921 242.746 84.6474 243.092 83.2292C243.355 82.1869 243.532 81.1246 243.621 80.0532C243.681 79.6733 243.681 79.2862 243.621 78.9062C243.634 78.3104 243.883 77.7441 244.312 77.3307C244.742 76.9173 245.317 76.6904 245.913 76.6992C246.221 76.7 246.526 76.7628 246.81 76.8839C247.094 77.005 247.35 77.1819 247.564 77.4041C247.778 77.6264 247.945 77.8894 248.055 78.1775C248.166 78.4656 248.217 78.7729 248.206 79.0812Z" fill="#61E575" fill-opacity="0.37"/>
<path d="M178.192 152.04L174.488 141.714C174.488 141.714 183.041 140.391 178.544 129.187C175.987 122.927 168.76 127.867 168.76 127.867C168.76 127.867 167.522 118.78 158.087 120.814C150.68 122.397 150.503 134.307 153.413 138.101C156.235 141.895 159.145 141.542 159.145 141.542C159.145 141.542 152.972 141.366 153.945 147.012C154.918 152.658 159.765 152.923 163.468 151.07C164.727 150.301 165.785 149.242 166.554 147.982L174.578 154.599C174.943 154.899 175.39 155.084 175.86 155.131C176.331 155.178 176.805 155.085 177.223 154.864C177.712 154.603 178.084 154.167 178.263 153.643C178.443 153.119 178.418 152.546 178.192 152.04Z" fill="#61E575" fill-opacity="0.37"/>
<path d="M266.194 175.154C265.955 176.59 265.381 177.951 264.519 179.124C263.08 180.657 261.141 181.626 259.052 181.859C259.052 181.859 262.052 183.535 259.846 187.152C258.171 189.799 253.233 188.211 251.91 186.534C251.062 185.512 250.567 184.243 250.499 182.917L244.499 188.034C244.258 188.245 243.977 188.406 243.673 188.508C243.369 188.609 243.047 188.649 242.728 188.624C242.408 188.599 242.097 188.511 241.812 188.364C241.526 188.218 241.274 188.016 241.068 187.77C240.684 187.33 240.473 186.766 240.473 186.182C240.473 185.598 240.684 185.034 241.068 184.594L241.862 183.712L246.712 177.978C246.712 177.978 239.829 175.154 242.298 170.037C244.498 165.361 248.911 167.567 250.058 168.802C250.751 169.695 251.178 170.765 251.293 171.89C251.293 171.89 253.32 164.038 260.639 165.802C266.106 167.037 266.9 171.537 266.194 175.154Z" fill="#61E575" fill-opacity="0.37"/>
<path d="M78.7248 283.049C79.4261 284.006 79.8116 285.157 79.8273 286.343C79.8431 287.53 79.4884 288.691 78.8128 289.666L78.2838 290.372C78.0384 290.702 77.7191 290.969 77.3516 291.153C76.9842 291.337 76.5787 291.432 76.1678 291.431C75.5519 291.441 74.9547 291.22 74.4928 290.813L66.0278 283.402C64.6901 286.215 62.4289 288.485 59.6209 289.834C56.8129 291.182 53.6277 291.528 50.5958 290.813C42.7478 289.225 40.7188 282.52 41.6008 276.962C41.847 274.496 42.8304 272.161 44.4228 270.262C45.4482 269.22 46.6918 268.419 48.064 267.916C49.4363 267.413 50.903 267.22 52.3588 267.351C50.6991 266.861 49.1977 265.943 48.0058 264.688C46.8138 263.434 45.9733 261.888 45.5688 260.205C44.7683 257.529 44.9242 254.658 46.0098 252.084C47.6858 248.466 51.4768 246.173 56.8558 246.79C65.7618 247.937 65.9378 260.553 65.9378 260.553C65.9378 260.553 69.0248 251.995 77.4898 255.701C84.8968 258.965 82.7808 268.846 77.7548 272.728C76.3031 273.893 74.6196 274.735 72.8168 275.198L78.7248 283.049Z" fill="#D0F5D5"/>
<path d="M59.5898 268.934C59.5898 268.934 55.9748 268.228 52.4468 267.258C50.774 266.775 49.2578 265.86 48.0505 264.606C46.8432 263.351 45.9873 261.801 45.5688 260.111C44.7695 257.437 44.9254 254.567 46.0098 251.995C46.5388 255.083 47.9498 259.935 51.3888 263.111C56.7678 268.051 59.5898 268.934 59.5898 268.934Z" fill="#61E575" fill-opacity="0.35"/>
<path d="M78.2838 290.284C78.0384 290.614 77.7191 290.881 77.3516 291.065C76.9842 291.249 76.5787 291.344 76.1678 291.343C75.5519 291.353 74.9547 291.132 74.4928 290.725L66.0268 283.314C64.6891 286.127 62.4281 288.397 59.6203 289.745C56.8125 291.094 53.6275 291.439 50.5958 290.725C42.7478 289.137 40.7188 282.432 41.6008 276.874C42.8358 279.521 45.5688 282.52 51.8298 283.574C64.3518 285.784 64.7038 277.933 64.7038 277.933L78.2838 290.284Z" fill="#61E575" fill-opacity="0.35"/>
<path d="M111.88 263.552C108.757 263.477 105.773 262.252 103.499 260.111C100.06 256.935 98.2987 251.911 98.2077 245.29C98.0317 229.675 95.0337 227.557 91.7707 226.59C87.1857 225.267 82.2477 227.031 82.2477 227.031C81.405 227.358 80.4669 227.337 79.6397 226.972C78.8126 226.608 78.1642 225.929 77.8372 225.087C77.5102 224.244 77.5314 223.306 77.896 222.479C78.2607 221.651 78.939 221.003 79.7817 220.676C80.0467 220.588 86.7487 218.03 93.6267 219.97C102.798 222.617 104.827 231.527 104.914 245.113C105.002 249.701 106.06 253.141 107.914 254.994C108.936 255.984 110.278 256.579 111.699 256.671C112.6 256.624 113.482 256.937 114.152 257.541C114.822 258.145 115.225 258.99 115.272 259.891C115.319 260.792 115.006 261.674 114.402 262.344C113.798 263.015 112.953 263.417 112.052 263.464C112.144 263.552 112.056 263.552 111.88 263.552Z" fill="#8FE561"/>
<path d="M109.147 216.089C106.915 218.265 105.564 221.188 105.355 224.298C105.09 228.974 107.207 233.826 111.704 238.766C122.197 250.235 121.58 253.852 119.817 256.766C118.031 259.46 115.526 261.599 112.586 262.942C111.797 263.309 111.181 263.965 110.863 264.774C110.546 265.584 110.552 266.484 110.881 267.289C111.21 268.094 111.836 268.741 112.63 269.097C113.423 269.452 114.323 269.488 115.143 269.198C119.498 267.335 123.187 264.198 125.725 260.198C130.575 251.905 125.901 244.142 116.819 234.084C113.733 230.733 112.145 227.469 112.233 224.823C112.262 223.36 112.864 221.966 113.908 220.941C114.24 220.647 114.511 220.29 114.705 219.891C114.898 219.491 115.011 219.058 115.035 218.614C115.06 218.171 114.996 217.728 114.848 217.309C114.7 216.891 114.471 216.506 114.173 216.177C113.885 215.839 113.533 215.561 113.137 215.36C112.74 215.159 112.308 215.039 111.865 215.006C111.423 214.973 110.977 215.028 110.556 215.169C110.135 215.309 109.745 215.532 109.411 215.824L109.147 216.089Z" fill="#A2A2A2"/>
<path d="M265.401 236.292C261.612 236.272 257.942 234.966 254.993 232.587C249.261 228.176 245.47 231.175 245.47 231.264C245.134 231.56 244.741 231.784 244.315 231.922C243.889 232.061 243.44 232.111 242.994 232.07C242.548 232.029 242.115 231.897 241.722 231.682C241.329 231.468 240.984 231.176 240.708 230.823C240.412 230.486 240.188 230.093 240.05 229.667C239.912 229.241 239.862 228.791 239.904 228.345C239.945 227.899 240.077 227.466 240.292 227.073C240.506 226.68 240.799 226.334 241.152 226.058C243.885 223.765 251.204 221.028 259.228 227.205C263.549 230.557 268.134 229.675 269.898 227.999C271.573 226.499 272.543 222.176 272.72 219.618C272.745 219.171 272.859 218.733 273.055 218.331C273.251 217.928 273.525 217.568 273.862 217.273C274.198 216.977 274.59 216.751 275.015 216.609C275.439 216.466 275.888 216.409 276.335 216.442C277.232 216.509 278.067 216.926 278.661 217.602C279.254 218.278 279.559 219.161 279.509 220.059C279.421 220.941 278.804 229.146 274.483 233.028C271.965 235.204 268.728 236.367 265.401 236.292Z" fill="#A2A2A2"/>
<path d="M263.637 278.286L291.766 309.786C291.766 309.786 283.566 295.671 276.511 286.76C269.104 277.58 263.637 278.286 263.637 278.286Z" fill="#D0F5D5"/>
<path d="M285.77 292.754C285.77 292.754 278.539 284.108 277.481 282.785C276.15 281.003 274.507 279.478 272.631 278.285C272.631 278.285 275.188 277.932 278.539 282.167C281.143 285.56 283.557 289.094 285.77 292.754Z" fill="#D0F5D5"/>
<path d="M242.65 263.376L255.35 241.497L247.764 261.697L258.964 272.813L242.65 263.376Z" fill="#42B319"/>
<path d="M262.49 252.436L244.237 262.229L248.737 263.905L262.49 252.436Z" fill="#42B319"/>
<path d="M78.1078 213.883L71.4948 206.208C71.107 205.736 70.9177 205.132 70.967 204.523C71.0162 203.914 71.3001 203.348 71.7588 202.944C72.2306 202.556 72.8348 202.367 73.4437 202.416C74.0525 202.465 74.6184 202.749 75.0218 203.208C75.1691 203.363 75.2886 203.542 75.3748 203.737L79.6078 212.912C79.6995 213.123 79.7046 213.361 79.6221 213.576C79.5396 213.79 79.3761 213.964 79.1668 214.059C79.0871 214.121 78.9955 214.165 78.8977 214.19C78.8 214.214 78.6983 214.219 78.5989 214.202C78.4994 214.186 78.4045 214.149 78.32 214.094C78.2355 214.039 78.1632 213.967 78.1078 213.883Z" fill="#42B319"/>
<path d="M72.0228 222.264L59.5898 223.5C58.9939 223.555 58.4004 223.372 57.9382 222.992C57.4759 222.612 57.1822 222.065 57.1208 221.47C57.066 220.874 57.2481 220.281 57.6277 219.819C58.0073 219.356 58.5538 219.062 59.1488 219H59.6778L72.0228 220.5C72.2508 220.537 72.4575 220.656 72.6037 220.834C72.75 221.013 72.8258 221.239 72.8168 221.47C72.7288 221.911 72.4638 222.264 72.0228 222.264Z" fill="#42B319"/>
<path d="M77.4898 232.498L71.4058 240.085C71.2218 240.321 70.9929 240.518 70.7323 240.664C70.4717 240.811 70.1845 240.905 69.8875 240.939C69.5905 240.974 69.2895 240.95 69.002 240.867C68.7145 240.785 68.4463 240.646 68.2128 240.459C67.9793 240.272 67.7853 240.041 67.6419 239.779C67.4985 239.516 67.4087 239.228 67.3776 238.93C67.3466 238.633 67.3749 238.332 67.4609 238.046C67.5469 237.76 67.6889 237.493 67.8788 237.262C67.9784 237.074 68.132 236.921 68.3198 236.821L76.2558 231.175C76.4635 231.05 76.7077 230.999 76.9481 231.031C77.1886 231.063 77.411 231.176 77.5788 231.351C77.6939 231.525 77.7477 231.732 77.7315 231.94C77.7154 232.148 77.6303 232.344 77.4898 232.498Z" fill="#42B319"/>
<path d="M114.349 209.384L119.023 203.209C119.309 202.843 119.726 202.602 120.186 202.536C120.646 202.47 121.114 202.585 121.492 202.856C121.856 203.143 122.096 203.559 122.161 204.019C122.227 204.478 122.114 204.944 121.845 205.322C121.757 205.41 121.669 205.587 121.492 205.675L115.317 210.354C115.175 210.468 114.995 210.523 114.814 210.506C114.633 210.49 114.465 210.404 114.347 210.266C114.261 210.135 114.215 209.982 114.215 209.825C114.216 209.668 114.262 209.515 114.349 209.384Z" fill="#42B319"/>
<path d="M107.119 206.208L104.119 197.121C103.979 196.676 104.021 196.194 104.236 195.781C104.451 195.367 104.821 195.056 105.266 194.916C105.71 194.776 106.192 194.818 106.606 195.033C107.019 195.248 107.331 195.618 107.471 196.063C107.471 196.151 107.559 196.328 107.559 196.416L108.445 205.94C108.452 206.114 108.392 206.285 108.277 206.416C108.162 206.547 108.001 206.629 107.828 206.646C107.678 206.659 107.529 206.623 107.401 206.544C107.273 206.465 107.174 206.347 107.119 206.208Z" fill="#42B319"/>
<path d="M100.329 211.942L93.6268 208.59C93.2056 208.379 92.8853 208.01 92.7364 207.563C92.5875 207.117 92.6222 206.629 92.8328 206.208C93.0433 205.787 93.4126 205.467 93.8593 205.318C94.306 205.169 94.7936 205.203 95.2148 205.414C95.3908 205.502 95.4798 205.59 95.6558 205.679L101.211 210.707C101.353 210.842 101.44 211.025 101.456 211.22C101.472 211.415 101.416 211.609 101.299 211.766C100.944 212.031 100.594 212.119 100.329 211.942Z" fill="#42B319"/>
<path d="M278.187 200.474L276.6 209.561C276.583 209.68 276.541 209.794 276.477 209.895C276.413 209.997 276.329 210.084 276.229 210.151C276.129 210.217 276.016 210.262 275.898 210.282C275.779 210.302 275.658 210.297 275.542 210.267C275.347 210.224 275.169 210.127 275.029 209.986C274.888 209.845 274.791 209.667 274.748 209.473L273.601 200.298C273.562 199.996 273.584 199.69 273.666 199.396C273.748 199.103 273.887 198.83 274.076 198.591C274.265 198.353 274.5 198.154 274.767 198.008C275.034 197.862 275.327 197.77 275.63 197.739C275.932 197.701 276.238 197.723 276.531 197.805C276.824 197.886 277.098 198.026 277.336 198.215C277.574 198.404 277.772 198.639 277.918 198.906C278.064 199.173 278.156 199.466 278.187 199.769C278.275 199.996 278.275 200.247 278.187 200.474Z" fill="#42B319"/>
<path d="M294.147 209.032L284.888 215.119C284.749 215.213 284.593 215.278 284.429 215.311C284.265 215.344 284.096 215.344 283.932 215.311C283.768 215.279 283.612 215.213 283.474 215.12C283.335 215.026 283.216 214.906 283.125 214.766C282.957 214.509 282.883 214.202 282.915 213.897C282.947 213.591 283.083 213.307 283.301 213.09L291.414 205.503C291.847 205.099 292.423 204.882 293.016 204.901C293.609 204.919 294.17 205.172 294.577 205.603C294.985 206.034 295.205 206.608 295.191 207.201C295.176 207.794 294.928 208.357 294.5 208.767C294.367 208.833 294.247 208.923 294.147 209.032Z" fill="#42B319"/>
<path d="M292.648 228.441L284.712 224.647C284.444 224.517 284.238 224.287 284.138 224.006C284.038 223.725 284.053 223.417 284.179 223.147C284.275 222.931 284.44 222.753 284.648 222.642C284.856 222.53 285.096 222.491 285.329 222.53L293.971 224.03C294.269 224.076 294.555 224.182 294.811 224.342C295.067 224.502 295.288 224.711 295.461 224.959C295.634 225.206 295.755 225.486 295.817 225.781C295.879 226.076 295.881 226.381 295.823 226.677C295.776 226.975 295.67 227.26 295.511 227.516C295.352 227.772 295.142 227.993 294.895 228.166C294.648 228.339 294.369 228.46 294.074 228.523C293.779 228.585 293.475 228.587 293.179 228.529C293.089 228.613 292.913 228.529 292.648 228.441Z" fill="#42B319"/>
<path d="M168.404 185.211C168.404 185.211 131.28 229.675 129.869 228.528C129.516 228.263 128.899 226.234 128.105 222.97C125.989 213.707 123.079 194.298 122.724 173.654C122.286 145.864 122.991 137.395 130.398 133.955C135.865 131.396 150.768 156.01 160.556 172.507C164.083 178.154 166.816 182.829 168.404 185.211Z" fill="#8FE561"/>
<path d="M168.406 185.207C168.406 185.207 131.28 229.675 129.87 228.528C129.517 228.263 128.9 226.234 128.106 222.97C131.721 213.707 136.13 203.914 140.98 196.507C146.615 187.821 153.179 179.773 160.556 172.507C164.083 178.153 166.817 182.829 168.406 185.207Z" fill="#77C050"/>
<path d="M296.969 338.1C294.676 342.864 273.425 336.247 256.054 330.248C252.703 329.101 249.441 327.954 246.442 326.896C243.081 325.717 240.171 323.52 238.116 320.611C236.062 317.702 234.965 314.224 234.979 310.663C235.069 293.636 233.48 266.552 236.742 265.14C240.622 263.376 259.842 282.34 277.393 302.722C295.558 323.808 300.408 330.777 296.969 338.1Z" fill="#8FE561"/>
<path d="M256.053 330.248C252.702 329.101 249.44 327.954 246.441 326.896C243.08 325.717 240.17 323.52 238.116 320.61C236.061 317.701 234.965 314.224 234.979 310.662C235.069 293.64 233.48 266.552 236.742 265.14C236.83 265.14 244.061 287.548 248.999 305.193C251.821 315.426 254.202 323.807 256.053 330.248Z" fill="#77C050"/>
<path d="M243.352 221.029C242.735 245.114 239.208 285.166 224.834 324.866C212.401 359.272 201.643 382.122 194.5 395.62C191.669 401.133 188.549 406.493 185.153 411.676C185.153 411.676 175.806 416.352 157.817 417.763C145.117 418.675 132.353 418.023 119.812 415.822C77.1377 408.677 72.6397 395.267 72.6397 395.267C72.6397 395.267 72.0227 387.587 74.0517 372.506C76.6087 353.097 83.6637 321.514 102.093 278.373C122.815 230.116 146.447 201.709 161.084 187.329C169.726 178.86 175.284 175.243 175.284 175.243C175.284 175.243 186.745 170.567 210.465 177.977C218.172 180.236 225.466 183.721 232.065 188.299C239.825 193.681 242.999 198.444 242.999 198.444C243.535 205.96 243.653 213.5 243.352 221.029V221.029Z" fill="#D0F5D5"/>
<path d="M243.356 221.029C242.739 245.114 239.212 285.166 224.838 324.866C212.405 359.272 201.647 382.122 194.504 395.62C191.673 401.133 188.553 406.493 185.157 411.676C185.157 411.676 175.811 416.352 157.822 417.764C169.285 402.064 186.304 374.8 203.234 333.512C230.746 266.463 232.422 207.531 232.157 188.299C239.922 193.681 243.092 198.444 243.092 198.444C243.564 205.963 243.652 213.501 243.356 221.029Z" fill="#61E575" fill-opacity="0.35"/>
<path d="M84.1037 368.713C83.8653 368.728 83.6263 368.698 83.3987 368.625C82.2088 368.431 81.1434 367.776 80.4335 366.802C79.7236 365.827 79.4265 364.612 79.6067 363.42C79.8717 361.92 85.5147 325.573 101.123 288.961C116.73 252.436 129.076 234.527 129.605 233.733C130.303 232.75 131.358 232.079 132.545 231.865C133.732 231.65 134.956 231.91 135.954 232.587C136.937 233.286 137.608 234.342 137.822 235.53C138.036 236.717 137.777 237.941 137.1 238.939C137.012 239.115 124.667 256.939 109.5 292.49C94.3327 328.041 88.5997 364.39 88.5997 364.744C88.4333 365.827 87.8921 366.818 87.0706 367.543C86.2491 368.268 85.1991 368.682 84.1037 368.713Z" fill="#F8FBFF"/>
<path d="M243.361 221.029C239.614 217.731 235.668 214.667 231.545 211.854C229.605 210.531 227.489 209.119 225.196 207.708C223.961 207.002 222.727 206.208 221.404 205.502C215.778 202.286 209.911 199.514 203.856 197.209C203.327 197.033 202.886 196.856 202.356 196.68C201.386 196.327 200.504 195.974 199.622 195.71C193.249 193.423 186.739 191.538 180.131 190.064C178.544 189.711 176.957 189.446 175.546 189.094C170.827 188.213 166.055 187.654 161.261 187.419C169.903 178.948 175.461 175.331 175.461 175.331C175.461 175.331 178.985 173.919 186.216 173.919C187.803 173.919 189.567 174.007 191.507 174.184C197.153 174.69 202.736 175.754 208.173 177.36C208.967 177.625 209.848 177.801 210.642 178.066C211.272 178.232 211.89 178.438 212.494 178.684C217.037 180.232 221.458 182.119 225.72 184.329C227.142 185.08 228.524 185.905 229.861 186.799C230.743 187.328 231.448 187.858 232.242 188.387C240.002 193.769 243.176 198.532 243.176 198.532C243.176 198.532 243.797 207.09 243.361 221.029Z" fill="#3E5C55"/>
<path d="M243.356 221.03C239.609 217.732 235.663 214.668 231.54 211.855C232.245 201.533 232.245 193.505 232.245 188.388C240.005 193.77 243.18 198.533 243.18 198.533C243.18 198.533 243.797 207.088 243.356 221.03Z" fill="#77C050"/>
<path d="M229.864 186.8L225.808 206.65C225.728 207.088 225.512 207.489 225.191 207.797C223.956 207.091 222.722 206.297 221.399 205.591L225.72 184.418C227.219 185.212 228.63 186.006 229.864 186.8Z" fill="#77C050"/>
<path d="M212.493 178.683L203.852 197.21C203.323 197.034 202.882 196.857 202.352 196.681C201.382 196.328 200.5 195.975 199.618 195.711L208.084 177.36C208.878 177.625 209.759 177.801 210.553 178.066C211.259 178.33 211.876 178.507 212.493 178.683Z" fill="#77C050"/>
<path d="M191.506 174.184L191.246 174.713L180.131 190.064C178.546 189.711 176.957 189.446 175.546 189.093C175.615 188.712 175.766 188.35 175.987 188.031L186.216 173.831C187.803 173.919 189.567 174.007 191.506 174.184Z" fill="#77C050"/>
<path d="M127.696 384.256C148.426 391.367 173.229 373.82 183.094 345.063C192.96 316.306 184.152 287.229 163.421 280.117C142.691 273.005 117.888 290.552 108.023 319.309C98.1575 348.066 106.965 377.144 127.696 384.256Z" fill="#61E575" fill-opacity="0.35"/>
<path d="M130.535 381.999C151.266 389.111 175.979 371.825 185.733 343.391C195.488 314.956 186.591 286.14 165.86 279.028C145.13 271.916 120.417 289.202 110.662 317.637C100.907 346.071 109.805 374.888 130.535 381.999Z" fill="#3E5C55"/>
<path d="M132.59 372.152C149.036 377.794 168.764 363.725 176.653 340.729C184.542 317.732 177.605 294.516 161.159 288.874C144.713 283.232 124.985 297.301 117.096 320.297C109.207 343.294 116.144 366.51 132.59 372.152Z" fill="#A2A2A2"/>
<path d="M140.934 317.138C145.633 318.75 151.275 314.714 153.536 308.124C155.797 301.534 153.82 294.885 149.121 293.273C144.422 291.661 138.78 295.696 136.519 302.286C134.258 308.876 136.235 315.526 140.934 317.138Z" fill="#61E575" fill-opacity="0.35"/>
<path d="M130.157 346.122C132.69 346.991 135.718 344.856 136.92 341.354C138.122 337.851 137.042 334.307 134.508 333.438C131.975 332.569 128.947 334.704 127.745 338.206C126.543 341.709 127.623 345.253 130.157 346.122Z" fill="#61E575" fill-opacity="0.35"/>
<path d="M176.692 340.746C168.756 363.772 149.092 377.799 132.602 372.153C123.96 369.153 117.876 361.302 115.319 351.153C117.442 352.612 119.756 353.77 122.197 354.594C142.655 361.652 167.257 344.094 177.045 315.424C177.662 313.661 178.191 311.898 178.632 310.133C180.897 320.315 180.224 330.931 176.692 340.746Z" fill="#6D6F6E"/>
<path d="M194.592 395.708C191.761 401.221 188.641 406.581 185.245 411.764C185.245 411.764 175.898 416.44 157.909 417.851C145.209 418.763 132.445 418.111 119.904 415.91C104.12 413.264 93.6267 409.735 86.5727 406.383C74.5797 400.649 72.7277 395.355 72.7277 395.355C72.7277 395.355 72.1107 387.68 74.1397 372.594C78.7313 376.844 83.8242 380.517 89.3057 383.533C99.3587 389.094 113.026 394.294 131.632 397.031C144.594 398.903 157.717 399.406 170.784 398.531C178.771 398.092 186.723 397.15 194.592 395.708Z" fill="#8FE561"/>
<path d="M194.593 395.708C191.762 401.221 188.642 406.581 185.246 411.764C185.246 411.764 175.899 416.44 157.91 417.852C161.702 412.647 166.023 406.295 170.784 398.531C178.772 398.092 186.724 397.15 194.593 395.708V395.708Z" fill="#77C050"/>
<path d="M89.3057 383.621L86.5727 406.471C74.5797 400.737 72.7277 395.443 72.7277 395.443C72.7277 395.443 72.1107 387.768 74.1397 372.682C78.7539 376.904 83.8434 380.575 89.3057 383.621Z" fill="#77C050"/>
</svg>
