<svg width="385" height="460" viewBox="0 0 385 460" fill="none" xmlns="http://www.w3.org/2000/svg">
<g clip-path="url(#clip0_102_2)">
<path opacity="0.27" d="M144.82 64.6819L22.5809 401.717C20.7982 406.622 20.9723 412.026 23.0671 416.806C25.162 421.587 29.0168 425.378 33.8319 427.392C62.1819 439.292 123.008 459.999 203.182 459.999C283.356 459.999 344.166 439.299 372.538 427.392C377.352 425.377 381.206 421.586 383.3 416.805C385.394 412.025 385.567 406.622 383.784 401.717L261.545 64.6819H144.82Z" fill="#8CC256"/>
<path d="M74.218 103.778C80.5046 103.778 85.601 98.679 85.601 92.389C85.601 86.099 80.5046 81 74.218 81C67.9313 81 62.835 86.099 62.835 92.389C62.835 98.679 67.9313 103.778 74.218 103.778Z" fill="#90E073"/>
<path d="M332.146 103.778C338.433 103.778 343.529 98.679 343.529 92.389C343.529 86.099 338.433 81 332.146 81C325.859 81 320.763 86.099 320.763 92.389C320.763 98.679 325.859 103.778 332.146 103.778Z" fill="#90E073"/>
<path d="M203.182 122.483C209.468 122.483 214.565 117.384 214.565 111.094C214.565 104.804 209.468 99.705 203.182 99.705C196.895 99.705 191.799 104.804 191.799 111.094C191.799 117.384 196.895 122.483 203.182 122.483Z" fill="#90E073"/>
<path d="M355.644 70.3091C355.644 91.5941 293.853 108.844 202.537 108.844C111.221 108.844 50.7439 91.5931 50.7439 70.3091C50.7439 49.0251 111.191 31.7791 202.513 31.7791C293.835 31.7791 355.644 49.0291 355.644 70.3091Z" fill="#6ECE5B"/>
<g style="mix-blend-mode:soft-light" opacity="0.42">
<path d="M355.648 56.247C355.648 77.526 293.857 94.782 202.541 94.782C111.225 94.782 50.772 77.526 50.772 56.247C50.772 34.968 111.219 17.712 202.541 17.712C293.863 17.712 355.648 34.968 355.648 56.247Z" fill="white"/>
</g>
<path d="M203.34 69.183C227.593 69.3154 251.767 66.4057 275.296 60.522C270.646 26.4 238.889 0 200.401 0C162.494 0 131.116 25.615 125.74 59C148.363 65.462 174.925 69.183 203.34 69.183Z" fill="#6ECE5B"/>
<path d="M262.324 330.723C262.911 325.064 257.529 322.315 248.346 321.661C239.163 321.007 233.606 322.968 233.019 328.626C232.809 330.583 233.29 332.552 234.379 334.191C234.579 334.505 234.685 334.869 234.685 335.241C234.685 335.613 234.579 335.977 234.379 336.291C233.513 337.693 232.838 339.141 233.332 339.697C234.045 340.497 235.732 339.797 237.666 338.473C237.939 338.288 238.255 338.176 238.583 338.149C238.912 338.121 239.242 338.178 239.542 338.314C240.831 338.867 242.178 339.274 243.558 339.527C243.94 339.596 244.294 339.777 244.574 340.046C244.854 340.315 245.048 340.662 245.132 341.041C245.461 342.688 246.114 344.334 247.414 344.441C249.06 344.595 249.914 343.266 250.234 341.318C250.293 340.908 250.482 340.527 250.772 340.231C251.062 339.935 251.438 339.739 251.847 339.671C252.555 339.56 253.257 339.408 253.947 339.215C254.276 339.131 254.622 339.135 254.949 339.226C255.276 339.318 255.574 339.494 255.812 339.736C257.381 341.267 258.835 342.085 259.685 341.383C260.234 340.916 259.899 339.462 259.367 338.09C259.225 337.737 259.188 337.35 259.26 336.976C259.332 336.602 259.51 336.257 259.773 335.982C261.206 334.577 262.108 332.718 262.324 330.723V330.723Z" fill="#8CC256"/>
<path d="M141.703 281.386C135.362 295.656 134.023 323.933 133.085 325.814C132.147 327.695 125.61 331.085 127.281 334.526C128.817 337.687 139.465 341.996 142.641 341.112C147.578 339.773 152.455 326.6 155.456 318.258C166.427 324.844 184.772 327.073 184.772 327.073C184.772 327.073 182.91 340.761 181.48 343.758C180.05 346.755 175.04 350.416 176.071 354.071C177.102 357.726 186.988 359.79 191.376 360.355C195.764 360.92 202.869 336.82 204.51 328.384C233.7 331.474 268.935 329.229 268.935 329.229C268.935 329.229 273.154 343.944 269.028 350.508C267.146 353.508 265.951 359.839 266.965 360.261C273.246 362.791 281.343 361.361 283.927 359.509C286.834 357.445 297.049 309.958 290.861 292.033C284.673 274.108 272.451 263.833 250.941 258.399C229.431 252.965 196.966 252.714 196.966 252.714L141.703 281.386Z" fill="white"/>
<path d="M246.125 252.742C246.125 252.742 241.188 271.491 251.188 281.387C261.188 291.283 281.661 290.02 292.775 277.078C282.139 257.676 246.125 252.742 246.125 252.742Z" fill="#323337"/>
<path d="M129.18 306.189C129.18 306.189 148.08 313.011 153.08 331.222C141.829 349.016 124.429 343.582 124.429 343.582" fill="#323337"/>
<path d="M268.71 287.923C274.519 287.923 278.738 289.877 281.267 293.604C283.192 296.442 288.854 303.33 295.179 299.537C303.457 294.597 290.73 277.407 290.73 277.407L274.892 276.189L268.71 287.923Z" fill="#323337"/>
<path d="M140.112 285.69C140.112 285.69 149.438 307.213 172.845 307.194C193.351 307.194 206.312 283.692 200.082 267.413C179.966 275.602 140.112 285.69 140.112 285.69Z" fill="#F0F4FF"/>
<path d="M135.229 221.672C135.229 221.672 129.529 208.384 133.112 202.824C136.695 197.264 148.286 216.891 148.286 216.891L135.229 221.672Z" fill="#57575F"/>
<path d="M196.792 221.672C196.792 221.672 202.48 208.384 198.898 202.824C195.316 197.264 183.719 216.891 183.719 216.891L196.792 221.672Z" fill="#57575F"/>
<path d="M204.334 255.299C202.518 276.457 195.426 294.679 161.419 291.754C127.412 288.829 122.953 269.616 124.769 248.46C126.585 227.304 145.872 211.687 167.843 213.57C189.814 215.453 206.15 234.141 204.334 255.299Z" fill="white"/>
<path d="M157.886 213.91C157.886 213.91 113.507 217.752 108.654 233.202C105.467 243.378 121.891 242.834 132.495 232.022C134.638 227.878 157.886 213.91 157.886 213.91Z" fill="white"/>
<path d="M170.915 213.91C170.915 213.91 215.289 217.752 220.139 233.202C223.332 243.378 206.907 242.834 196.298 232.022C194.158 227.878 170.915 213.91 170.915 213.91Z" fill="#323337"/>
<path d="M138.779 259.328C141.699 259.328 144.067 256.959 144.067 254.037C144.067 251.115 141.699 248.746 138.779 248.746C135.858 248.746 133.491 251.115 133.491 254.037C133.491 256.959 135.858 259.328 138.779 259.328Z" fill="#323337"/>
<path d="M189.868 263.719C192.789 263.719 195.156 261.35 195.156 258.428C195.156 255.506 192.789 253.137 189.868 253.137C186.948 253.137 184.58 255.506 184.58 258.428C184.58 261.35 186.948 263.719 189.868 263.719Z" fill="#323337"/>
<path d="M181.968 270.447C181.381 277.297 173.915 282.242 162.499 281.265C151.083 280.288 144.945 274.161 145.549 267.313C146.153 260.465 152.987 258.197 164.398 259.179C175.809 260.161 182.561 263.598 181.968 270.447Z" fill="#8CC256"/>
<g style="mix-blend-mode:multiply">
<path d="M157.252 266.058C157.374 264.644 156.275 263.395 154.799 263.268C153.323 263.142 152.027 264.185 151.906 265.598C151.784 267.012 152.883 268.261 154.359 268.388C155.836 268.514 157.131 267.471 157.252 266.058Z" fill="#8CC256"/>
</g>
<g style="mix-blend-mode:multiply">
<path d="M175.514 267.631C175.636 266.217 174.537 264.968 173.061 264.841C171.585 264.715 170.289 265.758 170.168 267.171C170.046 268.585 171.145 269.834 172.621 269.961C174.097 270.087 175.393 269.044 175.514 267.631Z" fill="#8CC256"/>
</g>
<path d="M168.54 213.641C168.54 213.641 160.852 227.774 178.283 238.202C191.323 245.996 202.612 240.48 202.612 240.48C202.612 240.48 197.812 215.902 168.54 213.641Z" fill="#323337"/>
<path d="M245.933 292.062C251.32 292.611 254.458 303.698 249.866 307.194C245.274 310.69 237.594 304.691 237.122 299.631C236.65 294.571 239.097 291.343 245.933 292.062Z" fill="#323337"/>
<path d="M187.093 299.345C188.98 293.675 201.905 294.845 207.708 300.102C213.511 305.359 216.419 316.315 213.517 318.379C210.615 320.443 204.617 313.834 199.254 311.908C193.891 309.982 185.26 304.833 187.093 299.345Z" fill="#323337"/>
<g style="mix-blend-mode:soft-light" opacity="0.42">
<path d="M243.016 32.3507C244.748 25.4941 233.415 16.7187 217.704 12.7503C201.992 8.78195 187.852 11.1234 186.12 17.98C184.388 24.8366 195.721 33.612 211.432 37.5804C227.144 41.5487 241.284 39.2073 243.016 32.3507Z" fill="white"/>
</g>
<path d="M321.941 148.737C321.246 147.01 321.265 145.078 321.994 143.366C322.724 141.653 324.103 140.3 325.83 139.605V139.605C326.685 139.261 327.599 139.088 328.52 139.097C329.442 139.106 330.352 139.297 331.2 139.658C332.048 140.019 332.816 140.543 333.461 141.201C334.106 141.859 334.615 142.638 334.959 143.493L365.127 218.464C365.822 220.19 365.803 222.122 365.073 223.835C364.344 225.547 362.964 226.9 361.238 227.595V227.595C360.383 227.94 359.469 228.112 358.548 228.104C357.626 228.095 356.716 227.905 355.868 227.544C355.02 227.183 354.251 226.658 353.606 226C352.961 225.342 352.452 224.563 352.108 223.709L321.941 148.737Z" fill="#57575F"/>
<path d="M27.5414 302.522L27.5387 302.521C23.9544 301.043 19.8506 302.751 18.3726 306.335L2.67613 344.398C1.19808 347.983 2.90548 352.086 6.48973 353.565L6.4925 353.566C10.0767 355.044 14.1805 353.336 15.6586 349.752L31.355 311.688C32.8331 308.104 31.1257 304 27.5414 302.522Z" fill="#57575F"/>
</g>
<defs>
<clipPath id="clip0_102_2">
<rect width="385.006" height="459.999" fill="white"/>
</clipPath>
</defs>
</svg>
