<svg width="478" height="276" viewBox="0 0 478 276" fill="none" xmlns="http://www.w3.org/2000/svg">
<g clip-path="url(#clip0_115_2)">
<path d="M31.3 236.985C31.3 244.985 35.3 249.085 51.7 250.285C68.1 251.485 74.6 255.085 70 256.585C65.4 258.085 46.7 256.785 42.5 264.085C38.3 271.285 55.1 275.185 76.5 275.185H217.9C247.7 275.185 271.6 269.385 271.6 260.185C271.6 250.985 254.4 249.585 247.3 246.185C240.2 242.785 244.4 234.085 258.2 234.085H304.8C317.8 234.085 320.7 240.885 311.9 242.285C303.1 243.685 301.4 254.885 322.4 254.885H416C436.2 254.885 447.1 243.285 437.4 235.085C427.7 226.885 434.5 222.085 448.7 220.085C463 218.185 477.2 216.685 477.2 204.185C477.2 191.685 455 187.285 438.6 187.285C422.2 187.285 415.1 183.385 415.1 178.085C415.1 172.785 407.1 168.885 382 168.885H105.1C93 168.885 86.4 179.485 95 183.685C103.7 187.885 113.5 183.385 115.7 191.085C117.9 198.785 112.9 200.085 95.3 200.085H48.9C11.4 200.085 11.1 220.085 35.2 220.085C49.8 220.085 31.3 229.085 31.3 236.985Z" fill="#70CFEA"/>
<path d="M17.4 268.485C27.0098 268.485 34.8 265.978 34.8 262.885C34.8 259.792 27.0098 257.285 17.4 257.285C7.79025 257.285 0 259.792 0 262.885C0 265.978 7.79025 268.485 17.4 268.485Z" fill="#70CFEA"/>
<path d="M288.1 253.785C294.948 253.785 300.5 251.994 300.5 249.785C300.5 247.576 294.948 245.785 288.1 245.785C281.252 245.785 275.7 247.576 275.7 249.785C275.7 251.994 281.252 253.785 288.1 253.785Z" fill="#70CFEA"/>
<path d="M459.7 231.585C466.548 231.585 472.1 229.794 472.1 227.585C472.1 225.376 466.548 223.585 459.7 223.585C452.852 223.585 447.3 225.376 447.3 227.585C447.3 229.794 452.852 231.585 459.7 231.585Z" fill="#70CFEA"/>
<path d="M223.7 91.7851C223.7 91.7851 216.4 78.7851 221.8 75.6851C227.2 72.5851 233.2 78.5851 233.2 78.5851C233.2 78.5851 227.1 64.4851 234.1 60.2851C241.1 56.0851 252.3 71.2851 252.3 71.2851L223.7 91.7851Z" fill="#47CB89"/>
<path d="M252.3 74.0851C252.3 74.0851 242.6 58.6851 251.3 54.8851C257 52.3851 266 62.0851 266 62.0851C266 62.0851 262.2 53.0851 269.7 49.9851C277.2 46.8851 283.7 59.3851 283.7 59.3851L252.3 74.0851Z" fill="#279B4E"/>
<path d="M56 167.585C56 167.585 51.4 157.185 55.7 155.285C60 153.385 64.2 158.285 64.2 158.285C64.2 158.285 60.6 147.185 66.2 144.485C71.8 141.785 79.2 154.085 79.2 154.085L56 167.585Z" fill="#47CB89"/>
<path d="M78.901 156.485C78.901 156.485 74.401 142.085 79.001 140.785C83.601 139.485 88.301 148.485 88.301 148.485C88.301 148.485 86.801 138.185 92.701 136.385C98.601 134.585 103.701 146.585 103.701 146.585L78.901 156.485Z" fill="#279B4E"/>
<path d="M372.3 87.685C372.3 87.685 379 78.985 382.7 81.785C386.3 84.585 384 90.385 384 90.385C384 90.385 391.8 82.185 396.7 85.685C401.6 89.185 394.5 101.185 394.5 101.185L372.3 87.685Z" fill="#47CB89"/>
<path d="M392.5 101.185C392.5 101.185 402.7 90.7851 405.9 94.0851C409.1 97.3851 403.7 105.585 403.7 105.585C403.7 105.585 411.8 99.5851 416.1 103.785C420.4 107.985 412.5 117.885 412.5 117.885L392.5 101.185Z" fill="#279B4E"/>
<path d="M449.101 210.285C447.847 210.726 446.53 210.962 445.201 210.985H444.601C441.301 210.485 439.701 207.085 436.301 199.985C431.601 190.285 421.001 183.585 394.201 181.785C367.401 179.985 323.701 211.485 275.501 211.385H269.401C268.001 211.385 266.601 211.385 265.101 211.285C264.001 211.285 262.801 211.185 261.701 211.185C260.601 211.185 259.501 211.085 258.401 211.085H258.501C256.301 210.985 254.101 210.885 252.001 210.885C249.801 210.785 247.701 210.685 245.501 210.585C243.401 210.485 241.301 210.385 239.201 210.185C238.201 210.085 237.201 210.085 236.201 209.985C232.601 209.785 229.001 209.485 225.601 209.185C224.801 209.085 223.901 209.085 223.101 208.985C222.001 208.885 220.801 208.785 219.701 208.685L216.401 208.385C212.601 207.985 208.801 207.585 205.201 207.185C204.701 207.085 204.201 207.085 203.701 206.985C199.601 206.485 195.801 205.985 192.101 205.485L189.701 205.185C186.901 204.785 184.101 204.385 181.501 203.985C181.101 203.885 180.701 203.885 180.301 203.785C178.701 203.485 177.101 203.285 175.601 202.985L173.801 202.685C173.301 202.585 172.801 202.485 172.201 202.385C155.601 199.485 145.901 196.985 145.901 196.985C145.901 196.985 112.401 192.485 91.301 193.685C76.401 194.585 61.301 197.385 52.901 194.085C52.0032 193.679 51.1345 193.211 50.301 192.685C50.201 192.585 50.001 192.485 49.901 192.385C47.201 190.185 45.801 186.585 46.501 180.985C47.0708 176.795 48.9219 172.883 51.801 169.785C60.801 159.385 79.001 152.785 92.401 148.485C110.101 142.785 135.001 136.285 135.001 136.285C135.001 136.285 201.901 109.685 228.501 86.1851C259.601 58.6851 306.401 37.0851 343.701 61.3851C377.901 83.6851 415.301 113.885 439.901 148.385C450.501 163.285 455.001 176.385 456.001 186.785C457.501 200.385 453.101 209.085 449.101 210.285Z" fill="#66B656"/>
<path d="M445.2 211.085H444.6C441.3 210.585 439.7 207.185 436.3 200.085C431.6 190.385 421 183.685 394.2 181.885C367.4 180.085 323.7 211.585 275.5 211.485H269.4C268 211.485 266.6 211.485 265.1 211.385C264 211.385 262.8 211.385 261.7 211.285C260.6 211.285 259.5 211.185 258.4 211.185H258.5C256.3 211.085 254.1 210.985 252 210.985C249.8 210.885 247.7 210.785 245.5 210.685C243.4 210.585 241.3 210.485 239.2 210.285C238.2 210.185 237.2 210.185 236.2 210.085C232.6 209.885 229 209.585 225.6 209.285C224.8 209.185 223.9 209.185 223.1 209.085C222 208.985 220.8 208.885 219.7 208.785L216.4 208.485C212.6 208.085 208.8 207.685 205.3 207.285C204.8 207.185 204.3 207.185 203.8 207.085C199.7 206.585 195.9 206.085 192.2 205.585L189.8 205.285C187 204.885 184.2 204.485 181.6 204.085C181.2 203.985 180.8 203.985 180.4 203.885C178.8 203.585 177.2 203.385 175.6 203.085L173.8 202.785C173.3 202.685 172.7 202.585 172.2 202.485C155.6 199.585 145.9 197.085 145.9 197.085C145.9 197.085 112.4 192.585 91.3 193.785C74.7 194.785 57.8 198.185 50.4 192.785C50.3 192.685 50.1 192.585 50 192.485C50.304 191.402 50.7407 190.361 51.3 189.385C58.1 176.785 85.1 173.185 117.9 170.885C150.7 168.585 192.2 171.385 220.1 164.085C248 156.885 276.8 135.285 314.6 128.985C352.4 122.685 397.2 139.985 426.5 163.385C452.7 184.285 446.7 206.785 445.2 211.085Z" fill="#B3FF97"/>
<path d="M444.6 210.985C441.3 210.485 439.7 207.085 436.3 199.985C433.5 194.285 428.7 189.585 419.7 186.285C418.6 185.885 417.4 185.485 416.1 185.085C410.4 183.385 403.2 182.285 394.2 181.685C393 181.585 391.9 181.585 390.7 181.585C389.56 181.586 388.422 181.686 387.3 181.885C366.4 184.185 337.4 200.585 304.9 207.885C303.6 208.185 302.3 208.485 301 208.685C292.703 210.362 284.264 211.233 275.8 211.285H269.4C268 211.285 266.6 211.285 265.1 211.185C264 211.185 262.8 211.185 261.7 211.085C260.6 211.085 259.5 210.985 258.4 210.985H258.5C256.3 210.885 254.1 210.785 252 210.785C250.8 210.685 249.6 210.685 248.3 210.585C247.4 210.585 246.4 210.485 245.5 210.485H244.7C242.9 210.385 241 210.285 239.2 210.185C238.2 210.085 237.2 210.085 236.2 209.985C232.6 209.785 229 209.485 225.6 209.185C224.8 209.085 223.9 209.085 223.1 208.985C222 208.885 220.8 208.785 219.7 208.685L216.4 208.385C212.6 207.985 208.8 207.585 205.3 207.185C204.8 207.085 204.3 207.085 203.8 206.985C199.7 206.485 195.9 205.985 192.2 205.485L189.8 205.185C187 204.785 184.2 204.385 181.6 203.985C181.2 203.885 180.8 203.885 180.4 203.785C178.8 203.485 177.2 203.285 175.6 202.985L173.8 202.685C173.376 202.57 172.939 202.503 172.5 202.485H172.2L168.9 201.885C154.3 199.285 145.9 197.085 145.9 197.085C145.9 197.085 144.1 196.885 141 196.485C139.9 196.385 138.7 196.185 137.4 196.085C131.4 195.385 123 194.585 114.2 194.085C113 193.985 111.8 193.985 110.6 193.885C103.9 193.585 97.1 193.485 91.3 193.785C74.7 194.785 57.8 198.185 50.4 192.785C51.2 190.085 53.2 187.185 57.4 184.485C67.7 177.885 78.7 169.385 110.5 171.585C111.7 171.685 112.9 171.785 114.2 171.885C120.9 172.485 128.5 173.585 137.1 175.185C138.3 175.385 139.6 175.685 140.9 175.885C141.3 175.985 141.7 176.085 142.2 176.185C149.1 177.585 158.5 179.085 169.5 180.485C170.7 180.585 171.9 180.785 173.1 180.885C196.768 183.596 220.577 184.899 244.4 184.785H248C251.8 184.785 255.6 184.685 259.3 184.485C263.7 184.285 267.9 184.085 271.9 183.785L275.5 183.485C285 182.585 293.7 181.285 301.7 179.785C302.9 179.585 304.1 179.285 305.3 179.085C338.2 172.385 360 162.185 388.4 161.785H392.1C392.835 161.769 393.57 161.802 394.3 161.885C405 162.285 413.6 164.285 420.5 167.285C421.695 167.791 422.863 168.359 424 168.985C439.8 177.585 444.9 191.785 445.7 200.985C445.999 204.358 445.625 207.758 444.6 210.985Z" fill="#78E67C"/>
<path d="M300.201 77.2852C292.601 76.4852 281.801 81.8852 282.201 89.9852C282.601 98.0852 295.501 97.1852 304.401 92.4852C313.401 87.6852 312.601 78.4852 300.201 77.2852Z" fill="#B3FF97"/>
<path d="M301.701 101.786C299.101 102.886 296.301 106.586 297.601 108.786C298.901 110.986 304.901 108.286 306.401 104.886C307.301 102.886 306.101 99.8862 301.701 101.786Z" fill="#B3FF97"/>
<path d="M276.001 75.3852C274.301 75.7852 272.301 77.6852 272.901 79.0852C273.501 80.4852 277.201 79.4852 278.501 77.5852C279.101 76.5852 278.701 74.6852 276.001 75.3852Z" fill="#B3FF97"/>
<path d="M269.9 86.9862C267.5 87.5862 264.5 90.3862 265.4 92.4862C266.2 94.5862 271.8 93.0862 273.6 90.3862C274.5 88.7862 273.9 85.9862 269.9 86.9862Z" fill="#B3FF97"/>
<path d="M373.2 95.487C365.8 93.387 354.3 96.887 353.2 104.887C352.1 112.887 365.1 114.287 374.6 111.187C384.4 107.987 385.3 98.887 373.2 95.487Z" fill="#B3FF97"/>
<path d="M382.801 117.785C379.201 118.285 376.601 121.585 377.601 124.585C378.601 127.585 385.001 126.485 387.801 122.885C389.301 120.885 388.701 116.885 382.801 117.785Z" fill="#B3FF97"/>
<path d="M193.801 123.385C188.801 127.585 187.901 134.385 191.801 138.085C195.601 141.785 207.101 134.585 209.801 125.785C212.001 118.385 204.901 113.885 193.801 123.385Z" fill="#B3FF97"/>
<path d="M218.101 138.585C216.401 139.985 216.101 142.285 217.401 143.585C218.701 144.885 222.601 142.385 223.501 139.385C224.301 136.985 221.901 135.385 218.101 138.585Z" fill="#B3FF97"/>
<path d="M219.401 121.889C219.08 122.081 218.801 122.335 218.581 122.637C218.36 122.939 218.203 123.283 218.119 123.647C218.035 124.011 218.026 124.389 218.091 124.757C218.157 125.125 218.296 125.476 218.501 125.789C219.401 126.889 222.701 125.189 223.601 122.889C224.401 120.989 222.601 119.589 219.401 121.889Z" fill="#B3FF97"/>
<path d="M195.6 144.985C192.4 147.285 191.6 151.285 193.7 153.685C195.8 156.085 203 152.385 205 147.285C206.7 142.985 202.7 139.885 195.6 144.985Z" fill="#B3FF97"/>
<path d="M445.2 211.085H444.6C441.3 210.585 439.7 207.185 436.3 200.085C431.6 190.385 421 183.685 394.2 181.885C367.4 180.085 323.7 211.585 275.5 211.485H269.4C268 211.485 266.6 211.485 265.1 211.385C264 211.385 262.8 211.385 261.7 211.285C260.6 211.285 259.5 211.185 258.4 211.185H258.5C256.3 211.085 254.1 210.985 252 210.985C249.8 210.885 247.7 210.785 245.5 210.685C243.4 210.585 241.3 210.485 239.2 210.285C238.2 210.185 237.2 210.185 236.2 210.085C232.6 209.885 229 209.585 225.6 209.285C224.8 209.185 223.9 209.185 223.1 209.085C222 208.985 220.8 208.885 219.7 208.785L216.4 208.485C212.6 208.085 208.8 207.685 205.3 207.285C204.8 207.185 204.3 207.185 203.8 207.085C199.7 206.585 195.9 206.085 192.2 205.585L189.8 205.285C187 204.885 184.2 204.485 181.6 204.085C181.2 203.985 180.8 203.985 180.4 203.885C178.8 203.585 177.2 203.385 175.6 203.085L173.8 202.785C173.3 202.685 172.7 202.585 172.2 202.485C155.6 199.585 145.9 197.085 145.9 197.085C145.9 197.085 112.4 192.585 91.3 193.785C76.4 194.685 61.3 197.485 52.9 194.185C60 191.085 76.5 187.385 99.4 186.885C126.7 186.285 173.2 197.685 216.7 201.285C260.2 204.885 297.1 206.385 341.8 190.185C386.5 173.985 405.1 174.285 424.9 183.585C444.7 192.785 445.2 211.085 445.2 211.085Z" fill="#DEFFBD"/>
<path d="M211.601 239.585C179.201 265.085 129.701 257.885 127.001 247.685C124.701 238.885 129.001 241.485 149.001 231.485C152.301 229.885 155.901 227.885 160.001 225.485C189.401 208.385 172.301 175.685 195.701 165.485C209.801 159.285 220.801 159.185 228.401 163.885C233.401 166.985 236.901 172.185 239.001 179.285C243.201 194.385 244.001 214.085 211.601 239.585Z" fill="#66B656"/>
<path d="M211.601 239.585C179.201 265.085 129.701 257.885 127.001 247.685C124.701 238.885 165.101 267.085 213.001 223.785C232.901 205.885 230.401 173.885 228.301 163.885C233.301 166.985 236.801 172.185 238.901 179.285C243.201 194.385 244.001 214.085 211.601 239.585Z" fill="#B3FF97"/>
<path d="M157.501 258.685C136.501 258.685 126.401 249.385 125.901 248.885L125.701 248.685C125.401 248.285 123.101 245.085 124.001 241.885C124.272 240.999 124.762 240.195 125.427 239.548C126.091 238.901 126.907 238.432 127.801 238.185C128.945 237.777 130.114 237.443 131.301 237.185C138.901 235.285 156.801 230.885 167.101 217.285C175.301 206.385 176.901 198.485 178.501 190.785C179.18 186.822 180.252 182.936 181.701 179.185C186.501 167.585 194.001 163.885 194.301 163.685C194.484 163.588 194.684 163.529 194.891 163.512C195.097 163.495 195.305 163.519 195.501 163.585C195.697 163.65 195.878 163.755 196.033 163.893C196.188 164.03 196.313 164.198 196.401 164.385C196.498 164.568 196.557 164.769 196.574 164.975C196.591 165.181 196.567 165.389 196.501 165.585C196.436 165.782 196.331 165.963 196.193 166.117C196.056 166.272 195.888 166.397 195.701 166.485C195.601 166.485 189.001 169.985 184.601 180.385C183.252 183.948 182.248 187.631 181.601 191.385C180.001 198.985 178.301 207.685 169.601 219.185C158.601 233.785 140.001 238.285 132.101 240.285C131.015 240.511 129.946 240.812 128.901 241.185C127.301 241.785 127.101 242.585 127.001 242.885C126.601 244.185 127.601 246.085 128.101 246.785C129.601 248.085 148.701 263.685 187.801 249.985C236.601 232.785 239.401 195.585 239.501 191.385C240.001 177.585 231.601 165.985 223.501 163.885C223.11 163.768 222.778 163.507 222.574 163.154C222.369 162.8 222.307 162.382 222.401 161.985C222.518 161.594 222.779 161.262 223.133 161.058C223.486 160.853 223.904 160.792 224.301 160.885C233.501 163.285 243.201 175.785 242.601 191.585C242.401 195.985 239.601 235.185 188.801 252.985C176.501 257.085 166.101 258.685 157.501 258.685Z" fill="#66B656"/>
<path d="M55.9 207.185C45.1 208.385 31 221.285 40.9 235.685C50.8 250.085 83.8 253.685 97.3 252.185C110.8 250.685 115.9 247.085 118 240.485C120.1 233.885 106.7 234.885 89.5 220.685C75.4 208.985 65.7 206.085 55.9 207.185Z" fill="#66B656"/>
<path d="M51.401 225.385C56.401 231.085 75.601 241.785 91.901 243.185C114.601 245.185 120.201 241.185 101.101 234.785C82.001 228.385 76.701 226.085 67.401 218.885C55.501 209.685 42.901 215.585 51.401 225.385Z" fill="#B3FF97"/>
<path d="M89 253.885C74.3 253.885 54.6 250.385 42.6 239.385C37.7 234.885 35.4 230.085 35.8 224.985C36.6 215.485 46.6 208.785 47.1 208.485C47.4463 208.251 47.8703 208.162 48.2815 208.237C48.6926 208.311 49.0581 208.544 49.3 208.885C49.5338 209.231 49.6228 209.655 49.5481 210.066C49.4733 210.477 49.2407 210.843 48.9 211.085C48.8 211.185 39.7 217.185 39 225.285C38.7 229.385 40.6 233.285 44.8 237.085C60.5 251.385 90 252.285 102.3 249.585C110.7 247.785 115.1 244.185 116.4 241.585C116.699 241.092 116.873 240.535 116.908 239.96C116.943 239.385 116.837 238.81 116.6 238.285C115.2 235.185 109.9 234.385 108 234.285C107.59 234.27 107.202 234.093 106.921 233.793C106.64 233.494 106.489 233.095 106.5 232.685C106.491 232.477 106.526 232.269 106.605 232.076C106.684 231.883 106.803 231.709 106.955 231.567C107.107 231.424 107.288 231.316 107.486 231.25C107.683 231.185 107.893 231.162 108.1 231.185C108.5 231.185 117 231.585 119.5 237.085C119.895 238.045 120.072 239.081 120.02 240.118C119.969 241.156 119.688 242.168 119.2 243.085C117 247.385 111 250.985 103 252.785C98.3699 253.523 93.6884 253.89 89 253.885Z" fill="#66B656"/>
<path d="M392.3 170.485C392.1 177.185 391.1 180.385 390.6 181.685C389.46 181.686 388.322 181.786 387.2 181.985C386.983 181.363 387.019 180.681 387.3 180.085C387.4 179.985 388.5 177.485 388.7 170.385C388.878 167.475 388.71 164.555 388.2 161.685H391.9C392.357 164.595 392.491 167.546 392.3 170.485Z" fill="#B3FF97"/>
<path d="M423.9 168.885C423.834 171.573 423.533 174.25 423 176.885C421.8 182.485 420.4 185.185 419.7 186.285C418.6 185.885 417.4 185.485 416.1 185.085C416.17 184.791 416.307 184.518 416.5 184.285C416.6 184.185 418.3 181.385 419.5 175.585C420.09 173.062 420.359 170.475 420.3 167.885C420.284 167.582 420.317 167.278 420.4 166.985C421.6 167.685 422.8 168.285 423.9 168.885Z" fill="#B3FF97"/>
<path d="M276.5 196.985C276.458 201.798 276.157 206.605 275.6 211.385H272C272.1 210.285 272.8 204.085 272.9 196.885C273 189.185 272 184.585 271.9 184.585C271.818 184.293 271.784 183.988 271.8 183.685L275.4 183.385C275.7 184.385 276.6 189.285 276.5 196.985Z" fill="#B3FF97"/>
<path d="M305.8 193.285C305.845 198.207 305.477 203.124 304.7 207.985C303.4 208.285 302.1 208.585 300.8 208.785V208.685C300.8 208.585 302 204.685 302.2 193.285C302.305 188.743 302.105 184.2 301.6 179.685C302.8 179.485 304 179.185 305.2 178.985C305.692 183.735 305.892 188.511 305.8 193.285Z" fill="#B3FF97"/>
<path d="M249 197.985C248.9 203.285 248.6 207.985 248.3 210.685C247.4 210.685 246.4 210.585 245.5 210.585H244.7C245 207.985 245.3 203.285 245.4 197.985C245.528 193.861 245.193 189.735 244.4 185.685C244.318 185.393 244.284 185.089 244.3 184.785H247.9C248.804 189.124 249.174 193.557 249 197.985Z" fill="#B3FF97"/>
<path d="M141.4 186.485C141.4 190.285 141.2 193.685 141 196.385C139.9 196.285 138.7 196.085 137.4 195.985C137.6 193.385 137.8 190.085 137.8 186.485C137.889 182.702 137.621 178.918 137 175.185C138.2 175.385 139.5 175.685 140.8 175.885C141.318 179.393 141.519 182.941 141.4 186.485Z" fill="#B3FF97"/>
<path d="M173.2 189.585C173.195 193.864 172.928 198.139 172.4 202.385H172.1L168.8 201.785C169.29 197.736 169.558 193.663 169.6 189.585C169.6 185.785 169.5 182.785 169.4 180.485C170.6 180.585 171.8 180.785 173 180.885C173.2 183.085 173.2 186.085 173.2 189.585Z" fill="#B3FF97"/>
<path d="M114.8 182.385C114.7 186.985 114.5 191.085 114.2 193.885C113 193.785 111.8 193.785 110.6 193.685C110.8 190.985 111.1 186.885 111.2 182.285C111.279 178.638 111.045 174.992 110.5 171.385C111.7 171.485 112.9 171.585 114.2 171.685C114.613 175.237 114.813 178.81 114.8 182.385Z" fill="#66B656"/>
<path d="M412.6 221.785C412.4 227.685 393.9 233.485 371.4 227.385C348.9 221.285 323 208.885 303.2 169.785C293.8 151.185 296 137.885 302.9 129.185C310.5 119.585 324 115.785 333.8 117.085C350.2 119.385 359.5 125.185 364.9 135.785C370.3 146.385 366.5 162.985 377.1 180.785C386 195.785 405.2 210.385 411 218.085C412.1 219.685 412.7 220.885 412.6 221.785Z" fill="#66B656"/>
<path d="M412.6 221.785C412.4 227.685 393.9 233.485 371.4 227.385C348.9 221.285 323 208.885 303.2 169.785C293.8 151.185 296 137.885 302.9 129.185C304.94 143.458 309.967 157.141 317.652 169.34C325.336 181.54 335.507 191.982 347.5 199.985C382.5 223.285 403.9 223.185 411 218.185C412.1 219.685 412.7 220.885 412.6 221.785Z" fill="#B3FF97"/>
<path d="M391.4 230.085C381.7 230.085 367.4 227.585 348.5 217.885C322.2 204.385 306.1 184.585 300.7 159.185C294.1 128.585 313.3 118.685 313.5 118.585C313.683 118.488 313.883 118.429 314.09 118.412C314.296 118.395 314.504 118.419 314.7 118.485C314.896 118.55 315.077 118.655 315.232 118.793C315.387 118.93 315.512 119.098 315.6 119.285C315.697 119.468 315.756 119.669 315.773 119.875C315.79 120.081 315.766 120.289 315.7 120.485C315.635 120.682 315.53 120.863 315.392 121.017C315.255 121.172 315.087 121.297 314.9 121.385C314.2 121.785 297.7 130.385 303.8 158.585C309.1 183.085 324.6 202.085 350 215.185C381.7 231.485 399.7 226.885 404.4 225.085C407.8 223.785 409.2 222.285 409.4 221.685C409.47 221.492 409.578 221.314 409.717 221.162C409.856 221.011 410.024 220.889 410.211 220.803C410.398 220.717 410.6 220.669 410.806 220.662C411.011 220.655 411.216 220.689 411.409 220.762C411.601 220.835 411.777 220.945 411.926 221.087C412.076 221.229 412.195 221.399 412.278 221.587C412.361 221.775 412.406 221.978 412.409 222.184C412.413 222.389 412.376 222.594 412.3 222.785C411.6 224.685 409.1 226.585 405.5 227.885C400.965 229.436 396.192 230.181 391.4 230.085Z" fill="#66B656"/>
<path d="M162.8 232.285C159.704 235.071 156.107 237.243 152.2 238.685C127.9 247.885 91.4 239.585 70.9 229.485C55.9 222.085 47.7 213.585 45.3 201.385C44.3876 196.434 44.2863 191.368 45 186.385C47.5 165.585 60.9 161.085 74.7 160.685C87.8 160.385 95.6 169.685 96.8 171.185C96.8 171.185 90.6 173.985 92.9 180.285C95.2 186.585 108.5 180.885 119.1 178.785C129.7 176.785 147.5 177.885 160.3 191.385C170.8 202.485 175 220.985 162.8 232.285Z" fill="#66B656"/>
<path d="M162.8 232.285C159.704 235.071 156.107 237.243 152.2 238.685C139.5 243.485 123.4 243.585 108.1 240.985C106.4 240.685 104.8 240.385 103.1 240.085C94.701 238.381 86.4689 235.938 78.5 232.785C76.6 232.085 74.9 231.285 73.2 230.485C72.4 230.085 71.7 229.785 71 229.385C56 221.985 47.8 213.485 45.4 201.285C50.1 205.485 58.2 211.285 72.1 217.185C73.2417 217.712 74.4099 218.179 75.6 218.585C80.8 220.685 86.7 222.785 93.4 224.785C95.7 225.485 98 226.085 100.2 226.685L103.8 227.585C123.087 232.309 143.009 233.896 162.8 232.285Z" fill="#78E67C"/>
<path d="M108.1 240.985C106.4 240.685 104.8 240.385 103.1 240.085C102.117 238.186 101.378 236.17 100.9 234.085C100.308 231.699 100.039 229.243 100.1 226.785L103.7 227.685C103.748 229.334 103.949 230.974 104.3 232.585C104.791 235.141 105.888 237.542 107.5 239.585C107.688 239.767 107.837 239.985 107.94 240.225C108.043 240.465 108.098 240.724 108.1 240.985Z" fill="#66B656"/>
<path d="M78.5 232.785C76.6 232.085 74.9 231.285 73.2 230.485C72.4748 228.456 72.0372 226.335 71.9 224.185C71.7213 221.854 71.7547 219.511 72 217.185C73.1417 217.712 74.31 218.179 75.5 218.585C75.3473 220.282 75.3473 221.988 75.5 223.685C75.9 229.485 78.2 232.185 78.2 232.185C78.3427 232.361 78.4451 232.566 78.5 232.785Z" fill="#66B656"/>
<path d="M64.801 174.785C61.101 176.685 56.901 182.285 56.501 186.085C56.001 189.785 57.001 191.985 61.901 191.585C66.901 191.285 70.901 183.285 70.901 178.985C70.901 174.685 68.501 172.885 64.801 174.785Z" fill="#B3FF97"/>
<path d="M68.901 193.686C66.901 194.586 64.601 197.386 64.301 199.286C64.101 201.086 64.501 202.186 67.301 201.986C70.001 201.786 72.301 197.886 72.301 195.786C72.301 193.686 71.001 192.786 68.901 193.686Z" fill="#B3FF97"/>
<path d="M86.5 196.786C84.926 197.715 83.7775 199.222 83.3 200.986C83.1 202.386 83.5 203.186 85.4 203.086C87.3 202.986 88.8 199.986 88.8 198.386C88.8 196.786 87.9 196.086 86.5 196.786Z" fill="#B3FF97"/>
<path d="M154.1 187.885C153.682 187.868 153.288 187.689 153 187.385C153 187.385 147.3 181.985 132.2 180.185C126.2 179.485 118.8 181.085 112.2 182.485C103.8 184.285 96.6 185.885 92.9 182.885C91.3 181.685 90.5 179.685 90.5 177.185C90.4847 176.281 90.6643 175.384 91.0267 174.556C91.3891 173.728 91.9257 172.987 92.6 172.385C97.2 168.085 108.2 168.985 109.4 169.185C109.606 169.197 109.808 169.251 109.993 169.345C110.177 169.439 110.34 169.569 110.472 169.729C110.603 169.889 110.7 170.074 110.757 170.273C110.813 170.472 110.828 170.68 110.8 170.885C110.788 171.092 110.734 171.293 110.64 171.478C110.546 171.662 110.416 171.825 110.256 171.957C110.096 172.088 109.911 172.185 109.712 172.242C109.513 172.298 109.305 172.313 109.1 172.285C106.1 171.985 97.7 171.885 94.7 174.685C94.3364 174.989 94.0479 175.373 93.8571 175.806C93.6663 176.24 93.5783 176.712 93.6 177.185C93.5378 177.79 93.6134 178.401 93.8213 178.973C94.0291 179.544 94.3637 180.061 94.8 180.485C97.4 182.585 104.3 181.085 111.5 179.485C118.3 177.985 126.1 176.285 132.6 177.085C148.9 179.085 155 184.985 155.2 185.185C155.488 185.479 155.65 185.874 155.65 186.285C155.65 186.697 155.488 187.092 155.2 187.385C154.912 187.689 154.518 187.868 154.1 187.885Z" fill="#66B656"/>
<path d="M148.9 223.585C142.502 223.603 136.158 222.416 130.2 220.085C129.993 220.004 129.805 219.882 129.647 219.726C129.488 219.57 129.363 219.383 129.279 219.178C129.195 218.972 129.154 218.751 129.157 218.529C129.161 218.307 129.209 218.088 129.3 217.885C129.381 217.678 129.503 217.49 129.659 217.332C129.815 217.173 130.002 217.048 130.207 216.964C130.413 216.88 130.634 216.839 130.856 216.842C131.078 216.846 131.297 216.894 131.5 216.985C138.849 219.676 146.72 220.634 154.5 219.785C164.5 218.485 166.6 215.285 166.7 215.185C166.923 214.799 167.285 214.511 167.712 214.381C168.139 214.252 168.599 214.289 169 214.485C169.386 214.708 169.674 215.07 169.804 215.497C169.934 215.924 169.896 216.384 169.7 216.785C169.4 217.285 166.8 221.485 155 223.085C152.987 223.442 150.944 223.609 148.9 223.585Z" fill="#1C7730"/>
<path d="M139.1 204.485C137.342 204.546 135.609 204.059 134.139 203.092C132.67 202.124 131.538 200.724 130.9 199.085C130.758 198.634 130.792 198.145 130.996 197.718C131.201 197.291 131.559 196.957 132 196.785C132.451 196.643 132.94 196.677 133.367 196.881C133.794 197.085 134.127 197.444 134.3 197.885C134.4 198.285 135.7 201.285 139.9 200.785C143.8 200.385 144.1 197.885 144.1 197.385C144.1 196.908 144.29 196.45 144.627 196.112C144.965 195.775 145.423 195.585 145.9 195.585C146.377 195.585 146.835 195.775 147.173 196.112C147.51 196.45 147.7 196.908 147.7 197.385C147.7 199.485 146.1 203.785 140.2 204.385C139.9 204.385 139.5 204.485 139.1 204.485Z" fill="#1C7730"/>
<path d="M160.6 204.085C160.264 204.101 159.927 204.068 159.6 203.985C158.164 203.787 156.819 203.169 155.733 202.208C154.648 201.247 153.871 199.986 153.5 198.585C153.448 198.355 153.444 198.116 153.487 197.884C153.53 197.652 153.619 197.431 153.75 197.235C153.881 197.039 154.05 196.871 154.248 196.742C154.446 196.613 154.668 196.526 154.9 196.485C155.13 196.433 155.369 196.429 155.601 196.472C155.833 196.515 156.054 196.604 156.25 196.735C156.446 196.866 156.614 197.035 156.743 197.233C156.872 197.431 156.959 197.653 157 197.885C157.197 198.579 157.598 199.197 158.151 199.661C158.704 200.124 159.383 200.411 160.1 200.485C160.639 200.624 161.211 200.552 161.7 200.285C161.988 200.027 162.166 199.67 162.2 199.285C162.226 199.048 162.298 198.819 162.412 198.61C162.527 198.402 162.681 198.218 162.867 198.069C163.053 197.92 163.266 197.81 163.495 197.744C163.724 197.678 163.964 197.658 164.2 197.685C164.663 197.728 165.09 197.951 165.39 198.307C165.689 198.662 165.836 199.122 165.8 199.585C165.669 200.911 165.023 202.132 164 202.985C163.006 203.692 161.819 204.076 160.6 204.085Z" fill="#1C7730"/>
<path d="M180.2 166.685C179.869 168.897 179.333 171.073 178.6 173.185C175.6 181.985 169 191.085 161.6 190.785C156.1 190.485 148.2 179.385 146.2 167.085V166.985C144.1 154.685 146.7 140.985 162.6 140.985C178.4 140.885 181.6 156.785 180.2 166.685Z" fill="#47CB89"/>
<path d="M178.6 173.085C175.6 181.885 169 190.985 161.6 190.685C156.1 190.385 148.2 179.285 146.2 166.985V166.885C148.958 171.136 152.881 174.503 157.5 176.585C166.3 180.885 174 176.885 178.6 173.085Z" fill="#7CF292"/>
<path d="M161 143.286C157.7 140.286 151.3 143.986 148.5 150.586C145.6 157.186 146.4 163.386 149.6 164.186C152.8 164.986 151.3 157.686 155.9 153.486C160.4 149.186 163.7 145.686 161 143.286Z" fill="#C7D4FF"/>
<path d="M106.1 125.085C108.751 125.085 110.9 122.936 110.9 120.285C110.9 117.634 108.751 115.485 106.1 115.485C103.449 115.485 101.3 117.634 101.3 120.285C101.3 122.936 103.449 125.085 106.1 125.085Z" fill="#D2E9FF"/>
<path d="M98.5 106.785C100.046 106.785 101.3 105.531 101.3 103.985C101.3 102.439 100.046 101.185 98.5 101.185C96.9536 101.185 95.7 102.439 95.7 103.985C95.7 105.531 96.9536 106.785 98.5 106.785Z" fill="#D2E9FF"/>
<path d="M26.8 87.6851C24.1 89.6851 27.2 92.6851 27 93.3851C26.8 94.0851 20.1 93.5851 16.6 95.0851C13 96.5851 14.7 100.685 20.3 101.185C25.9 101.685 41.1 102.785 44.8 100.185C48.5 97.5851 46.1 95.2851 44.1 94.3851C42.1 93.4851 38.1 93.5851 38.5 92.2851C38.9 90.9851 43.9 91.0851 42.3 88.3851C41.3 86.5851 30.9 84.7851 26.8 87.6851Z" fill="#D2E9FF"/>
<path d="M129.9 55.7851C131.8 61.4851 120.9 60.4851 121.5 62.1851C122.7 65.3851 128 62.5851 128.2 68.0851C128.4 73.5851 122.8 73.1851 108.8 73.7851C102.3 74.0851 95.6 72.0851 96 67.5851C96.4 63.0851 106.8 64.6851 105.5 62.2851C104.2 59.8851 103.5 58.1851 105.6 55.5851C107.7 52.9851 112.9 52.8851 119.3 53.2851C125.6 53.6851 129.3 54.1851 129.9 55.7851Z" fill="#D2E9FF"/>
<path d="M108.4 6.68491C91 7.48491 94.6 6.48491 90.1 8.7849C85.6 11.0849 91.9 14.9849 89.2 16.1849C86.5 17.3849 77.5 19.0849 77.9 21.5849C79 29.1849 116.2 28.9849 117.8 22.3849C118.8 18.1849 112.1 18.6849 112.8 16.9849C113.5 15.2849 125.5 16.3849 127.1 11.3849C128.7 6.3849 116.8 6.28491 108.4 6.68491Z" fill="#D2E9FF"/>
<path d="M88.2 117.385C84.2 124.285 73.7 133.185 69.6 128.385C69.5 128.185 69.3 128.085 69.2 127.885C66.2 123.585 68.4 115.285 69.1 112.885C69.1827 112.691 69.2495 112.49 69.3 112.285C69 112.885 66.1 118.785 64.5 120.285C62.3 122.285 58.1 122.785 56.7 119.485C56.4519 118.847 56.3166 118.17 56.3 117.485C56.1 113.485 58.9 109.685 64.2 104.585C69.5 99.4851 77.1 95.1851 79.7 102.085C82.1 108.885 77 119.185 76.7 119.785C77 119.285 81.8 111.685 84.3 110.485C84.9823 110.162 85.7362 110.02 86.4893 110.072C87.2423 110.125 87.9692 110.37 88.6 110.785C89.9 111.585 90.4 113.685 88.2 117.385Z" fill="#1C7730"/>
<path d="M69.2 112.885C69.3 112.485 69.4 112.185 69.4 112.185C69.4 112.185 66.3 118.685 64.6 120.185C62.4 122.185 58.2 122.685 56.8 119.385C57.6687 119.578 58.572 119.552 59.4277 119.307C60.2834 119.063 61.0645 118.608 61.7 117.985C65 115.185 71.5 105.485 71.5 105.485C71.5 105.485 70.5 109.185 69.2 112.885Z" fill="#0C5B0C"/>
<path d="M88.2 117.385C84.2 124.285 73.7 133.185 69.6 128.385C69.5 128.185 69.3 128.085 69.2 127.885C71.5118 127.818 73.7744 127.201 75.8 126.085C80.4 123.885 84.3 117.685 86.7 114.185C87.4971 113.094 88.1056 111.877 88.5 110.585C89.9 111.585 90.4 113.685 88.2 117.385Z" fill="#0C5B0C"/>
<path d="M83.4 82.5849C79.1 86.4849 69.3 88.5849 64.2 88.1849C60.1 87.7849 56.6 85.5849 57.3 81.7849C57.4992 80.7469 57.9075 79.7602 58.5 78.8849C61.9 73.3849 70.4 67.7849 70.4 67.7849L69.7 68.0849C67.7 68.7849 62 70.6849 58.2 69.7849C56.8656 69.5455 55.6672 68.8203 54.8362 67.7491C54.0051 66.678 53.6003 65.337 53.7 63.9849C53.8597 63.0681 54.2205 62.198 54.7565 61.4372C55.2925 60.6764 55.9904 60.0438 56.8 59.5849C64.5 54.5849 75.9 52.9849 80.6 53.5849C85.3 54.1849 87.2 57.2849 86 62.4849C84.8 67.4849 75.4 74.8849 74.8 75.3849C75.3 75.2849 82.6 73.0849 84.5 74.5849C85.2593 75.1668 85.8185 75.9707 86.1 76.8849C86.5 78.3849 86 80.1849 83.4 82.5849Z" fill="#1C7730"/>
<path d="M75.2 63.385L70.4 67.885L69.7 68.185C67.7 68.885 62 70.785 58.2 69.885C56.8656 69.6456 55.6672 68.9204 54.8362 67.8492C54.0051 66.7781 53.6003 65.4371 53.7 64.085C54.4 64.985 56.4 66.485 61.2 65.985C67.7 65.185 75.2 63.385 75.2 63.385Z" fill="#0C5B0C"/>
<path d="M83.4 82.5849C79.1 86.4849 69.3 88.5849 64.2 88.1849C60.1 87.7849 56.6 85.5849 57.3 81.7849C58.6 82.8849 61.5 84.2849 67.5 83.7849C74.195 83.0785 80.6152 80.7439 86.2 76.9849C86.5 78.3849 86 80.1849 83.4 82.5849Z" fill="#0C5B0C"/>
<path d="M62.3001 36.285C55.7001 42.285 43.9001 49.9851 39.5001 51.1851C35.2001 52.285 30.1001 52.085 29.3001 45.285V45.1851C28.5001 38.285 34.3001 26.685 34.3001 26.685L34.2001 26.785C33.3001 27.685 25.1001 35.285 20.5001 33.285C18.8901 32.6689 17.4984 31.5903 16.5001 30.185C13.8001 26.185 16.1001 20.4851 20.9001 15.9851C27.3001 10.0851 40.0001 2.38505 44.3001 0.78505C48.6001 -0.81495 52.5001 -0.71495 52.9001 8.38505C53.3001 16.5851 47.2001 28.585 46.1001 30.685C47.3949 28.6895 49.0579 26.9587 51.0001 25.585C54.7001 23.085 61.8001 18.285 66.0001 21.785C67.1629 22.7344 67.915 24.0954 68.1001 25.585C68.4001 28.585 66.7001 32.385 62.3001 36.285Z" fill="#1C7730"/>
<path d="M37.9 18.9851L34.2 26.7851C33.3 27.6851 25.1 35.2851 20.5 33.2851C18.8901 32.6689 17.4984 31.5904 16.5 30.1851C18.403 30.1036 20.2864 29.7672 22.1 29.1851C27.8 27.3851 37.9 18.9851 37.9 18.9851Z" fill="#0C5B0C"/>
<path d="M62.3 36.2851C55.7 42.2851 43.9 49.9851 39.5 51.1851C35.2 52.2851 30.1 52.0851 29.3 45.2851C31.1 46.6851 34.3 47.7851 39.9 45.5851C48.8 41.9851 63.9 30.3851 68.1 25.6851C68.4 28.5851 66.7001 32.3851 62.3 36.2851Z" fill="#0C5B0C"/>
</g>
<defs>
<clipPath id="clip0_115_2">
<rect width="477.2" height="275.185" fill="white"/>
</clipPath>
</defs>
</svg>
