<svg width="363" height="400" viewBox="0 0 363 400" fill="none" xmlns="http://www.w3.org/2000/svg">
<g clip-path="url(#clip0_108_2)">
<path d="M232.104 245.067C231.227 245.332 230.375 245.631 229.546 245.973C229.101 246.153 228.623 246.238 228.143 246.222C227.663 246.206 227.192 246.09 226.759 245.881C226.327 245.671 225.944 245.373 225.634 245.007C225.324 244.64 225.094 244.212 224.96 243.751L211.269 197.735L55.3369 244.156L92.5119 369.12C93.8122 373.487 96.7941 377.159 100.802 379.328C104.809 381.497 109.514 381.985 113.882 380.685L236.887 344.062C241.254 342.759 244.925 339.776 247.093 335.767C249.262 331.758 249.749 327.053 248.449 322.685L239.662 293.14C239.523 292.68 239.482 292.197 239.541 291.72C239.6 291.243 239.759 290.785 240.006 290.373C240.253 289.961 240.584 289.606 240.977 289.329C241.369 289.053 241.816 288.862 242.287 288.769C243.176 288.603 244.055 288.391 244.922 288.133C257.832 284.278 265.422 271.533 261.889 259.633C258.356 247.733 245.014 241.226 232.104 245.067Z" fill="#B3F24D"/>
<g style="mix-blend-mode:multiply" opacity="0.25">
<path d="M190.399 362.432C190.399 362.432 122.176 381.587 107.151 370.465C94.4909 361.116 93.9079 351.478 75.9379 313.452C75.7379 346.221 93.6139 400 93.6139 400L190.399 362.432Z" fill="#B3F24D"/>
</g>
<g style="mix-blend-mode:multiply" opacity="0.25">
<path d="M113.457 233.038C113.457 233.038 120.115 264.92 144.244 257.738C168.373 250.556 156.5 220.215 156.5 220.215L113.457 233.038Z" fill="#B3F24D"/>
</g>
<path d="M169.194 56.309L29.7179 97.819C25.3511 99.1205 21.6799 102.103 19.5118 106.111C17.3436 110.119 16.8559 114.824 18.1559 119.191L55.338 244.156L108.849 228.256C109.272 228.129 109.716 228.091 110.154 228.145C110.592 228.2 111.014 228.345 111.392 228.572C111.771 228.798 112.098 229.102 112.353 229.462C112.607 229.823 112.784 230.232 112.871 230.665C113.028 231.465 113.228 232.268 113.471 233.074C117.325 245.984 130.071 253.583 141.956 250.041C153.841 246.499 160.377 233.175 156.533 220.25C156.292 219.45 156.022 218.665 155.714 217.903C155.553 217.494 155.48 217.055 155.498 216.616C155.516 216.176 155.625 215.745 155.818 215.35C156.012 214.955 156.285 214.605 156.621 214.321C156.958 214.038 157.349 213.827 157.771 213.703L211.278 197.769L169.194 56.309Z" fill="#FFC60B"/>
<g style="mix-blend-mode:multiply" opacity="0.52">
<path d="M37.561 193.518C37.561 193.518 18.431 125.273 29.525 110.243C38.876 97.5779 55.423 90.1669 74.967 84.3429C42.209 84.1429 0 96.7009 0 96.7009L37.561 193.518Z" fill="#FFC60B"/>
</g>
<path d="M169.196 56.309L181.175 96.576C181.369 97.2173 181.424 97.8927 181.335 98.5568C181.246 99.221 181.016 99.8584 180.661 100.426C180.305 100.994 179.832 101.48 179.274 101.849C178.715 102.219 178.084 102.465 177.422 102.571C176.173 102.757 174.938 103.031 173.727 103.39C160.821 107.245 153.227 119.99 156.765 131.89C160.303 143.79 173.626 150.312 186.541 146.471C187.753 146.112 188.936 145.664 190.082 145.131C190.693 144.862 191.354 144.726 192.021 144.733C192.689 144.74 193.347 144.888 193.953 145.169C194.558 145.45 195.097 145.856 195.533 146.361C195.969 146.867 196.293 147.459 196.482 148.099L211.247 197.734L262.181 182.564C263.641 182.118 264.866 181.113 265.588 179.768C266.309 178.423 266.47 176.847 266.035 175.384L265.992 175.239C262.138 162.324 268.68 148.985 280.569 145.448C292.458 141.911 305.214 149.506 309.054 162.42L309.097 162.56C309.534 164.027 310.535 165.261 311.881 165.992C313.226 166.722 314.807 166.888 316.275 166.454L350.719 156.199C355.086 154.897 358.757 151.915 360.925 147.907C363.093 143.899 363.581 139.194 362.281 134.827L330.006 26.335C329.363 24.1727 328.3 22.1584 326.878 20.4069C325.456 18.6555 323.703 17.2013 321.719 16.1274C319.735 15.0535 317.559 14.3809 315.315 14.1479C313.071 13.915 310.803 14.1264 308.641 14.77L169.196 56.309Z" fill="#AEF284"/>
<g style="mix-blend-mode:multiply" opacity="0.19">
<path d="M173.726 103.385C173.726 103.385 160.353 110.459 165.226 126.872C170.099 143.285 181.506 145.42 189.007 146.76C175.518 158.509 135.66 142.336 135.66 142.336L150.719 101.814L173.726 103.385Z" fill="#AEF284"/>
</g>
<g style="mix-blend-mode:multiply" opacity="0.19">
<path d="M352.434 101.607C352.434 101.607 331.146 34 313.646 27.482C295.801 21.1912 276.442 20.6003 258.246 25.791C285.575 7.7 330.988 0 330.988 0L352.434 101.607Z" fill="#AEF284"/>
</g>
<path d="M73.8539 160.374C78.4086 160.374 82.1009 156.68 82.1009 152.124C82.1009 147.568 78.4086 143.874 73.8539 143.874C69.2992 143.874 65.6069 147.568 65.6069 152.124C65.6069 156.68 69.2992 160.374 73.8539 160.374Z" fill="#1C3177"/>
<path d="M135.029 142.168C139.584 142.168 143.276 138.474 143.276 133.918C143.276 129.362 139.584 125.668 135.029 125.668C130.474 125.668 126.782 129.362 126.782 133.918C126.782 138.474 130.474 142.168 135.029 142.168Z" fill="#1C3177"/>
<path d="M99.9299 162.326C99.9299 162.326 100.161 155.902 107.73 153.652C115.299 151.402 118.78 156.722 118.78 156.722" stroke="#1C3177" stroke-width="4.337" stroke-miterlimit="10" stroke-linecap="round"/>
<path d="M125.163 303.92C129.718 303.92 133.41 300.226 133.41 295.67C133.41 291.114 129.718 287.42 125.163 287.42C120.608 287.42 116.916 291.114 116.916 295.67C116.916 300.226 120.608 303.92 125.163 303.92Z" fill="#1C3177"/>
<path d="M186.338 285.709C190.893 285.709 194.585 282.015 194.585 277.459C194.585 272.903 190.893 269.209 186.338 269.209C181.783 269.209 178.091 272.903 178.091 277.459C178.091 282.015 181.783 285.709 186.338 285.709Z" fill="#1C3177"/>
<path d="M240.115 102.634C241.415 107 238.188 109.106 233.815 110.407C229.442 111.708 225.6 111.708 224.299 107.342C223.97 106.298 223.852 105.199 223.951 104.108C224.051 103.018 224.367 101.958 224.88 100.991C225.394 100.024 226.094 99.169 226.941 98.4754C227.789 97.7818 228.765 97.2637 229.815 96.9514C230.864 96.639 231.965 96.5386 233.054 96.656C234.142 96.7733 235.197 97.1062 236.155 97.635C237.114 98.1639 237.958 98.8783 238.638 99.7365C239.317 100.595 239.82 101.58 240.115 102.634V102.634Z" fill="#1C3177"/>
<path d="M301.285 84.4231C302.585 88.7941 299.358 90.8951 294.985 92.1961C290.612 93.4971 286.77 93.4971 285.469 89.1311C285.14 88.0869 285.021 86.9876 285.121 85.8973C285.221 84.807 285.537 83.7474 286.05 82.7804C286.564 81.8133 287.264 80.958 288.111 80.2645C288.959 79.5709 289.935 79.0528 290.985 78.7404C292.034 78.4281 293.135 78.3276 294.224 78.445C295.312 78.5624 296.366 78.8952 297.325 79.4241C298.284 79.953 299.128 80.6674 299.807 81.5256C300.487 82.3838 300.989 83.3688 301.285 84.4231V84.4231Z" fill="#1C3177"/>
<path d="M281.207 109.235C280.907 113.394 275.855 112.95 268.537 115.129C261.219 117.308 257.722 120.912 254.706 117.129C250.853 112.305 257.467 104.691 264.784 102.513C272.101 100.335 281.655 103.106 281.207 109.235Z" fill="#619757"/>
<path d="M173.886 294.269L144.314 303.068C141.503 303.904 139.902 306.861 140.738 309.672L140.74 309.675C141.576 312.486 144.533 314.087 147.343 313.25L176.916 304.451C179.727 303.615 181.328 300.658 180.491 297.848L180.49 297.844C179.654 295.033 176.697 293.432 173.886 294.269Z" fill="white"/>
<path d="M306.834 272.563L315.057 287.453" stroke="#1C3177" stroke-width="5.783" stroke-miterlimit="10" stroke-linecap="round"/>
<path d="M324.307 221.493L339.718 214.298" stroke="#1C3177" stroke-width="5.783" stroke-miterlimit="10" stroke-linecap="round"/>
<path d="M323.348 249.042L343.219 255.576" stroke="#1C3177" stroke-width="5.783" stroke-miterlimit="10" stroke-linecap="round"/>
</g>
<defs>
<clipPath id="clip0_108_2">
<rect width="362.995" height="400" fill="white"/>
</clipPath>
</defs>
</svg>
