<?xml version="1.0" encoding="UTF-8" standalone="no"?>
<!DOCTYPE svg PUBLIC "-//W3C//DTD SVG 1.1//EN" "http://www.w3.org/Graphics/SVG/1.1/DTD/svg11.dtd">
<svg width="100%" height="100%" viewBox="0 0 468 550" version="1.1" fill="#1b510f" xmlns="http://www.w3.org/2000/svg" xmlns:xlink="http://www.w3.org/1999/xlink" xml:space="preserve" xmlns:serif="http://www.serif.com/" style="fill-rule:evenodd;clip-rule:evenodd;stroke-linejoin:round;stroke-miterlimit:2;">
    <g transform="matrix(1,0,0,1,0,-39.9944)">
        <g transform="matrix(1,0,0,1,0,67.9012)">
            <path d="M456.31,258.031C456.31,258.021 456.31,258.011 456.3,257.991C448.2,217.391 438.51,181.101 426.69,147.051C415.54,114.951 385.16,92.711 351.09,91.721L328.95,91.081C319.15,74.591 307.66,59.471 294.74,46.021C299.33,42.931 304.06,40.011 308.93,37.261C318.02,32.131 321.6,20.741 317.07,11.321C314.69,6.371 310.32,2.581 305.08,0.931C299.79,-0.729 294.23,-0.159 289.42,2.551C280.51,7.571 272.03,13.071 263.95,19.021C255.88,13.091 247.32,7.551 238.44,2.551C233.63,-0.149 228.07,-0.729 222.79,0.931C217.54,2.581 213.17,6.371 210.79,11.321C206.26,20.741 209.84,32.131 218.93,37.261C223.78,40.001 228.53,42.941 233.11,46.011C220.96,58.651 210.17,72.671 200.77,88.001C189.88,89.631 180.05,95.651 173.62,104.891C165.76,116.191 164.16,130.581 169.33,143.371C181.57,173.631 192.68,204.591 202.58,236.051C192.11,239.981 162.49,252.361 145.21,272.301C128.31,266.781 116.65,256.211 116.41,255.991C114.8,254.491 112.26,254.591 110.76,256.211C109.26,257.831 109.36,260.361 110.98,261.861C111.6,262.441 122.95,272.811 140.08,279.021C137.86,282.381 136.02,285.921 134.68,289.641C127.59,309.381 134.32,350.701 142.97,382.791C154.32,424.861 169.92,457.761 184.72,470.801C211.06,494.001 294.86,503.991 346.01,503.991C357.11,503.991 366.67,503.521 373.77,502.611C411.23,497.831 441.97,475.111 458.12,440.301C472.37,409.582 468.6,319.591 456.31,258.031ZM271.1,286.812C262.87,290.952 257.47,296.812 256.28,302.882C254.95,309.632 256.12,315.852 259.65,320.842C263.31,326.032 269.41,329.602 276.37,330.632C284.15,331.782 293.03,329.212 298.97,324.082C304.04,319.702 306.72,313.832 306.72,307.092C306.72,300.372 302.66,294.202 296.4,288.962C304.16,288.912 312.67,290.402 321.25,294.492C343.82,305.232 347.38,338.162 347.94,347.822C324.2,349.322 291.32,347.122 252.88,341.292C247.98,340.542 243.17,339.772 238.5,338.972C234.11,319.312 229.25,299.772 223.94,280.372C234.84,279.572 244.68,279.132 251.97,279.822C259.56,280.532 267.29,282.572 274.22,285.382C273.13,285.832 272.09,286.312 271.1,286.812ZM274.7,293.951C277.5,292.541 280.8,291.321 284.46,290.431C292.98,295.531 298.72,301.661 298.72,307.091C298.72,311.491 297.05,315.171 293.75,318.021C289.62,321.591 282.95,323.521 277.54,322.721C272.73,322.011 268.59,319.641 266.18,316.231C263.91,313.011 263.22,309.041 264.13,304.421C264.82,300.901 268.87,296.891 274.7,293.951ZM324.69,287.271C310.92,280.711 297.18,279.931 285.88,281.981C275.61,276.481 263.2,272.841 252.72,271.851C244.5,271.081 233.66,271.611 221.76,272.511C218.99,262.631 216.12,252.791 213.12,242.991L446.69,262.341C440.02,278.341 416.07,328.981 375.06,343.251C369.99,345.011 363.56,346.311 355.94,347.141C355.31,335.851 351.25,299.911 324.69,287.271ZM248.68,88.741C253.45,82.681 258.55,76.931 263.95,71.481C269.59,77.181 274.93,83.261 279.9,89.651L248.68,88.741ZM308,129.401C307.89,132.181 306.7,134.741 304.65,136.631C302.6,138.511 299.95,139.481 297.16,139.371L250.76,137.431C247.98,137.321 245.41,136.131 243.53,134.081C241.64,132.031 240.67,129.371 240.78,126.591C241.02,121.001 245.64,116.611 251.19,116.611C251.33,116.611 251.48,116.621 251.62,116.621L298.03,118.561C300.81,118.671 303.38,119.861 305.26,121.911C307.15,123.961 308.12,126.621 308,129.401ZM319.44,90.802L290.14,89.952C283.9,81.412 277.04,73.342 269.69,65.912C275.51,60.492 281.66,55.422 288.12,50.692C299.82,62.731 310.33,76.171 319.44,90.802ZM222.87,30.301C217.43,27.231 215.29,20.421 218,14.791C219.45,11.781 222,9.561 225.19,8.561C228.34,7.571 231.65,7.911 234.52,9.521C242.42,13.971 250.06,18.861 257.3,24.081C250.86,29.161 244.7,34.551 238.84,40.251C233.7,36.741 228.35,33.391 222.87,30.301ZM293.35,9.521C296.21,7.911 299.52,7.571 302.67,8.561C305.86,9.561 308.41,11.781 309.86,14.791C312.57,20.421 310.43,27.231 305,30.301C278.77,45.091 256.53,64.661 238.83,88.461L210.43,87.631C231.46,54.941 259.32,28.681 293.35,9.521ZM204.97,243.731C207.98,253.491 210.86,263.311 213.63,273.161C212.06,273.291 210.49,273.421 208.9,273.561C190.92,275.071 172.33,276.631 159.05,275.291C157.33,275.111 155.65,274.861 153.99,274.551C169.97,258.191 195.36,247.411 204.97,243.731ZM148.11,281.471C151.35,282.271 154.73,282.891 158.24,283.241C172.27,284.671 191.23,283.071 209.57,281.531C211.67,281.351 213.76,281.181 215.82,281.011C220.96,299.701 225.68,318.531 229.96,337.471C191.01,330.421 162.54,322.241 157.64,318.601C146.02,309.981 143.1,295.151 142.54,291.461C143.9,287.961 145.81,284.631 148.11,281.471ZM450.86,436.931C437.62,465.491 413.79,485.251 384.45,492.491C390.5,484.811 397.66,472.781 398.56,458.091C400.05,433.921 390.87,379.631 390.48,377.331C390.11,375.151 388.04,373.691 385.87,374.051C383.69,374.431 382.22,376.491 382.59,378.671C382.69,379.221 392,434.341 390.58,457.601C389.4,476.811 375.16,491.391 371.52,494.831C332.63,499.321 219.62,490.891 190.01,464.791C176.55,452.931 161.48,420.711 150.69,380.711C143.12,352.631 139.28,326.721 139.74,308.911C142.5,314.491 146.64,320.401 152.87,325.021C161.45,331.381 205.77,342.231 251.68,349.201C285.65,354.351 347.2,361.421 377.69,350.801C417,337.131 440.98,294.391 450.89,272.791C460.91,332.082 463.13,410.471 450.86,436.931Z" style="fill-rule:nonzero;"/>
        </g>
        <g transform="matrix(1,0,0,1,0,67.9012)">
            <path d="M238.42,363.091C229.86,360.651 221.11,360.631 213.79,363.021C205.91,365.591 200.55,370.631 198.67,377.201C196.8,383.781 198.71,390.891 204.06,397.221C209.02,403.111 216.47,407.701 225.03,410.131C229.5,411.401 233.9,412.011 238.07,412.011C251.18,412.011 261.92,406.031 264.77,396.021C265.24,394.371 265.47,392.691 265.47,391.001C265.47,385.931 263.39,380.751 259.39,376.001C254.42,370.111 246.97,365.531 238.42,363.091Z" style="fill-rule:nonzero;"/>
        </g>
        <g transform="matrix(1,0,0,1,0,67.9012)">
            <path d="M130.64,226.641C137.32,223.391 144.41,218.311 147.9,214.181C151.3,210.151 152.92,205.041 152.48,199.791C152.03,194.541 149.57,189.771 145.54,186.371C141.51,182.971 136.4,181.351 131.15,181.791C125.9,182.241 121.14,184.701 117.74,188.731C114.94,192.041 111.79,198.021 109.61,204.011C109.46,204.011 109.32,203.991 109.17,203.991C101.88,203.991 95.44,207.641 91.54,213.191C83.59,208.311 73.2,204.671 67.15,204.091C55.25,202.951 44.61,211.721 43.47,223.641C42.33,235.561 51.11,246.181 63.02,247.321C63.82,247.391 64.71,247.431 65.68,247.431C73.24,247.431 85.52,245.131 93.89,240.681C97.8,244.611 103.2,247.051 109.17,247.051C120.66,247.052 130.06,237.991 130.64,226.641ZM63.78,239.351C60.14,239.011 56.85,237.261 54.51,234.431C52.18,231.611 51.09,228.051 51.44,224.401C52.16,216.871 58.87,211.331 66.39,212.051C71.62,212.551 81.42,216.161 88.23,220.561C87.86,222.161 87.63,223.811 87.63,225.521C87.63,228.531 88.26,231.401 89.38,234.011C81.65,237.832 69.38,239.891 63.78,239.351ZM123.85,193.891C125.87,191.491 128.7,190.031 131.83,189.761C134.94,189.501 137.99,190.471 140.38,192.491C142.78,194.511 144.24,197.341 144.51,200.461C144.77,203.581 143.81,206.621 141.78,209.021C139.65,211.551 134.74,215.361 129.42,218.271C127.38,212.601 123.05,208.011 117.52,205.681C119.51,200.501 122.04,196.042 123.85,193.891Z" style="fill-rule:nonzero;"/>
        </g>
        <g transform="matrix(1,0,0,1,0,67.9012)">
            <path d="M82.62,155.101C83.24,155.161 83.92,155.191 84.67,155.191C90.35,155.191 99.44,153.511 105.92,150.271C109,153.141 113.12,154.901 117.65,154.901C126.68,154.901 134.11,147.931 134.85,139.091C139.87,136.561 145.1,132.781 147.72,129.661C150.46,126.411 151.78,122.291 151.42,118.061C151.06,113.821 149.07,109.981 145.82,107.241C142.57,104.501 138.46,103.181 134.22,103.551C129.98,103.901 126.14,105.891 123.4,109.141C121.28,111.651 118.98,115.921 117.31,120.371C111.93,120.471 107.16,123.041 104.06,127.001C97.94,123.381 90.43,120.861 85.93,120.431C81.3,119.981 76.77,121.381 73.19,124.341C69.6,127.301 67.38,131.481 66.94,136.111C66.03,145.671 73.06,154.181 82.62,155.101ZM129.51,114.302C130.88,112.682 132.79,111.702 134.89,111.522C137.01,111.342 139.05,111.992 140.66,113.352C142.28,114.722 143.27,116.632 143.44,118.732C143.62,120.842 142.97,122.892 141.61,124.502C140.17,126.202 137.03,128.692 133.49,130.742C131.84,126.982 128.89,123.922 125.21,122.122C126.62,118.671 128.32,115.711 129.51,114.302ZM74.9,136.871C75.14,134.371 76.34,132.111 78.28,130.511C80.22,128.901 82.67,128.161 85.17,128.391C88.48,128.711 95.42,131.031 100.7,134.311C100.49,135.391 100.37,136.491 100.37,137.631C100.37,139.711 100.76,141.701 101.44,143.561C95.75,146.141 87.32,147.511 83.38,147.131C78.21,146.641 74.41,142.042 74.9,136.871Z" style="fill-rule:nonzero;"/>
        </g>
        <g transform="matrix(1,0,0,1,0,67.9012)">
            <circle cx="117.65" cy="79.861" r="7.95"/>
        </g>
        <g transform="matrix(1,0,0,1,0,67.9012)">
            <path d="M67.44,320.161C63.05,320.161 59.49,323.721 59.49,328.111C59.49,332.501 63.05,336.061 67.44,336.061C71.84,336.061 75.4,332.501 75.4,328.111C75.4,323.721 71.84,320.161 67.44,320.161Z" style="fill-rule:nonzero;"/>
        </g>
        <g transform="matrix(1,0,0,1,0,67.9012)">
            <path d="M50.2,127.991C50.2,123.601 46.64,120.041 42.24,120.041C37.85,120.041 34.29,123.601 34.29,127.991C34.29,132.391 37.85,135.951 42.24,135.951C46.64,135.951 50.2,132.391 50.2,127.991Z" style="fill-rule:nonzero;"/>
        </g>
        <g transform="matrix(1,0,0,1,0,67.9012)">
            <path d="M7.96,224.072C3.56,224.072 0,227.632 0,232.032C0,236.422 3.56,239.982 7.96,239.982C12.35,239.982 15.91,236.422 15.91,232.032C15.91,227.631 12.35,224.072 7.96,224.072Z" style="fill-rule:nonzero;"/>
        </g>
    </g>
</svg>
