<?xml version="1.0" encoding="UTF-8" standalone="no"?>
<!DOCTYPE svg PUBLIC "-//W3C//DTD SVG 1.1//EN" "http://www.w3.org/Graphics/SVG/1.1/DTD/svg11.dtd">
<svg width="100%" height="100%" viewBox="0 0 4500 3334" version="1.1" xmlns="http://www.w3.org/2000/svg" xmlns:xlink="http://www.w3.org/1999/xlink" xml:space="preserve" xmlns:serif="http://www.serif.com/" style="fill-rule:evenodd;clip-rule:evenodd;stroke-linejoin:round;stroke-miterlimit:2;">
    <g transform="matrix(4.16667,0,0,4.16667,-1750,-583.333)">
        <g transform="matrix(1,0,0,1,0,103.68)">
            <path d="M536.964,461.631L648.971,461.631L648.971,282.893L643.679,292.3L536.964,461.631ZM720.407,461.631L773.618,461.631L773.618,518.957L720.407,518.957L720.407,614.207L648.971,614.207L648.971,518.957L464.059,518.957L462,475.448L646.619,186.173L720.407,186.173L720.407,461.631Z" style="fill:rgb(151,220,66);fill-rule:nonzero;"/>
        </g>
        <g transform="matrix(1,0,0,1,0,103.68)">
            <path d="M1028.5,354.035C1028.5,313.862 1023.01,284.413 1012.03,265.695C1001.06,246.981 983.615,237.62 959.706,237.62C936.381,237.62 919.234,246.49 908.26,264.225C897.282,281.964 891.503,309.645 890.915,347.273L890.915,444.287C890.915,484.268 896.501,514.061 907.672,533.656C918.844,553.256 936.381,563.054 960.294,563.054C983.225,563.054 1000.17,553.991 1011.15,535.861C1022.13,517.735 1027.91,489.367 1028.5,450.754L1028.5,354.035ZM1099.93,433.998C1099.93,495.541 1088.42,541.938 1065.39,573.196C1042.36,604.459 1007.33,620.086 960.294,620.086C914.039,620.086 879.202,604.85 855.785,574.373C832.363,543.899 820.36,498.774 819.772,438.995L819.772,364.913C819.772,303.375 831.284,257.22 854.315,226.449C877.342,195.682 912.472,180.294 959.706,180.294C1006.54,180.294 1041.48,195.287 1064.51,225.273C1087.54,255.258 1099.35,300.141 1099.93,359.915L1099.93,433.998Z" style="fill:rgb(151,220,66);fill-rule:nonzero;"/>
        </g>
        <g transform="matrix(1,0,0,1,0,103.68)">
            <path d="M1221.35,461.631L1333.35,461.631L1333.35,282.893L1328.06,292.3L1221.35,461.631ZM1404.79,461.631L1458,461.631L1458,518.957L1404.79,518.957L1404.79,614.207L1333.35,614.207L1333.35,518.957L1148.44,518.957L1146.38,475.448L1331,186.173L1404.79,186.173L1404.79,461.631Z" style="fill:rgb(151,220,66);fill-rule:nonzero;"/>
        </g>
        <g transform="matrix(1,0,0,1,0,103.68)">
            <path d="M688.195,394.884C685.476,390.762 678.72,386.411 675.198,383.934C671.362,381.258 676.587,379.282 678.791,378.61C679.235,378.481 679.407,377.966 679.135,377.593C679.135,377.593 678.562,376.463 678.204,376.305C676.658,375.632 671.534,377.092 671.534,377.092C673.681,370.809 666.367,361.548 666.367,361.548L666.353,361.548C665.938,361.434 657.221,359.101 653.485,367.96C649.664,377.021 662.316,402.313 650.15,409.942C637.983,417.571 618.417,440.243 625.102,461.942C631.771,483.656 601.713,488.422 600.769,507.029C599.81,525.637 627.592,556.654 656.405,545.446C665.336,541.969 672.178,537.331 677.374,532.55L677.388,532.55C677.36,532.278 677.331,532.006 677.288,531.734C676.587,525.565 675.671,515.975 675.184,504.753C674.282,483.613 674.926,456.618 681.554,435.763C681.768,434.761 681.983,433.773 682.212,432.8C682.455,431.698 682.727,430.61 682.999,429.551C683.243,428.578 683.5,427.633 683.772,426.688C683.958,426.001 684.144,425.329 684.359,424.67C684.574,423.897 684.817,423.139 685.061,422.38C685.275,421.708 685.49,421.035 685.719,420.391C686.048,419.417 686.377,418.458 686.735,417.528C687.079,416.598 687.437,415.667 687.794,414.765C687.952,407.666 688.41,402.098 689.269,399.063C689.641,397.761 689.168,396.33 688.195,394.884Z" style="fill:rgb(53,71,80);fill-rule:nonzero;"/>
        </g>
        <g transform="matrix(1,0,0,1,0,103.68)">
            <path d="M668.324,522.85C668.324,522.85 675.918,685.615 676.482,691.955C676.933,697.013 674.299,714.757 671.735,721.057C671.167,722.452 672.322,723.945 673.813,723.729C675.7,723.456 678.458,722.612 682.14,720.401C689.958,715.707 695.635,689.317 698.402,669.023C701.169,648.73 728.102,539.009 728.102,539.009L668.324,522.85Z" style="fill:rgb(233,176,162);fill-rule:nonzero;"/>
        </g>
        <g transform="matrix(1,0,0,1,0,103.68)">
            <rect x="782.4" y="706.227" width="13.24" height="107.721" style="fill:rgb(42,16,11);fill-rule:nonzero;"/>
        </g>
        <g transform="matrix(1,0,0,1,0,103.68)">
            <path d="M798.29,711.594L780.62,711.594C777.195,711.594 774.419,708.817 774.419,705.393L774.419,687.977L804.491,687.977L804.491,705.393C804.491,708.817 801.715,711.594 798.29,711.594Z" style="fill:rgb(67,19,11);fill-rule:nonzero;"/>
        </g>
        <g transform="matrix(1,0,0,1,0,103.68)">
            <path d="M700.37,682.688C700.37,682.688 664.254,543.529 658.495,497.609C656.4,480.91 668.275,476.854 672.092,493.315C677.293,515.742 719.555,667.482 719.083,673.913C718.611,680.343 700.37,682.688 700.37,682.688Z" style="fill:rgb(87,41,77);fill-rule:nonzero;"/>
        </g>
        <g transform="matrix(1,0,0,1,0,103.68)">
            <path d="M873.646,673.633C879.623,673.443 882.662,689.798 873.646,690.094C862.492,690.459 715.303,692.137 709.282,691.666C697.523,690.749 696.808,675.912 710.406,674.288C721.753,672.934 856.411,674.178 873.646,673.633Z" style="fill:rgb(87,41,77);fill-rule:nonzero;"/>
        </g>
        <g transform="matrix(1,0,0,1,0,103.68)">
            <path d="M822.726,817.862L755.314,817.862C754.173,817.862 753.247,816.938 753.247,815.795C753.247,814.74 754.041,813.855 755.089,813.74L788.795,810.046C788.945,810.029 789.096,810.029 789.246,810.046L822.951,813.74C824,813.855 824.793,814.74 824.793,815.795C824.793,816.938 823.868,817.862 822.726,817.862Z" style="fill:rgb(121,72,107);fill-rule:nonzero;"/>
        </g>
        <g transform="matrix(1,0,0,1,0,103.68)">
            <path d="M640.71,819.373C640.71,819.373 640.049,796.71 645.747,783.59C653.704,765.266 659.583,746.136 659.583,746.136C659.583,746.136 681.741,794.086 672.676,819.373L640.71,819.373Z" style="fill:rgb(9,137,68);fill-rule:nonzero;"/>
        </g>
        <g transform="matrix(1,0,0,1,0,103.68)">
            <path d="M655.063,819.238C656.004,814.355 656.743,809.395 657.38,804.438C658.015,799.478 658.541,794.5 658.928,789.511C659.324,784.522 659.619,779.523 659.756,774.519C659.937,769.514 659.903,764.505 659.822,759.495C660.023,764.5 660.175,769.513 660.114,774.525C660.096,779.539 659.92,784.552 659.642,789.56C659.373,794.568 658.965,799.57 658.447,804.563C657.924,809.558 657.306,814.529 656.469,819.508L655.063,819.238Z" style="fill:rgb(16,9,9);fill-rule:nonzero;"/>
        </g>
        <g transform="matrix(1,0,0,1,0,103.68)">
            <path d="M649.146,819.354C649.146,819.354 658.45,722.102 604.238,668.427C604.238,668.427 605.895,681.507 602.091,694.728C598.272,707.997 609.963,718.692 609.963,718.692L603.701,721.361C602.332,722.316 600.777,723.996 601.451,725.524C622.488,773.271 605.669,794.921 615.211,819.373L649.146,819.354Z" style="fill:rgb(61,182,91);fill-rule:nonzero;"/>
        </g>
        <g transform="matrix(1,0,0,1,0,103.68)">
            <path d="M633.222,819.341C633.342,807.467 632.839,795.548 631.993,783.68C631.12,771.808 629.814,759.967 628.04,748.191C626.162,736.434 623.787,724.755 620.741,713.238C617.52,701.773 613.593,690.499 608.532,679.698C613.7,690.447 617.745,701.693 621.086,713.143C624.251,724.644 626.748,736.317 628.746,748.079C630.642,759.856 632.07,771.708 633.063,783.597C634.03,795.491 634.654,807.403 634.653,819.365L633.222,819.341Z" style="fill:rgb(16,9,9);fill-rule:nonzero;"/>
        </g>
        <g transform="matrix(1,0,0,1,0,103.68)">
            <path d="M616.783,819.354C616.783,819.354 620.493,802.382 607.718,782.755C601.429,773.093 605.809,753.77 596.028,743.899C591.174,739 585.293,735.401 585.293,735.401C585.293,735.401 589.11,743.512 589.11,751.146C589.11,758.779 586.248,770.946 590.78,787.406C595.313,803.867 589.11,819.354 589.11,819.354L616.783,819.354Z" style="fill:rgb(17,158,74);fill-rule:nonzero;"/>
        </g>
        <g transform="matrix(1,0,0,1,0,103.68)">
            <path d="M603.343,819.347C603.403,813.173 603.27,806.964 602.755,800.808C602.484,797.733 602.131,794.656 601.454,791.668C601.11,790.195 600.602,788.729 600.173,787.216C599.745,785.715 599.368,784.203 599.022,782.686C597.647,776.616 596.634,770.478 595.916,764.306C595.742,762.762 595.591,761.215 595.486,759.664C595.356,758.113 595.39,756.553 595.262,755.016C594.996,751.948 594.339,748.837 592.787,746.136C594.392,748.808 595.113,751.92 595.44,754.999C595.599,756.552 595.595,758.103 595.754,759.644C595.888,761.187 596.068,762.726 596.271,764.262C597.105,770.403 598.234,776.511 599.718,782.519C600.09,784.021 600.494,785.514 600.945,786.988C601.39,788.452 601.93,789.913 602.323,791.455C603.076,794.509 603.49,797.608 603.824,800.706C604.462,806.91 604.715,813.124 604.775,819.359L603.343,819.347Z" style="fill:rgb(16,9,9);fill-rule:nonzero;"/>
        </g>
        <g transform="matrix(1,0,0,1,0,103.68)">
            <rect x="575" y="817.862" width="770" height="6.57" style="fill:rgb(16,9,9);fill-rule:nonzero;"/>
        </g>
        <g transform="matrix(1,0,0,1,0,103.68)">
            <path d="M945.247,301.771C946.797,308.494 952.807,313.512 960,313.512C967.193,313.512 973.203,308.494 974.753,301.771L945.247,301.771Z" style="fill:rgb(252,225,80);fill-rule:nonzero;"/>
        </g>
        <g transform="matrix(1,0,0,1,0,103.68)">
            <rect x="958.037" y="0" width="3.926" height="240.689" style="fill:rgb(13,153,137);fill-rule:nonzero;"/>
        </g>
        <g transform="matrix(1,0,0,1,0,103.68)">
            <path d="M967.37,258.332L967.37,244.6C967.37,242.44 965.619,240.689 963.459,240.689L956.542,240.689C954.381,240.689 952.63,242.44 952.63,244.6L952.63,258.332C955.04,258.055 957.498,257.901 960,257.901C962.502,257.901 964.96,258.055 967.37,258.332Z" style="fill:rgb(15,136,120);fill-rule:nonzero;"/>
        </g>
        <g transform="matrix(1,0,0,1,0,103.68)">
            <path d="M983.13,301.771C983.49,299.7 983.67,297.57 983.67,295.4C983.67,276.74 970.04,261.26 952.19,258.38C952.34,258.36 952.48,258.35 952.63,258.33C955.04,258.05 957.5,257.9 960,257.9C962.5,257.9 964.96,258.05 967.37,258.33C993.18,261.3 1013.05,279.61 1013.05,301.771L983.13,301.771Z" style="fill:rgb(25,146,132);fill-rule:nonzero;"/>
        </g>
        <g transform="matrix(1,0,0,1,0,103.68)">
            <path d="M983.67,295.4C983.67,297.57 983.49,299.7 983.13,301.771L906.95,301.771C906.95,297.36 907.74,293.09 909.21,289.08C915.06,273.041 931.72,260.88 952.19,258.38C970.04,261.26 983.67,276.74 983.67,295.4Z" style="fill:rgb(33,166,155);fill-rule:nonzero;"/>
        </g>
        <g transform="matrix(1,0,0,1,0,103.68)">
            <path d="M1075.1,490.546L1074.35,490.546L1087.45,328.759C1093,328.759 1096.95,337.102 1096.14,347.133L1085.9,473.532C1085.13,483.033 1080.36,490.546 1075.1,490.546Z" style="fill:rgb(34,167,156);fill-rule:nonzero;"/>
        </g>
        <g transform="matrix(1,0,0,1,0,103.68)">
            <path d="M1116.56,522.85C1107.75,522.85 1071.43,522.58 1071.09,522.577L1071.14,517.488C1071.47,517.491 1107.77,517.761 1116.56,517.761C1117.54,517.761 1119.28,517.632 1119.86,516.766C1120.49,515.811 1119.98,513.843 1119.73,513.235L1119.63,512.963L1094.34,426.524C1093.93,424.359 1092.19,422.701 1090.12,422.49L1090.42,417.408L1090.66,417.429C1094.89,417.858 1098.44,421.146 1099.31,425.445L1124.48,511.415C1124.84,512.349 1126.22,516.388 1124.1,519.58C1122.66,521.75 1120.12,522.85 1116.56,522.85Z" style="fill:rgb(34,167,156);fill-rule:nonzero;"/>
        </g>
        <g transform="matrix(1,0,0,1,0,103.68)">
            <path d="M987.226,522.85L987.226,520.651L1054.57,516.656L1054.57,522.85L987.226,522.85Z" style="fill:rgb(34,167,156);fill-rule:nonzero;"/>
        </g>
        <g transform="matrix(1,0,0,1,0,103.68)">
            <path d="M1001.28,773.567C1001.28,773.567 1012.09,812.673 1019.98,809.482C1027.86,806.292 1094.27,737.034 1094.27,737.034C1094.27,737.034 1093.38,727.913 1076.31,737.062C1059.24,746.209 1040.15,754.825 1033.6,752.719C1027.04,750.611 1001.28,773.567 1001.28,773.567Z" style="fill:rgb(53,71,80);fill-rule:nonzero;"/>
        </g>
        <g transform="matrix(1,0,0,1,0,103.68)">
            <path d="M851.249,777.313C851.249,777.313 830.638,816.192 839.041,817.513C848.147,818.944 942.813,817.513 942.813,817.513C942.813,817.513 949.057,808.921 930.449,803.554C911.842,798.187 892.161,791.029 888.94,784.946C885.72,778.863 851.249,777.313 851.249,777.313Z" style="fill:rgb(53,71,80);fill-rule:nonzero;"/>
        </g>
        <g transform="matrix(1,0,0,1,0,103.68)">
            <path d="M725.052,594.578C725.052,594.578 904.208,558.22 925.201,580.523C946.194,602.828 1033.6,752.719 1033.6,752.719C1033.6,752.719 1028.46,758.787 1019.98,765.347C1010.6,772.601 1001.06,773.973 1001.06,773.973C1001.06,773.973 920.417,679.066 880.719,673.629C855.909,670.23 768.708,685.114 746.357,670.254C727.037,657.408 725.052,594.578 725.052,594.578Z" style="fill:rgb(26,137,124);fill-rule:nonzero;"/>
        </g>
        <g transform="matrix(1,0,0,1,0,103.68)">
            <path d="M888.94,784.95C888.94,784.95 878.921,787.326 867.942,784.95C856.979,782.56 851.253,777.307 851.253,777.307C851.253,777.307 890.3,677.957 879.322,662.686C868.358,647.427 838.843,667.58 773.474,674.25C753.292,676.312 740.954,669.498 733.554,659.106C733.54,659.093 733.54,659.093 733.525,659.078C716.965,635.805 725.052,594.582 725.052,594.582L867.642,563.45C867.642,563.45 960.808,542.438 979.688,595.169C993.528,633.815 888.94,784.95 888.94,784.95Z" style="fill:rgb(33,166,155);fill-rule:nonzero;"/>
        </g>
        <g transform="matrix(1,0,0,1,0,103.68)">
            <path d="M696.21,398.92C693.248,397.689 694.622,393.324 688.195,394.884C685.476,390.762 678.72,386.411 675.198,383.934C671.362,381.258 676.587,379.282 678.791,378.61C679.235,378.481 679.407,377.966 679.135,377.593C679.135,377.593 678.562,376.463 678.204,376.305C676.658,375.632 671.534,377.092 671.534,377.092C673.681,370.809 666.367,361.548 666.367,361.548L666.353,361.548C669.158,360.26 672.264,359.573 675.241,359.587C684.96,359.645 699.746,361.806 702.15,374.874C703.739,383.476 724.193,379.769 726.283,379.368C726.326,379.368 726.354,379.354 726.383,379.354C726.426,379.34 726.455,379.34 726.455,379.34C736.188,389.975 699.76,400.395 696.21,398.92Z" style="fill:rgb(252,204,187);fill-rule:nonzero;"/>
        </g>
        <g transform="matrix(1,0,0,1,0,103.68)">
            <path d="M867.642,563.45C857.308,601.624 801.156,602.097 774.419,620.231C758.875,630.78 733.554,659.106 733.554,659.106C733.54,659.093 733.54,659.093 733.525,659.078C716.965,635.805 725.052,594.582 725.052,594.582L867.642,563.45Z" style="fill:rgb(25,146,132);fill-rule:nonzero;"/>
        </g>
        <g transform="matrix(1,0,0,1,0,103.68)">
            <path d="M867.642,563.45C849.564,586.753 815.398,594.754 785.04,596.829L785.025,596.829C752.906,599.033 725.052,594.582 725.052,594.582C708.778,575.359 697.456,555.049 690.027,534.924C688.524,530.859 687.179,526.808 685.991,522.772C673.509,480.576 677.446,440.47 687.794,414.763C690.271,408.594 693.119,403.27 696.21,398.918C699.76,400.392 736.188,389.972 726.455,379.337C747.796,373.984 768.708,379.881 768.708,379.881C897.528,410.655 867.642,563.45 867.642,563.45Z" style="fill:rgb(243,118,103);fill-rule:nonzero;"/>
        </g>
        <g transform="matrix(1,0,0,1,0,103.68)">
            <path d="M785.025,596.829C764.457,598.246 745.635,596.93 734.756,595.784C736.531,577.349 738.177,560.917 739.036,552.544C739.423,548.808 739.637,546.675 739.637,546.675C739.637,546.675 748.841,513.525 751.532,479.087C751.489,481.521 750.229,582.673 785.025,596.829Z" style="fill:rgb(227,80,74);fill-rule:nonzero;"/>
        </g>
        <g transform="matrix(1,0,0,1,0,103.68)">
            <path d="M709.722,708.459C709.722,708.459 703.94,718.751 702.15,717.147C700.361,715.53 708.377,699.399 708.449,699.785L708.463,699.8C709.035,702.791 709.422,704.695 709.551,705.268C709.737,706.055 709.78,707.157 709.722,708.459Z" style="fill:rgb(252,204,187);fill-rule:nonzero;"/>
        </g>
        <g transform="matrix(1,0,0,1,0,103.68)">
            <path d="M692.254,540.668L678.198,538.894C678.198,538.894 680.245,549.844 683.294,566.118C690.809,606.324 704.435,679.079 708.457,699.805C709.029,702.796 709.416,704.7 709.545,705.272C709.731,706.06 709.774,707.162 709.716,708.465C709.444,715.406 706.31,728.403 704.936,733.813C704.592,735.173 705.837,736.39 707.211,736.018C709.044,735.517 711.735,734.314 715.213,731.509C722.298,725.783 728.152,700.02 728.095,679.537C728.066,668.215 731.602,628.782 734.75,595.789C736.525,577.354 738.171,560.922 739.03,552.549C739.417,548.813 739.631,546.68 739.631,546.68L692.254,540.668Z" style="fill:rgb(252,204,187);fill-rule:nonzero;"/>
        </g>
        <g transform="matrix(1,0,0,1,0,103.68)">
            <path d="M739.631,546.68C739.631,546.68 739.417,548.813 739.03,552.549C716.129,549.786 684.21,565.659 683.294,566.118C680.245,549.844 678.198,538.894 678.198,538.894L739.631,546.68Z" style="fill:rgb(234,179,164);fill-rule:nonzero;"/>
        </g>
        <g transform="matrix(1,0,0,1,0,103.68)">
            <path d="M714.934,403.448C697.471,404.565 687.294,417.962 681.569,435.954C671.249,468.417 675.429,515.78 677.404,532.741C677.876,536.763 678.22,539.082 678.22,539.082L692.275,540.857L739.653,546.868C739.653,546.868 748.856,513.719 751.547,479.281L751.547,479.238C754.539,441.021 749.5,401.244 714.934,403.448Z" style="fill:rgb(242,101,87);fill-rule:nonzero;"/>
        </g>
        <g transform="matrix(1,0,0,1,0,103.68)">
            <path d="M1274.01,538.894L948.419,538.894C946.068,538.894 944.162,536.988 944.162,534.636L944.162,527.107C944.162,524.756 946.068,522.85 948.419,522.85L1274.01,522.85C1276.36,522.85 1278.26,524.756 1278.26,527.107L1278.26,534.636C1278.26,536.988 1276.36,538.894 1274.01,538.894Z" style="fill:rgb(121,72,107);fill-rule:nonzero;"/>
        </g>
        <g transform="matrix(1,0,0,1,0,103.68)">
            <path d="M1228.6,818.229L1218.58,818.229L1201.69,538.894L1211.71,538.894L1228.6,818.229Z" style="fill:rgb(87,41,77);fill-rule:nonzero;"/>
        </g>
        <g transform="matrix(1,0,0,1,0,103.68)">
            <path d="M997.007,818.229L1007.03,818.229L1023.92,538.894L1013.9,538.894L997.007,818.229Z" style="fill:rgb(87,41,77);fill-rule:nonzero;"/>
        </g>
        <g transform="matrix(1,0,0,1,0,103.68)">
            <path d="M1177.06,818.895C1177.06,818.895 1177.75,811.457 1177.91,799.417C1177.93,797.609 1199.96,795.698 1199.96,793.692C1199.96,792.229 1177.93,790.717 1177.9,789.157C1177.81,782.446 1177.53,774.877 1176.93,766.745C1176.81,765.082 1193.19,764.625 1193.04,762.919C1192.9,761.351 1176.23,758.536 1176.07,756.934C1175.87,754.975 1175.65,752.992 1175.41,750.989C1175.17,749.006 1187.12,748.954 1186.84,746.936C1186.63,745.423 1174.21,741.949 1173.97,740.42C1170.42,717.336 1163.91,692.535 1152.25,671.074C1152.25,671.074 1162.4,677.73 1175.87,690.282C1176.89,691.233 1175.29,696.297 1176.34,697.315C1177.33,698.272 1180.98,695.181 1182,696.196C1191.3,705.475 1201.57,717.199 1210.93,731.161C1211.89,732.585 1205.7,737.831 1206.64,739.302C1207.33,740.396 1215.15,737.707 1215.84,738.828C1221.42,747.991 1226.52,758.004 1230.69,768.815C1231.42,770.706 1212.89,780.541 1213.56,782.48C1214.2,784.351 1234.05,778.323 1234.64,780.238C1236.22,785.4 1237.58,790.725 1238.67,796.205C1238.93,797.475 1219.3,802.425 1219.52,803.712C1219.72,804.854 1239.77,802.331 1239.95,803.487C1240.67,808.252 1241.18,813.128 1241.47,818.112L1177.06,818.895Z" style="fill:rgb(9,137,68);fill-rule:nonzero;"/>
        </g>
        <g transform="matrix(1,0,0,1,0,103.68)">
            <path d="M1208.31,818.134C1207.78,806.587 1206.29,795.026 1204.25,783.609C1202.18,772.188 1199.41,760.892 1195.98,749.8C1192.64,738.671 1188.22,727.893 1183.22,717.414L1179.27,709.65C1177.89,707.095 1176.32,704.644 1174.85,702.135L1172.62,698.391C1171.84,697.17 1170.97,696.004 1170.14,694.808L1165.13,687.67L1170.21,694.757C1171.05,695.945 1171.93,697.104 1172.73,698.318L1175.01,702.041C1176.5,704.537 1178.09,706.976 1179.5,709.521L1183.55,717.255C1188.66,727.698 1193.2,738.46 1196.66,749.583C1200.22,760.67 1203.11,771.972 1205.31,783.413C1207.47,794.864 1209.08,806.407 1209.74,818.091L1208.31,818.134Z" style="fill:rgb(16,9,9);fill-rule:nonzero;"/>
        </g>
        <g transform="matrix(1,0,0,1,0,103.68)">
            <path d="M1203.94,818.112C1203.94,818.112 1204.83,809.004 1207.51,794.722C1208.21,791.011 1235.41,779.288 1235.41,779.288C1236.23,775.587 1211.71,775.003 1212.74,770.938C1213.43,768.201 1214.17,765.393 1214.96,762.524C1215.5,760.575 1216.06,758.598 1216.65,756.597C1219.08,748.325 1221.95,739.651 1225.32,730.864C1226.28,728.355 1245,732.55 1246.05,730.029C1246.05,730.029 1230.67,717.775 1231.92,715.009C1238.52,700.422 1246.6,686 1256.47,673.048C1257.56,671.616 1275.21,675.639 1275.21,675.639C1276.21,674.409 1261.83,666.365 1262.86,665.167C1276.97,648.857 1294.34,635.622 1315.68,628.524C1315.68,628.524 1312.83,635.44 1308.86,647.712C1305.3,658.716 1300.84,674.025 1296.71,692.517C1296.25,694.598 1276.2,695.664 1275.75,697.824C1275.75,697.824 1294.55,702.671 1294.17,704.609C1293.44,708.293 1292.73,712.079 1292.04,715.96C1291.8,717.367 1279.75,716.073 1279.51,717.505C1279.23,719.162 1290.77,723.55 1290.5,725.239C1288.23,739.749 1286.41,755.419 1285.42,771.907C1285.34,773.213 1262.4,775.769 1262.33,777.085C1262.33,777.085 1285.08,778.35 1285.02,779.611C1284.91,782.228 1284.82,784.862 1284.75,787.516C1284.7,789.694 1256.09,792.059 1256.07,794.261C1256.05,796.041 1284.61,797.655 1284.61,799.449C1284.62,805.595 1284.76,811.821 1285.05,818.112L1203.94,818.112Z" style="fill:rgb(61,183,104);fill-rule:nonzero;"/>
        </g>
        <g transform="matrix(1,0,0,1,0,103.68)">
            <path d="M1246.05,818.101C1246.58,802.771 1248.17,787.547 1250.39,772.407C1252.62,757.274 1255.66,742.257 1259.6,727.476C1261.61,720.097 1263.81,712.768 1266.32,705.544C1268.87,698.336 1271.65,691.204 1274.8,684.238C1278.01,677.297 1281.49,670.48 1285.43,663.927C1289.42,657.405 1293.8,651.129 1298.65,645.223C1293.85,651.167 1289.51,657.473 1285.58,664.019C1281.7,670.596 1278.27,677.43 1275.13,684.385C1272.03,691.364 1269.32,698.505 1266.83,705.719C1264.37,712.948 1262.24,720.279 1260.29,727.658C1256.48,742.439 1253.56,757.447 1251.45,772.562C1249.35,787.669 1247.89,802.904 1247.48,818.124L1246.05,818.101Z" style="fill:rgb(16,9,9);fill-rule:nonzero;"/>
        </g>
        <g transform="matrix(1,0,0,1,0,103.68)">
            <path d="M1209.02,818.112C1209.02,818.112 1205.77,799.117 1201.15,790.186C1199.95,787.864 1179.58,785.518 1179.58,785.518C1178.3,783.228 1194.43,777.953 1192.94,775.463C1191.94,773.787 1190.89,772.072 1189.79,770.329C1189.05,769.145 1188.28,767.946 1187.49,766.737C1184.23,761.74 1180.6,756.562 1176.62,751.408C1175.48,749.938 1163.9,756.45 1162.71,754.988C1162.71,754.988 1170.46,743.8 1169.08,742.216C1163.26,735.544 1156.84,729.13 1149.84,723.445C1149.21,722.931 1140.63,730.042 1139.99,729.54C1139.5,729.153 1146.93,721.15 1146.43,720.771C1145.77,720.273 1145.11,719.781 1144.44,719.297C1143.43,718.565 1132.53,724.749 1132.53,724.749C1131.63,724.134 1139.56,715.935 1138.63,715.348C1126.03,707.349 1111.88,702.037 1096.32,701.586C1096.32,701.586 1099.59,705.604 1104.67,712.946C1105.36,713.956 1111.72,713.264 1112.48,714.396C1112.95,715.097 1107.81,717.584 1108.3,718.33C1112.22,724.256 1116.82,731.624 1121.65,740.223C1122.37,741.51 1135.87,738.221 1136.6,739.562C1136.6,739.562 1125.1,746.522 1125.75,747.73C1126.96,750.026 1128.19,752.395 1129.42,754.831C1129.86,755.715 1131.77,759.607 1132.29,760.674C1136.69,769.839 1141.02,779.862 1144.96,790.594C1145.27,791.444 1160.99,788.564 1161.29,789.423C1161.29,789.423 1146.47,794.797 1146.76,795.622C1147.35,797.334 1147.94,799.063 1148.51,800.807C1148.98,802.24 1168.42,798.104 1168.87,799.56C1169.24,800.735 1150.63,807.499 1150.98,808.688C1152.2,812.765 1153.35,816.919 1154.41,821.146L1209.02,818.112Z" style="fill:rgb(17,158,74);fill-rule:nonzero;"/>
        </g>
        <g transform="matrix(1,0,0,1,0,103.68)">
            <path d="M1186.41,819.59C1182.28,809.126 1177.55,798.858 1172.47,788.794C1167.35,778.745 1161.86,768.874 1155.8,759.36C1149.76,749.841 1143.18,740.637 1135.82,732.084C1128.47,723.533 1120.27,715.642 1110.94,709.261C1120.34,715.542 1128.64,723.359 1136.08,731.85C1143.55,740.34 1150.24,749.496 1156.4,758.974C1162.58,768.446 1168.19,778.282 1173.43,788.304C1178.63,798.351 1183.47,808.566 1187.75,819.074L1186.41,819.59Z" style="fill:rgb(16,9,9);fill-rule:nonzero;"/>
        </g>
        <g transform="matrix(1,0,0,1,0,103.68)">
            <path d="M1253.76,501.823L1158.88,501.823L1158.88,504.636L1243.6,504.636C1245.11,504.636 1246.33,505.986 1246.33,507.651L1246.33,516.911C1246.33,518.576 1245.11,519.926 1243.6,519.926L1158.88,519.926L1158.88,522.85L1253.76,522.85C1256.15,522.85 1258.09,520.705 1258.09,518.058L1258.09,506.616C1258.09,503.969 1256.15,501.823 1253.76,501.823Z" style="fill:rgb(53,71,80);fill-rule:nonzero;"/>
        </g>
        <g transform="matrix(1,0,0,1,0,103.68)">
            <path d="M1247.51,516.911L1247.51,507.651C1247.51,505.986 1246.29,504.636 1244.79,504.636L1160.34,504.636L1160.34,519.926L1244.79,519.926C1246.29,519.926 1247.51,518.576 1247.51,516.911Z" style="fill:white;fill-rule:nonzero;"/>
        </g>
        <g transform="matrix(1,0,0,1,0,103.68)">
            <path d="M1165.94,481.993L1250.46,481.993L1250.46,484.684L1170.97,484.684C1169.56,484.684 1168.41,485.95 1168.41,487.512L1168.41,496.2C1168.41,497.762 1169.56,499.028 1170.97,499.028L1250.46,499.028L1250.46,501.823L1165.94,501.823C1163.69,501.823 1161.87,499.81 1161.87,497.327L1161.87,486.489C1161.87,484.006 1163.69,481.993 1165.94,481.993Z" style="fill:rgb(242,101,87);fill-rule:nonzero;"/>
        </g>
        <g transform="matrix(1,0,0,1,0,103.68)">
            <path d="M1168.41,496.2L1168.41,487.512C1168.41,485.95 1169.54,484.684 1170.93,484.684L1249.08,484.684L1249.08,499.028L1170.93,499.028C1169.54,499.028 1168.41,497.762 1168.41,496.2Z" style="fill:white;fill-rule:nonzero;"/>
        </g>
        <g transform="matrix(1,0,0,1,0,103.68)">
            <path d="M1180.91,476.318L1180.91,467.631C1180.91,466.068 1182.06,464.802 1183.47,464.802L1236.55,464.802L1236.55,462.111L1179.27,462.111C1177.02,462.111 1175.2,464.125 1175.2,466.608L1175.2,477.445C1175.2,479.928 1177.02,481.941 1179.27,481.941L1236.55,481.941L1236.55,479.146L1183.47,479.146C1182.06,479.146 1180.91,477.88 1180.91,476.318Z" style="fill:rgb(33,166,155);fill-rule:nonzero;"/>
        </g>
        <g transform="matrix(1,0,0,1,0,103.68)">
            <path d="M1183.32,464.802C1181.99,464.802 1180.91,466.068 1180.91,467.631L1180.91,476.318C1180.91,477.88 1181.99,479.146 1183.32,479.146L1234.12,479.146L1234.12,464.802L1183.32,464.802Z" style="fill:white;fill-rule:nonzero;"/>
        </g>
        <g transform="matrix(1,0,0,1,0,103.68)">
            <path d="M680.417,278.224C675.269,276.947 670.022,275.999 664.708,275.394C663.842,275.295 663.17,275.389 662.7,275.666C662.229,275.943 661.972,276.343 661.925,276.861C661.879,277.359 662.059,277.78 662.459,278.126C662.86,278.473 663.48,278.689 664.323,278.785C668.331,279.241 672.299,279.898 676.214,280.75C670.68,284.25 665.601,288.13 661.018,292.304C660.799,292.498 660.545,292.728 660.256,292.994C659.968,293.259 659.743,293.481 659.581,293.656C659.418,293.833 659.285,294.023 659.181,294.23C659.077,294.437 659.016,294.667 658.996,294.921C658.937,295.665 659.151,296.277 659.628,296.764C660.106,297.251 660.847,297.542 661.858,297.654C666.82,298.203 671.711,299.118 676.495,300.382C677.188,300.565 677.745,300.557 678.172,300.348C678.599,300.14 678.89,299.778 679.039,299.258C679.183,298.758 679.122,298.318 678.85,297.939C678.579,297.561 678.084,297.272 677.367,297.082C673.335,296.017 669.23,295.191 665.071,294.615C669.431,290.902 674.213,287.46 679.382,284.355C680.582,283.648 681.413,283.138 681.847,282.801C682.282,282.464 682.599,281.943 682.794,281.234C683.206,279.753 682.421,278.725 680.417,278.224Z" style="fill:rgb(87,41,77);fill-rule:nonzero;"/>
        </g>
        <g transform="matrix(1,0,0,1,0,103.68)">
            <path d="M705.568,294.441C702.235,292.672 698.818,291.065 695.331,289.626C694.663,289.351 694.092,289.277 693.625,289.399C693.157,289.521 692.837,289.809 692.664,290.255C692.426,290.864 692.517,291.331 692.929,291.659C693.342,291.988 694.004,292.337 694.911,292.718C697.105,293.641 699.27,294.632 701.401,295.69C700.979,295.88 700.441,296.093 699.791,296.333C699.14,296.574 698.334,296.864 697.379,297.215C696.425,297.565 695.403,297.951 694.32,298.378C693.237,298.805 692.043,299.301 690.751,299.875C689.528,300.422 688.73,300.827 688.33,301.06C687.93,301.292 687.667,301.578 687.54,301.911C687.324,302.473 687.343,302.988 687.59,303.457C687.837,303.926 688.334,304.309 689.081,304.616C692.626,306.076 696.086,307.737 699.443,309.593C700.042,309.923 700.558,310.047 700.999,309.958C701.44,309.87 701.779,309.625 702.015,309.219C702.26,308.795 702.311,308.361 702.16,307.916C702.01,307.471 701.629,307.076 701.021,306.739C698.515,305.354 695.953,304.074 693.343,302.901C696.951,301.396 700.718,300.074 704.626,298.958C705.058,298.844 705.424,298.747 705.725,298.663C706.024,298.578 706.269,298.501 706.457,298.431C706.644,298.361 706.842,298.248 707.053,298.091C707.263,297.935 707.424,297.759 707.535,297.563C707.867,296.978 707.857,296.434 707.496,295.935C707.136,295.436 706.494,294.933 705.568,294.441Z" style="fill:rgb(87,41,77);fill-rule:nonzero;"/>
        </g>
        <g transform="matrix(1,0,0,1,0,103.68)">
            <path d="M730.499,312.757C730.266,312.181 729.758,311.53 728.971,310.82C726.135,308.266 723.185,305.86 720.133,303.609C719.548,303.178 719.01,302.967 718.526,302.971C718.041,302.976 717.661,303.176 717.384,303.567C717.007,304.101 716.982,304.576 717.305,304.997C717.628,305.417 718.188,305.917 718.981,306.51C720.897,307.944 722.771,309.441 724.6,311C724.143,311.08 723.567,311.153 722.874,311.226C722.181,311.299 721.325,311.382 720.309,311.487C719.294,311.592 718.205,311.716 717.046,311.865C715.888,312.014 714.605,312.202 713.208,312.443C711.886,312.677 711.011,312.875 710.565,313.002C710.12,313.132 709.796,313.345 709.592,313.637C709.246,314.13 709.141,314.635 709.269,315.151C709.397,315.667 709.788,316.16 710.442,316.641C713.545,318.927 716.525,321.397 719.366,324.046C719.873,324.518 720.348,324.768 720.801,324.792C721.253,324.817 721.643,324.664 721.971,324.327C722.312,323.976 722.464,323.565 722.423,323.093C722.382,322.622 722.104,322.141 721.589,321.661C719.469,319.684 717.273,317.803 715.009,316.021C718.889,315.445 722.883,315.093 726.972,314.983C727.42,314.981 727.802,314.978 728.116,314.971C728.43,314.963 728.687,314.95 728.887,314.929C729.087,314.907 729.309,314.846 729.552,314.747C729.795,314.647 729.994,314.516 730.149,314.354C730.614,313.866 730.733,313.334 730.499,312.757Z" style="fill:rgb(87,41,77);fill-rule:nonzero;"/>
        </g>
    </g>
</svg>
